<?xml version="1.0" encoding="UTF-8"?>
<svg id="Layer_2" data-name="Layer 2" xmlns="http://www.w3.org/2000/svg" viewBox="0 0 1303.24 2008.24">
  <defs>
    <style>
      .cls-1 {
        fill: #fad6e7;
      }

      .cls-1, .cls-2, .cls-3, .cls-4, .cls-5, .cls-6, .cls-7, .cls-8, .cls-9, .cls-10, .cls-11, .cls-12, .cls-13, .cls-14, .cls-15, .cls-16, .cls-17, .cls-18, .cls-19, .cls-20, .cls-21, .cls-22, .cls-23, .cls-24, .cls-25, .cls-26, .cls-27, .cls-28, .cls-29, .cls-30, .cls-31, .cls-32, .cls-33, .cls-34, .cls-35, .cls-36, .cls-37, .cls-38, .cls-39, .cls-40, .cls-41, .cls-42, .cls-43, .cls-44, .cls-45, .cls-46, .cls-47, .cls-48, .cls-49 {
        stroke-width: 0px;
      }

      .cls-2 {
        fill: #4d4134;
      }

      .cls-3 {
        fill: #614434;
      }

      .cls-4 {
        fill: #77394b;
      }

      .cls-5 {
        fill: #5f371a;
      }

      .cls-6 {
        fill: #50182e;
      }

      .cls-7 {
        fill: #4e2724;
      }

      .cls-8 {
        fill: #2c191a;
      }

      .cls-9 {
        fill: #551019;
      }

      .cls-10 {
        fill: #a1bf8f;
      }

      .cls-11 {
        fill: #6f1f2d;
      }

      .cls-12 {
        fill: #3a162b;
      }

      .cls-13 {
        fill: #3d3034;
      }

      .cls-14 {
        fill: #392239;
      }

      .cls-15 {
        fill: #3a1720;
      }

      .cls-16 {
        fill: #852340;
      }

      .cls-17 {
        fill: #1b1b1b;
      }

      .cls-18 {
        fill: #19242d;
      }

      .cls-19 {
        fill: #0c2729;
      }

      .cls-20 {
        fill: #3f3026;
      }

      .cls-21 {
        fill: #371312;
      }

      .cls-22 {
        fill: #0e1929;
      }

      .cls-23 {
        fill: #422929;
      }

      .cls-24 {
        fill: #a95f79;
      }

      .cls-25 {
        fill: #1f181e;
      }

      .cls-26 {
        fill: #171c16;
      }

      .cls-27 {
        fill: #162e38;
      }

      .cls-28 {
        fill: #ddd7b2;
      }

      .cls-29 {
        fill: #cd89a2;
      }

      .cls-30 {
        fill: #e19a9d;
      }

      .cls-31 {
        fill: #cc647f;
      }

      .cls-32 {
        fill: #e2b69d;
      }

      .cls-33 {
        fill: #ab4b6a;
      }

      .cls-34 {
        fill: #cf7787;
      }

      .cls-35 {
        fill: #cdb6b0;
      }

      .cls-36 {
        fill: #c39594;
      }

      .cls-37 {
        fill: #b48c94;
      }

      .cls-38 {
        fill: #8e475d;
      }

      .cls-39 {
        fill: #6d2340;
      }

      .cls-40 {
        fill: #986d57;
      }

      .cls-41 {
        fill: #985371;
      }

      .cls-42 {
        fill: #8c4349;
      }

      .cls-43 {
        fill: #a25b65;
      }

      .cls-44 {
        fill: #663c38;
      }

      .cls-45 {
        fill: #e6aeb4;
      }

      .cls-46 {
        fill: #ee8a90;
      }

      .cls-47 {
        fill: #e7aa97;
      }

      .cls-48 {
        fill: #f6dace;
      }

      .cls-49 {
        fill: #f5afab;
      }
    </style>
  </defs>
  <g id="base_layer" data-name="base layer">
    <g>
      <path class="cls-27" d="M206.72,426.35c6.61,4.77,15.24,6.31,22.26,9.54,1.68.77,10.91,8.48,19.08,9.54,8.97,16.69,36.3,53.3,49.29,63.61,31.52,25,83.6,31.96,87.46,44.52.45,1.45.17,31.15-6.36,25.44-8.12-6.93-11.24,2.04-15.9,0-31.77-13.91-36.52-30.35-65.2-47.7-40.18,5.51-106.1,20.21-141.52,0-2.83-1.62-35.6-33.92-47.7-44.52-5.62-4.93-12.66-8.61-15.9-15.9,1.25-.14-3.23-15.21,19.08,0,11.37,7.75,37.45,50.02,71.56,57.24,33.2,7.03,39.93-9.98,49.29-9.54.76,2.4,15.05,6.35,15.9,6.36,11.19.14,21.42.42,31.8-4.77,1.47-8.28-8.18-13.47-15.9-23.85-5.08-6.83-10.42-10.16-15.9-15.9-15.98-16.72-31.45-31.79-50.88-44.52.4-.41,1.86-9.43,3.18-11.13,2.57-3.33,5.05,3.39,6.36,1.59Z"/>
      <g>
        <path class="cls-22" d="M578.05,1.49c35.54,55.3,67.46,125.1,44.52,4.77,1.83-2.65,4.79-2.7,6.36,0,13.23,22.79,8.36,196.43,155.83,108.13q-6.36-56.45-12.72-112.9c10.6.02,21.2-.02,31.8,0-2.74,70.05-1.27,202.96,36.57,114.49,62.74,111.43-3.83-78.19-4.77-114.49,3.18,0,6.36,0,9.54,0,35.19,119.84,6.81,207.56,136.75,151.06q-7.95-75.53-15.9-151.06c43.46.12,86.93-.21,130.39,0-8.08,88.34-38.44,181.91-1.59,267.14,7.33,1.93,13.58-19.86,14.31-23.85,7.07-38.4,3.01-178.75,15.9-243.29,2.12.01,4.24-.01,6.36,0-4.13,65.13-4.17,130.42-6.36,195.59-.59,17.48-19.63,112.81,19.08,54.06,25.8-39.16,36.76-194.87,41.34-249.65,23.3.23,46.69-.64,69.97,0-14.83,181.95-115.41,367.07-127.21,539.05-2.55,37.15-6.74,86.12,6.36,120.85,36.45,96.6,57.65-75.25,69.97-100.18h3.18c-2.39,17.43,2.68,46.57,0,62.02-1.88,10.83-57.62,102.3-7.95,109.72,41.27,6.16,34.32-69.63,46.11-116.08,7.31-28.8,23.83-66.3,31.8-108.13,12.82-67.27,12.64-137.72,25.44-205.13.27,74.2-.12,148.41,0,222.62-17.79,76.34-59.16,245.08-63.61,313.26-4.24,64.98,10.67,126.33,9.54,190.82,7.77,38.42,16.28,75.59,28.62,112.9,4.87,14.71,4.55,44.57,25.44,44.52.15,242.76.11,485.52,0,728.28-36.21-6.53-44.54-57.88-69.97-42.93-5.18,39.46-36.16,41.53,19.08,89.05,4.21,8.19-2.04,13.69,0,17.49-46.77-2.48-38.98,20.03-41.34,28.62-17.64-19.74-20.14-5.31-41.34-31.8-2.95-3.68-3.82-8.03-3.18-12.72-1.17-7.28,2.91-6.13,3.18-6.36,11.05-9.77.85-2.62,3.18-12.72,3.47-15.05,5.96-8.43,6.36-9.54.25-.69,4.49,4.31,9.54-11.13,1.93-28.21,4.95-55.99,6.36-84.28,1.89-37.9,7.55-50.72-3.18-89.05-7.55-26.98-19.49-43.03-44.52-57.24-.05-2.12.07-4.24,0-6.36l6.36-3.18c.61,1.15,19.4,16.19,20.67,15.9,3.2-.73.67-8.22,1.59-9.54.29-.41,6.19-4,9.54-3.18,5.09,14.86,4.27,28.74,20.67,41.34q2.39-2.39,4.77-4.77c-27.69-51.93-5.1-146.89-66.79-170.14-2.34-4.18-9.79-17.59-12.72-19.08q1.59-1.59,3.18-3.18c1.76,1.77,37.44,14.46,42.93,25.44,7.6-5.55-6.38-20.79-11.13-25.44,26.98-26.25,20.29,6.63,25.44,11.13,5.15,4.49,7.15-3.5,12.72-1.59-11.13,29.49,2.28,38.17,25.44,19.08,25.87-21.32,6.48-45.08,6.36-47.7-.11-2.44,8.77-17.4-3.18-47.7.16-2.1-.03-4.25,0-6.36.05-3.51-8.35-60.52-9.54-63.61-9.49-24.57-17.62-9.85-31.8,0,10.38-30.56,36.84-28.07,12.72-57.24,2.56-25.18-7.27-27.6-9.54-38.16-13-60.53-9.3-83.8-47.7-25.44-22.03-17-5.8-23.85,3.18-31.8.43-.38,9.29-1.56,11.13-3.18,26.66-23.44-10.48-46.39-3.18-73.15-10.83-6.42-14.19,39.89-14.31,44.52q-4.77,1.59-9.54,3.18c-7.87-11.72,15.11-40.28,9.54-71.56-5.79-32.53-5.41,23.08-9.54,38.16-.82-47.21-8.96-130.54-39.75-106.54-5.26-2.95,9.32-16.99,4.77-27.03-2.43-5.37-81.4-64.23-93.82-71.56-12.25-8.92-1.94-9.94-7.95-15.9-8.25-8.18-18.78-28.19-31.8-34.98v-9.54c40.25-1,27.94-23.1,39.75-25.44,5.66-1.12,26.11,10.74,36.57,6.36,13.17-17.42,18.3-11.88,19.08-12.72h3.18c-5.39,32.28-47.46,11.47-19.08,46.11,11.03,13.46,42.98,20.8,47.7,9.54,3.82-9.1-26.39-39.48-22.26-55.65,20.19,6.57,37.33,16.98,15.9-17.49,21.43-11.09-3.06-11.44-3.18-12.72-1.02-10.65,17.96-.22,0-39.75-8.15-17.93-30.87-42.3-42.93-60.43-9.27,5.73.95,35.44-17.49,47.7-.43-1.63.3-3.52-3.18-3.18,11.78-15.12,11.82-44.79,3.18-62.02-8.13-16.21-160.43-149.09-200.36-251.24-61.6-157.61,38.23-381.94-124.03-297.35-1.81-10.46-11.54-13.4-15.9-19.08-3.97-5.17-35.5-39.26-38.16-38.16-9.42,3.87,7.24,24.93-3.18,31.8-7.02-22.91-15.56-47.02-42.93-50.88-21.17-2.99-24.28,6.16-27.03,6.36-7.8-12.46-19.35-21.69-34.98-19.08,7.55-4,12.81-1.42,15.9-6.36,97.24,15.25,33.18-43.34,15.9-89.05,3.18,0,6.36,0,9.54,0Z"/>
        <path class="cls-27" d="M1294.37.19c-27.21,186.71-57.07,372.76-82.69,559.73h-3.18c7.05-188.6,57.9-372.4,76.33-559.73,3.1.27,6.54-.55,9.54,0Z"/>
        <path class="cls-24" d="M540.64.19c8.1,41.82,14.56,16.76,34.98,36.57l-9.54,9.54c12.97,26.07-35.51,33.33-57.24,30.21-8.56-3.75-15-12.25-15.9-12.72-14.49-52.94,55.72,19.07,3.18-63.61,14.84.01,29.68-.01,44.52,0Z"/>
        <path class="cls-13" d="M356.19.19c14.54,21.11,32.77,39.67,47.7,60.43,6.14,8.53,13.11,17.06,19.08,25.44,2.74,3.84,30.76,57.95,36.57,54.06,19.11-52.88,65.46,30.13,84.28,82.69-1.49-.74-6.01-3.12-6.36-3.18-5.76-19-43.97-95.65-65.2-92.23-14.94,2.4,16,46.06-25.44,6.36q-2.39,1.59-4.77,3.18C412.35,90.03,387.84,41.98,349.83.19c2.12,0,4.24,0,6.36,0Z"/>
        <path class="cls-24" d="M206.72,426.35c-1.31,1.8-3.79-4.92-6.36-1.59-1.32,1.7-2.78,10.72-3.18,11.13-8.4,8.59-16.52,27.7-30.21,25.44-16.97-8.7-37.96-12.16-36.57-38.16.86-.36,15.21-8.92,15.9-9.54,6.02-5.41,1.46-8.84,3.18-12.72,2.03-4.56-5.46-14.43,15.9-22.26,1.98-.73,9.04-3.14,9.54-3.18,2.47-.18,38.67,4.91,44.52,14.31,10.64,17.1-4.09,24.7-12.72,36.57Z"/>
        <path class="cls-41" d="M114.49,429.53c2.82,22.81,12.46,18.03-3.18,41.34-22.31-15.21-17.83-.14-19.08,0-55.67,6.21-32.15-23.94-46.11-25.44-56.41,17.35-26.09-2.49-27.03-4.77-.82-2-40.49-23.94-1.59-23.85,1.31,0,8.46,13.51,22.26,6.36,2.12-1.1-12.59-5.66,28.62-31.8,13.3,8.32,20.2,33.88,22.26,34.98,1.06.57,22.66,3.31,23.85,3.18Z"/>
        <path class="cls-24" d="M50.88,305.5c3.28,7.27,20.59,19.64,25.44,30.21,1.2,7.99-3.86,8.65-6.36,14.31-.37.85-4.12-5.75-9.54,15.9-3.05,12.17-1.44,7.05,3.18,17.49-7.17,12.41-21.6,6.28-23.85,7.95-3.57,2.64-33.21,52.86-14.31-1.59C14.84,391.15-.02,380.94,0,370.7c.03-14.06,26.5-15.91,31.8-31.8,2.09-6.25-5.44-12.98,0-23.85,4.99-9.97,7.68-10.32,19.08-9.54Z"/>
        <path class="cls-8" d="M477.04,203.73c5.51,8.23,12.61,11.72,15.9,15.9,6.64,8.43,11.63,14.42,19.08,22.26.67.7,5.51,15.59,11.13,15.9,1.68.09,33.81-22.23,11.13-1.59-.18,3.69.28,7.46,0,11.13-.36,4.79,47.32,70.82,54.06,79.51,2.71,3.49,5.75,4.72,9.54,6.36-.92,7.95,8.76,32.77,9.54,41.34.38,4.16-.06,8.52,0,12.72-5.6-2.1-10.94-13.73-12.72-19.08-3.66-10.98,2.37-6.49-9.54-25.44-25.13-75.06-96.31-108.24-130.39-190.82-2.97-7.19-14.81-29.47-12.72-34.98,13.46,21.25,21.86,47.17,34.98,66.79Z"/>
        <path class="cls-24" d="M235.34,321.4c-25.91,16.9,12.83,28.01-3.18,36.57,17.26,3.47,36.96,24.21,6.36,20.67-3.18-.37-7.34.69-9.54,0-2.11-.66-31.8-21.64-34.98-27.03-15.06-25.47,12.62-26.54,23.85-46.11,10.03-3.47,12.7,11.99,17.49,15.9Z"/>
        <path class="cls-24" d="M155.83,531.3q-12.72,6.36-25.44,12.72c-.15-.51-6.93,1.21-9.54-4.77-1.21-2.77,1.25-10.75,0-12.72-17.36-27.44-72.83-24.08-12.72-39.75,12.11,10.61,44.87,42.91,47.7,44.52Z"/>
        <path class="cls-19" d="M69.97,350.02q39.75,25.44,79.51,50.88c-1.72,3.88,2.84,7.31-3.18,12.72q-42.93-23.85-85.87-47.7c5.42-21.65,9.17-15.05,9.54-15.9Z"/>
        <path class="cls-24" d="M248.06,445.43c-8.17-1.06-17.4-8.77-19.08-9.54.12-5.62,6.5-21.11,6.36-22.26,2.07-.23,4.79.46,6.36,0,5.56-1.65,10.97-7.84,17.49-6.36,4.95,1.13,20.92,42.32-11.13,38.16Z"/>
        <path class="cls-25" d="M174.91,375.47c-.5.04-7.56,2.45-9.54,3.18-35.72-31.49-28.67-61.84-38.16-100.18-6.61-26.69-30.08-60.73,3.18-6.36,5.34,43.61,12.6,71.53,44.52,103.36Z"/>
        <path class="cls-24" d="M50.88,305.5c-11.4-.78-14.1-.43-19.08,9.54-2.38-.46-4.18-2.08-6.36-3.18,4.46-7.15-1.01-29.63-3.18-38.16,37.53-18.29,23.75,21.01,28.62,31.8Z"/>
        <path class="cls-25" d="M22.26,273.7c2.17,8.53,7.64,31.01,3.18,38.16-22.96-11.53-26.8-40.21-23.85-41.34,10.12,7.84,5.78,27.4,20.67,27.03-9.51-21.07-14.22-79.66,0-23.85Z"/>
        <path class="cls-26" d="M238.52,378.65q1.59,17.49,3.18,34.98c-1.57.46-4.29-.23-6.36,0-.47-3.83-17.09-15.1-6.36-34.98,2.2.69,6.36-.37,9.54,0Z"/>
        <path class="cls-24" d="M1027.23,798.44c2.07,7.76,4.53,19.4,6.36,25.44,4.47,14.78,6.12,9.02,6.36,9.54.7,1.53-7.34,4.52,4.77,12.72,37.21,25.18,8.91-18.98,42.93-34.98,17.96,39.53-1.02,29.1,0,39.75.12,1.28,24.61,1.63,3.18,12.72,21.43,34.48,4.29,24.06-15.9,17.49-1.45-.47-4.26.24-6.36,0h-3.18c20.94-22.36-17.16-19.59-19.08,12.72-10.47,4.38-30.92-7.48-36.57-6.36-11.81,2.35.49,24.44-39.75,25.44-1.65.04-17.33-10.92-27.03-6.36-3.26,1.53-.76,8.83-1.59,9.54-8.58,7.38-8.5,14.15-15.9,12.72-.32-.47-9.22-5.89-9.54-6.36-6.52-9.64-20.43-18.5-25.44-28.62-14.45-29.21-8.13-31.83,19.08-22.26,3.67,5.52,5.71,9.31,4.77,15.9q10.34,4.77,20.67,9.54c21.82,1.96,19.13-2.87,31.8-15.9,37.08,10.46,46.92-14.44,22.26-41.34-3.6-8.73-13.93,2.15-19.08,3.18-6.65-12.49,18.67-38.44,25.44-41.34,21.19-9.1,18.43,6.72,28.62-6.36,3.48-.34,2.75,1.56,3.18,3.18Z"/>
        <path class="cls-24" d="M1148.08,1704.82c.56,7.94,1.15,15.02,4.77,22.26,32.93-55.19-1.8,81.48,25.44,34.98,9.55,37.27.69-1.2,17.49-12.72,10.73,38.33,5.07,51.15,3.18,89.05-21.93,17.61-11.86-28.7-50.88,6.36-10.32-16.55-21.69-20.72-41.34-9.54-4.9-.46-7.43-7.44-9.54-9.54,1.09-2.91,3.49-15.15,3.18-15.9,27.9-5.31,8.06-37.81,0-54.06.5,0,7.63-2.54,9.54-3.18-1.32,12.98,10.59,25.91,14.31,6.36,11.39,28.44,21.49,6.98,4.77-15.9,12.32-9.98,20.44-28.14,6.36-38.16,4.95-6.63,7.96-2.18,12.72,0Z"/>
        <path class="cls-24" d="M1138.53,1211.88q4.77-1.59,9.54-3.18c-.06,2.33,6.32,13.53,6.36,14.31.61,11.05-14.62,16.82,0,17.49-8.98,7.95-25.21,14.8-3.18,31.8,1.53,5.06-2.91,6.24-3.18,9.54-8.46.92-16.12.24-22.26-6.36-.6-.65,1.51-1.26-6.36-12.72-.73-1.06,6.19-26.07-12.72-6.36-1.7-1.15-4.27-2.66-6.36-3.18.74-12.14-3.06-5.36-6.36-9.54-26.63-33.77-45.21-32.57-15.9-47.7,1.09-.56,21.01.59-3.18-9.54-44.23-11.07,21-50.6,25.44-23.85,1.48,8.91-6.5,11.6-6.36,12.72,5.59,46.62,21.89-5.78,15.9,31.8,23.69,7.87,16.64,46.4,28.62,4.77Z"/>
        <path class="cls-24" d="M1167.16,1459.94c6.25,12.1,1.55,23.76,3.18,27.03,2.19,4.39,14.34-6.2,19.08,0,3.07,4.02-4.1,14.26-3.18,15.9,14.88,26.52,34.31,4.93,36.57,4.77,4.27-.3,1.28,15.53,17.49,3.18.12,2.62,19.51,26.38-6.36,47.7-21.42-28.85-23.73-18.49-25.44-19.08-5.57-1.91-7.57,6.08-12.72,1.59-5.15-4.5,1.54-37.38-25.44-11.13-2.29-2.24-26.78,11.62-19.08-47.7,8.54-2.72-1.62-11.68-3.18-22.26,3.15-5.69,5.15-6.7-3.18-6.36-1.81-7.83,5.78-6.15,9.54-9.54-.11,20.96,12.16,14.82,12.72,15.9Z"/>
        <path class="cls-24" d="M1195.78,1393.15c-1.15,3.4,1.94,9.57-1.59,12.72-3.54-10.98-3.82-2.96-7.95-3.18-17.19-.92-34.2-18.77-34.98,19.08-35.46,25.48-5.52-6.86-28.62-12.72,19.34-19.57,5.96-21.88,6.36-27.03.12-1.51,6.23-4.18,6.36-7.95,3.64-1.48,6.15-4.29,9.54-6.36,6.93-4.24,11.14-6.7,19.08-9.54,12.58-4.51,16.14-2.09,25.44-3.18,2.99-.35,4.25,4.77,7.95,3.18,3.22-3.01,5.91-5.45,7.95-9.54.29-.59,3.11-12.07,3.18-12.72,24.12,29.17-2.34,26.69-12.72,57.24Z"/>
        <path class="cls-22" d="M1148.08,1844.75c7.42,11.89,22.93,66.21,34.98,89.05-.4,1.11-2.89-5.51-6.36,9.54q-6.36-5.57-12.72-11.13,4.77,11.93,9.54,23.85c-.27.24-4.35-.92-3.18,6.36-27.59-15.36-7.46-2.62-12.72-28.62-1.22-6.01-6.95-18.09-9.54-25.44-4.65-13.2-15.01-36.15-22.26-47.7-2.16-3.44-3.95-6.21-6.36-9.54-4.08-5.64-9.14-9.98-12.72-15.9,19.65-11.18,31.02-7.01,41.34,9.54Z"/>
        <path class="cls-24" d="M1135.35,1533.08c2.93,1.49,10.38,14.9,12.72,19.08,3.62,6.46,3.02,11.54,6.36,19.08h-31.8c-25.75-50.21-9.44-16.35-30.21-15.9-13.97.3-1.2-12.54-20.67-9.54-1.28-9.27-3.11-12.02-3.18-12.72-.83-8.89,3.05-22.84-3.18-31.8,11.15,6.84,28.75,3.28,33.39,6.36,12.94,38.53,20.01,17,36.57,25.44Z"/>
        <path class="cls-24" d="M1106.73,1479.02c5.53,9.02,15.61,17.01,22.26,25.44.84,1.07,5.74,21.64,9.54,25.44q-1.59,1.59-3.18,3.18c-16.56-8.45-23.64,13.09-36.57-25.44-4.64-3.08-22.24.48-33.39-6.36-22.59-13.85-4.89-19.4-3.18-34.98h3.18c7,20.64,5.48-3.74,17.49-3.18,5.91.28,18.47,26.21,23.85,15.9Z"/>
        <path class="cls-18" d="M667.86,206.91c2.52,8.91,7.03,17.08,9.54,25.44,22.47,74.82,26.05,123.44,38.16,68.38v49.29c-2.46-.79-5.89,4.95-7.95,6.36-4.28-1-26.22-64.22-30.21-76.33-4.75-14.41-7.91-29.98-12.72-44.52-3.15-9.52-6.6-19.03-9.54-28.62-1.67-5.42,2.39-14.54-3.18-28.62-1.44-3.64-1.33-3.32-3.18-6.36,1.48-7.15-2.12-9.25-3.18-12.72,10.42-6.87-6.24-27.94,3.18-31.8,5.63,26.75,11.62,53.18,19.08,79.51Z"/>
        <path class="cls-31" d="M1151.26,1482.2c-7.69,59.32,16.79,45.46,19.08,47.7,4.75,4.66,18.73,19.89,11.13,25.44-5.5-10.98-41.17-23.68-42.93-25.44-3.8-3.8-8.7-24.38-9.54-25.44,12.61-17.91-7.6-28.43-12.72-42.93-1.9-5.37,6.49-7.46,6.36-7.95,20.9-5.4,17.26,16.56,28.62,28.62Z"/>
        <path class="cls-24" d="M1237.12,1456.76c-.03,2.11.16,4.26,0,6.36-2.89,37.09-24.07,30.51-39.75,34.98-6.25-2.25-12.27-46.14,1.59-50.88,9.44-1.72,10.5-6.45,11.13-6.36,11.77,1.74,1.52,22.96,27.03,15.9Z"/>
        <path class="cls-27" d="M492.94,63.8c.9.47,7.34,8.97,15.9,12.72,15.01,6.57,31.73,10.22,47.7,12.72-3.09,4.94-8.35,2.36-15.9,6.36-.4.21-6.18,4.89-6.36,6.36-55.61-20.36-69.28-30.69-73.15-31.8-14.77-37.53,13.83-15.68,31.8-6.36Z"/>
        <path class="cls-47" d="M1195.78,1749.34c-16.8,11.52-7.95,49.99-17.49,12.72-27.25,46.5,7.48-90.17-25.44-34.98-3.62-7.24-4.21-14.32-4.77-22.26-.17-2.41,3.28-2.73,3.18-9.54-.02-1.06.02-2.12,0-3.18,25.03,14.21,36.97,30.27,44.52,57.24Z"/>
        <path class="cls-24" d="M1198.96,1297.74c2.27,10.57,12.11,12.98,9.54,38.16-.07.65-2.89,12.13-3.18,12.72-7.65-6.1-11.75-1.37-15.9,6.36-9.3,1.09-12.86-1.33-25.44,3.18-25.82-53.84,38.35,14.99,19.08-62.02,10.18,1.13,8.1,13.75,15.9,1.59Z"/>
        <path class="cls-24" d="M702.84,184.65c2.49,14.37-6.05,47.69-25.44,47.7-2.51-8.36-7.02-16.53-9.54-25.44q9.54-20.67,19.08-41.34c4.36,5.68,14.09,8.62,15.9,19.08Z"/>
        <path class="cls-22" d="M1227.58,1393.15c-26.89-29.32-25.4,30.69-34.98,54.06-7.71,2.43-18.36,8.26-25.44,12.72-.56-1.08-12.83,5.05-12.72-15.9,3.6-3.25,6.25-6.4,9.54-9.54,1.59-1.52,32.84-8.08,22.26-31.8,4.13.22,4.41-7.8,7.95,3.18,3.53-3.15.44-9.32,1.59-12.72,14.18-9.85,22.31-24.57,31.8,0Z"/>
        <path class="cls-25" d="M1154.44,1571.24c18.74,42.28,21.93,76.35,34.98,114.49-3.35-.82-9.25,2.77-9.54,3.18-11.74-36.4-11.5-107.74-55.65-108.13-8.35-6.18-.41-7.23-1.59-9.54h31.8Z"/>
        <path class="cls-32" d="M1154.44,1240.5c-14.62-.67.61-6.44,0-17.49-.04-.78-6.42-11.98-6.36-14.31.12-4.64,3.48-50.94,14.31-44.52-7.3,26.75,29.84,49.71,3.18,73.15-1.84,1.62-10.7,2.8-11.13,3.18Z"/>
        <path class="cls-36" d="M686.94,165.57q-9.54,20.67-19.08,41.34c-7.46-26.33-13.45-52.76-19.08-79.51,2.66-1.09,34.2,32.99,38.16,38.16Z"/>
        <path class="cls-24" d="M966.8,922.47c.92.39,2.37-.42,3.18,0,13.03,6.79,23.55,26.8,31.8,34.98h-3.18c-8.21,17.36-18.55,2.49-28.62-6.36-2.5-2.2,17.85-6.65-22.26-15.9,1.5-6.66,12.54-12.44,19.08-12.72Z"/>
        <path class="cls-24" d="M575.63,114.68c-40.39,2.9-27.46-7.64-41.34-12.72.18-1.47,5.96-6.15,6.36-6.36,15.63-2.61,27.19,6.62,34.98,19.08Z"/>
        <path class="cls-22" d="M969.98,912.93v9.54c-.81-.42-2.26.39-3.18,0-13.3-5.69-14.72,3.95-25.44-6.36.83-.72-1.67-8.01,1.59-9.54,9.7-4.56,25.38,6.4,27.03,6.36Z"/>
        <path class="cls-46" d="M1065.39,881.13c-.78.84-5.91-4.7-19.08,12.72,1.92-32.31,40.02-35.08,19.08-12.72Z"/>
        <path class="cls-3" d="M1157.62,1682.55l-6.36,3.18c-.58-18.23,2.07-32.87-4.77-50.88,15.33,5.67,2.41,31.26,11.13,47.7Z"/>
        <path class="cls-35" d="M1176.7,1943.34c-2.33,10.1,7.87,2.95-3.18,12.72q-4.77-11.93-9.54-23.85,6.36,5.57,12.72,11.13Z"/>
        <path class="cls-8" d="M989.06,1870.19c26.17,13.33,47.65,60.46,52.47,60.43,10.13-.07,3.02-38.34,20.67-25.44-.67,1.79-1.07,10.1-3.18,15.9-4.85,13.35-19.94,18.57-3.18,31.8-1.21,4.8-4.68,7.01-9.54,6.36-1.04-.14-2.14.14-3.18,0-.79-.11-8.17-8.12-12.72-9.54-2.79-.87-3.61-2.49-6.36-3.18,24.44-32.14-59.23-63.79-63.61-66.79-74.47-51.07-46.74-99.96-68.38-181.28,24.91,51.46,7.96,130.98,63.61,162.19,21.55,12.09,31.85,8.75,33.39,9.54Z"/>
        <path class="cls-24" d="M1068.57,1952.88c-1.96-.79-8.4.28-12.72,0-16.76-13.23-1.67-18.46,3.18-31.8.79,12.48,35.15-14.12,9.54,31.8Z"/>
        <path class="cls-10" d="M1046.31,1987.86c-8.78-6.69-5.32-17.66-3.18-28.62,1.04.14,2.14-.14,3.18,0l25.44,33.39c-1.57,3.6-24.41-3.99-25.44-4.77Z"/>
        <path class="cls-24" d="M454.78,70.16c8.63,21.62.35,18.31-31.8,15.9-5.97-8.38-12.94-16.91-19.08-25.44-4.51-34.74,40.86-15.56,50.88,9.54Z"/>
        <path class="cls-24" d="M537.46,219.63c.35.06,4.87,2.44,6.36,3.18,25.09,12.55,25.23,51.38-9.54,44.52.28-3.68-.18-7.44,0-11.13,22.68-20.64-9.45,1.68-11.13,1.59-5.62-.32-10.46-15.2-11.13-15.9,12.11-13.02-5.07-27.72,25.44-22.26Z"/>
        <path class="cls-24" d="M569.27,687.13q-3.18,7.95-6.36,15.9c-1.54-.1-28.86,5.62-30.21,6.36-8.28,4.55-.62,8-1.59,9.54-1.25,1.99-26.35,15.15,22.26,19.08,20.19,24.89,2.67,18.47,3.18,23.85,2,21.04,9.77-25.35,42.93-4.77,16.49,10.24,18.78,33.48,23.85,50.88-5.22.67-14.28,2.37-12.72,9.54-20.42-.97-23.31,24.61-77.92-34.98-15.93,6.92-48.66-17.32-42.93-38.16,2.04-1.34,16.54-12.75,15.9-14.31-18.19,5.23-21.22,1.19-22.26,1.59.34-3.88-2.76-2.9-3.18-3.18-15.88-10.69-19.63,5.19-22.26,6.36-18.93,8.4-4.71,13.36-38.16,3.18v-3.18c4.82-5.08-10.89-36.3,1.59-38.16,10.85-1.62,34.05,19.46,41.34,15.9,3.46-1.69-9.7-12.41-7.95-17.49,3.58-10.38,13.7-1.2,14.31-1.59,4.78-3.03.61-33.95,34.98,15.9,37.55-5.49,9.77-16.19,4.77-38.16q12.72-9.54,25.44-19.08c9.06,6.52,23.03,6.78,34.98,34.98Z"/>
        <path class="cls-24" d="M451.6,534.48c-27.43,50.44,19.89,37.81,6.36,11.13,23.03-5.07,30.01-28.69,47.7,4.77,19.06,36.06-7.16,22.66-9.54,30.21-7.35,23.32,13.22,16.44,14.31,17.49,20.45,19.74.72,19.1-11.13,28.62-.89.72-12.13.88-19.08,12.72-13.7-14.88-28.64-.88-41.34,6.36-43.92-28.95-34.09,11.08-36.57,12.72-1.63,1.07-10.93-10.17-36.57,0-2.76-11.97-13.43-21.19-15.9-33.39,19.32-11.38,30.45-6.73,34.98-7.95,1.63-.44,26.3-3.85,28.62-11.13,2.82-8.83-28.07-21.87-34.98-27.03,6.53,5.7,6.81-23.99,6.36-25.44l41.34-19.08c1.65,1.17,4.49-3.34,4.77-3.18,1.81,1.07,2.17,8.23,6.36,9.54,12.67,3.96,10.28-23.03,14.31-6.36Z"/>
        <path class="cls-24" d="M359.37,766.64c-1.63-.25-10.61,1.2-27.03-3.18-2.68-3.72-1.73-10.59-1.59-15.9.03-1.02-.2-2.22,0-3.18.39-1.86,5.27-11.49,6.36-12.72,1.02-1.15,28.39,2.67,9.54-17.49,26.94-16.3,20.03,14.47,31.8,25.44-12.25,7.61-22.48,11.82-19.08,27.03Z"/>
        <path class="cls-8" d="M489.76,744.38c-16.03,10.58-38.99,22.27-57.24,28.62-38,13.22-27.42,2.27-38.16,3.18v-6.36c47.68,2.19,84.43-36.4,89.05-38.16,1.04-.4,4.07,3.64,22.26-1.59.64,1.56-13.87,12.97-15.9,14.31Z"/>
        <path class="cls-24" d="M378.45,579c6.91,5.16,37.8,18.21,34.98,27.03-2.32,7.28-27,10.69-28.62,11.13q-11.13-19.08-22.26-38.16c4.67,2.04,7.78-6.93,15.9,0Z"/>
        <path class="cls-21" d="M359.37,766.64c1.74.26,7.31-4.21,34.98,3.18v6.36c-11.55.98-9.19-4.96-41.34,6.36-30.4,10.7-19.24,15.81-20.67,15.9-8.95.55-7.37-9.31-7.95-9.54,51.2-19.36-21.75-22.68-19.08-33.39,13.22-.2,16.33,6.88,25.44-7.95-.14,5.31-1.09,12.18,1.59,15.9,16.42,4.38,25.41,2.93,27.03,3.18Z"/>
        <path class="cls-33" d="M362.55,668.05c.42,1.38,11.13,7.58,3.18,25.44-2.05-.22-4.69.45-6.36,0-18.56-5.02-16.69.36-17.49,0-5.76-2.57-16.63-30.86,20.67-25.44Z"/>
        <path class="cls-7" d="M365.73,693.49q27.03,20.67,54.06,41.34v3.18c-24.11-7.33-44.6-25.37-60.43-44.52,1.67.45,4.31-.22,6.36,0Z"/>
        <path class="cls-41" d="M337.11,731.66c-1.09,1.23-5.97,10.86-6.36,12.72q-6.36-15.11-12.72-30.21,9.54,8.75,19.08,17.49Z"/>
        <path class="cls-20" d="M480.22,728.47l-22.26,6.36c2.63-1.17,6.38-17.05,22.26-6.36Z"/>
        <path class="cls-24" d="M451.6,534.48c-4.04-16.67-1.64,10.32-14.31,6.36-4.19-1.31-4.55-8.47-6.36-9.54-.28-.16-3.12,4.35-4.77,3.18-3.36-2.39-3.88-16.34-47.7-33.39,12.64-9.27-16.72-25.67,23.85-17.49.2-50.2,5.58,22.27,58.83,42.93,1.86,5.49-8.48,6-9.54,7.95Z"/>
        <path class="cls-31" d="M588.35,553.56q-7.95,7.95-15.9,15.9c-18.75-4-65.67-7.43-31.8-34.98,11.87-4.76,14.19-.67,19.08-3.18,9.27-4.75,4.79-5.22,0-15.9.87-.24,2.23-.02,3.18,0,25.71.61,24.15,36.03,25.44,38.16Z"/>
        <path class="cls-24" d="M585.17,362.74c11.91,18.96,5.88,14.46,9.54,25.44-12.32,5.05-41.16,11.43-47.7-4.77-.89-2.21,15.91.29-9.54-25.44,25.94-14.48,18.07-42.38,47.7,4.77Z"/>
        <path class="cls-24" d="M639.23,429.53c-30.52-19.13-17.22-7.68-19.08-3.18-10.06,24.24,6.37,35.76-11.13,41.34-.82.26-11.22-5.73-14.31-9.54-27.48-33.81,13.44-3.93,12.72-50.88-.06-4.2.38-8.56,0-12.72,22.16,11.45,44.59,19.01,31.8,34.98Z"/>
        <path class="cls-42" d="M559.73,531.3c-3.33-7.38-9.89-13.19,0-15.9,4.79,10.68,9.27,11.15,0,15.9Z"/>
        <path class="cls-34" d="M263.96,496.32q-7.95,14.31-15.9,28.62c-.86-.01-15.14-3.96-15.9-6.36.39-13.37,4.72-29.48,15.9-38.16,5.48,5.74,10.82,9.07,15.9,15.9Z"/>
        <path class="cls-6" d="M186.05,407.27c1.86-.63,4.06-.24,4.77,1.59-18.14,34.91-12.75,1.11-4.77-1.59Z"/>
        <path class="cls-37" d="M62.02,429.53c16.55-5.28,2.8,20.28-3.18,15.9-3.77-2.76-1.82-14.3,3.18-15.9Z"/>
        <path class="cls-24" d="M677.4,280.06c4,12.11,25.94,75.33,30.21,76.33,2.06-1.41,5.49-7.15,7.95-6.36,20.41,6.57,29.7,39.04,12.72,50.88-1.05.73-22.73,1.57-22.26,12.72-4.47-17.95-22.12-31.8-6.36-52.47-28.29-8.2-23.56-21.55-30.21-27.03-5.7-.99-4.54,3.36-4.77,3.18-7.37-5.7-9.07-6.03-9.54-6.36-67.91-47.48-21.78,3.34-28.62,14.31-5.28,8.45-25.3-20.85-28.62,7.95-3.79-1.64-6.83-2.87-9.54-6.36,4.66-8.04-3.83-31.59-3.18-33.39,4.5-12.51,47.57,9.21,19.08-28.62,16.79-1.22,9.1-4.98,17.49-14.31,54.47,54.43,22.9,4.1,55.65,9.54Z"/>
        <path class="cls-24" d="M492.94,219.63c-3.29-4.18-10.39-7.67-15.9-15.9,6.1-3.88-3.51-22.69-3.18-23.85.45-1.6,29.02-12.98,31.8-9.54,1.89,19.26,6.14,38.55-12.72,49.29Z"/>
        <path class="cls-24" d="M868.21,722.11c-.45,4.19-5.84,5.33-6.36,9.54-1.3,10.63-17.74,26.27-3.18,50.88-2.99.15-3.56.09-6.36,0-2.35-10.13-20.41-25.97-28.62-31.8-7.92-5.62-1.47-14.52-41.34-15.9-5.06-.17-10.57,3.15-14.31,6.36-13.88,2.02-23.72-15.22-36.57-6.36-20.89,3.09,8.64-17.48,15.9-22.26,17.83-11.74-8.03.95-3.18-11.13,48.37,9.22-28.51-54.8,22.26-65.2,4.55-.93,10.87.62,15.9,0,.93,5.5,8.87,5.47,12.72,14.31-27.7,48.48,38.36,79.04,19.08,12.72,7.25-14.89,18.91,30.97,14.31-14.31,37.73,28.76,17.21-35.33,39.75-23.85,3.54,1.8,11.24,31.72,9.54,34.98-30.5,4.99-7.51,43.23-9.54,62.02Z"/>
        <path class="cls-27" d="M728.28,400.91q13.52,42.93,27.03,85.87c27.71-98.27,17.83-40.33,4.77,20.67,16.04,41.25,15.03,85.94,22.26,128.8-5.03.62-11.35-.93-15.9,0-9.11-33.83-22.46-135.27-49.29-152.65-7.31-4.74-21.63-4.93-30.21-9.54-24.79-13.31-50.59-21.85-66.79-47.7,1.87-4.49-11.44-15.95,19.08,3.18,63.39,39.74,80,51.94,28.62-25.44h3.18c15.41,17.18,50.62,72.4,34.98,9.54-.47-11.15,21.21-11.99,22.26-12.72Z"/>
        <path class="cls-31" d="M963.62,776.18c.16.62-1.04,1.33,0,12.72.82,9.01,4.97,17.93,3.18,20.67-16.72-4.12-37.1,31.31-31.8,3.18.62-3.29,25.29-20.58,6.36-36.57-9.84-8.31-24.84-19.38-34.98-25.44,3.31-1.13,3.92-3.12,15.9-6.36,2.97-.8,3.3,8.34,12.72-6.36,14.85,16.55,11.19,22.41,25.44,20.67-6.27,18.6,2.92,16.47,3.18,17.49Z"/>
        <path class="cls-31" d="M906.38,750.74c10.14,6.06,25.15,17.13,34.98,25.44,4.4,33.17-22.05,47.68-19.08,27.03.43-3.02,36.73-49.38-15.9-11.13-1.27-4.36-10.51-17.39-15.9-38.16,18.58-7.66,15.13-2.92,15.9-3.18Z"/>
        <path class="cls-13" d="M890.47,753.92c5.39,20.77,14.63,33.81,15.9,38.16.4,1.38-4.22,6.17,3.18,28.62-9.17,6.43-7.18-2.39-12.72-9.54-9.26-32.09-13.67-82.7-34.98-79.51.52-4.21,5.91-5.35,6.36-9.54,39.27,4.44,14.32,10.45,15.9,20.67.18,1.15,6.2,10.51,6.36,11.13Z"/>
        <path class="cls-43" d="M985.88,795.26c-7.45-1.7-15.54-.01-22.26-6.36-1.04-11.39.16-12.1,0-12.72,24.91-18.23,15.7,2.15,22.26,19.08Z"/>
        <path class="cls-16" d="M898.42,696.67c1.16-.15,20.11,10.1,20.67,11.13.64,1.19-19.32,17.52-20.67,17.49-10.69-.2-8.5-27.56,0-28.62Z"/>
        <path class="cls-4" d="M935,738.02c-9.43,14.7-9.75,5.56-12.72,6.36,9.69-32.09,11.77-7.42,12.72-6.36Z"/>
        <path class="cls-42" d="M892.06,674.41c3.9-1.04,5.63,2.7,7.95,4.77-14.54,29.41-16.28-2.54-7.95-4.77Z"/>
        <path class="cls-24" d="M648.77,171.93c1.85,3.04,1.74,2.72,3.18,6.36-1.91,41.19-54.97,6.11-25.44-7.95-13.99-11.14,6.83-23.83,22.26,1.59Z"/>
        <path class="cls-24" d="M655.13,206.91c2.94,9.59,6.39,19.11,9.54,28.62-26.78,10.81-31.27-24.26-9.54-28.62Z"/>
        <path class="cls-22" d="M1027.23,1240.5c1.09,10.96,7.41,21.51,9.54,31.8.39,1.91-.45,4.53,0,6.36,1.49,6.06,4.49,13.04,6.36,19.08,3.19,10.3-7.4,5.44,6.36,25.44,9.57,13.91,37.64,32.18,50.88,19.08-3.85,48.66,1.54,50.15,3.18,69.97.24,2.87-13.07,28.57,1.59,31.8,1.43.32,10.57-17.41,17.49,9.54.13.49-8.26,2.58-6.36,7.95,5.12,14.5,25.33,25.02,12.72,42.93-6.65-8.44-16.73-16.42-22.26-25.44-12.62-20.59-20.97-41.51-30.21-63.61q-5.57,25.44-11.13,50.88h-3.18c1.99-18.11,6.58-56.34,6.36-69.97-.03-2-5.56-14.92-6.36-19.08-.32-1.65,5-5.15,3.18-14.31-18.9-22.9-37.3-58.44-66.79-65.2,2.15-7.94,9.08-6.02,9.54-6.36,11.19-8.25,3.02-11.51,11.13-12.72,13.17,58.57,15.61,8.36,1.59-22.26q3.18-9.54,6.36-19.08c.07,1.05-.1,2.13,0,3.18Z"/>
        <path class="cls-17" d="M1078.11,1091.03c-15.36,44.28-53.57,106.86-50.88,146.29q-3.18,9.54-6.36,19.08c-4.91-10.71-9.53-15.58-19.08-22.26-9.74-6.81-7.04-6.28-19.08-9.54,3.01-13.94-5-12.07-12.72-19.08-23.74-21.56-29.37-16.71-38.16-19.08l9.54-12.72c5.89,7.37,36.24,23.65,47.7,23.85q-9.54-29.42-19.08-58.83c10.49-8.08,8.6-.67,15.9-3.18,2.48,8.33,16.24,92.62,30.21,85.87,2.37-1.14,6.84-15.6,1.59-28.62,11.68-5.25,11.86-17.5,12.72-19.08,5.27-9.64,11.42-18.41,15.9-28.62,1.88-4.29,4.73-8.36,6.36-12.72,18.7-49.94,7.47-21.83-6.36-50.88,23.83,8.32,17.52,23.05,31.8,9.54Z"/>
        <path class="cls-24" d="M960.44,1084.66c4.6,1.14,3.03,4.68,9.54,0,6.7,20.16-5.43,17.25,30.21,28.62-5.38-13.23,15.43-36.85,17.49-14.31,1.03,11.23-13.85,13.05-6.36,25.44-10.44,13.96-11.94,6.5-25.44,11.13-7.3,2.51-5.41-4.9-15.9,3.18-19.56,15.07-4.82,38.27-31.8,25.44-3.01-1.43-9.07-3.18-9.54-6.36,66.52-53.81-15.74-27.85,6.36-77.92,9.12-7.39,13.85,1.9,25.44,4.77Z"/>
        <path class="cls-27" d="M925.46,928.83c1.26,1.86,2.56,24.32,17.49,41.34,15.9-16.57,4.36-33.14,4.77-34.98,40.12,9.26,19.76,13.71,22.26,15.9-27.4,13.28-12.02,34.48-12.72,47.7-.19,3.58-12.01,6.76-3.18,28.62,7.57,18.32,9.71,38.6,15.9,57.24-6.51,4.68-4.94,1.14-9.54,0-16.45-31.37-24.13-64.34-31.8-98.59-4.72-21.07-7.81-42.55-12.72-63.61.32.47,9.22,5.89,9.54,6.36Z"/>
        <path class="cls-24" d="M1078.11,1091.03c-14.29,13.51-7.97-1.22-31.8-9.54-34-71.42,1.87-36.25,4.77-38.16,1.77-1.17.37-22.48,15.9-15.9,2.26.96,23.9,40.48,23.85,42.93-.09,5.06-11.53,17.24-12.72,20.67Z"/>
        <path class="cls-24" d="M1074.93,1256.4h-3.18c-15.18-8.32-26.57,5.84-34.98,15.9-2.13-10.29-8.45-20.84-9.54-31.8,33.89-48.71,23.77-10.07,25.44-7.95,7.96,10.11,13.7,6.3,19.08,12.72.37.44-.85,6.89,3.18,11.13Z"/>
        <path class="cls-24" d="M1030.41,1173.71c-.86,1.58-1.04,13.83-12.72,19.08-.57-1.42-17.61-15.46-19.08-23.85-2.14-12.17,22.97-54.76,31.8,4.77Z"/>
        <path class="cls-31" d="M954.08,1027.42c-8.83-21.86,2.99-25.04,3.18-28.62,7.09.96,34.09-9.35,38.16-12.72,16.22.86-8.25,11.37-12.72,17.49-4.49,6.15,14.93,18.83-28.62,23.85Z"/>
        <path class="cls-31" d="M1092.42,1078.3c6.63-2,23.29,6.83,23.85,7.95,13.86,27.69-7.96,21.15-17.49,27.03q-3.98-2.39-7.95-4.77c6.37-17.97-8.81-27.07,1.59-30.21Z"/>
        <path class="cls-13" d="M1100.37,1253.22c-2.53,41.5-18.55,4.81-34.98,28.62.56-1.11-.54-4.57,0-6.36,1.49-4.94,8.93-6.8,6.36-19.08h3.18c20.22,21.29,12.46,4.32,19.08-12.72,3.3,4.19,7.1-2.6,6.36,9.54Z"/>
        <path class="cls-38" d="M1000.19,1052.86c25.33,14.18,24.35,53.52,7.95,30.21-1.03-1.47,2.01-5.25-7.95-30.21Z"/>
        <path class="cls-24" d="M1052.67,1132.37c-1.63,4.36-4.48,8.43-6.36,12.72q-3.18-18.29-6.36-36.57,6.36,11.93,12.72,23.85Z"/>
        <path class="cls-21" d="M1078.11,1195.97q-1.59-4.77-3.18-9.54c24.19,10.13,4.27,8.98,3.18,9.54Z"/>
        <path class="cls-31" d="M896.83,811.16c5.54,7.15,3.55,15.98,12.72,9.54.82,2.48-.85,7.22,0,9.54,11.33,31,34.69,22.68,25.44,66.79q-10.34-4.77-20.67-9.54c.94-6.59-1.1-10.38-4.77-15.9-7.21-10.87-5.21-24.44-19.08-31.8,23.77-30.13-46.15-15.63-12.72,0-15.9,30.67-25.45,10.88-30.21,12.72-1.81.7-2.1,8.37-7.95,12.72-9.51-.83-20.33-16.86-28.62-6.36-14.21-6.6-51.07-27.02-60.43-28.62-6.63-19.28-3.27-16.13,15.9-15.9,11.38,7.62,30.86,8.54,30.21,25.44,28.17,1.47,13.69-25.14,14.31-27.03,3.12-9.46,14.53-8.51,22.26-30.21,1.64.76,11.62-.25,19.08,0,2.8.09,3.37.15,6.36,0,3.41-.17,5.45-4.46,7.95-6.36,8.25,14.23,19.57,21.25,30.21,34.98Z"/>
        <path class="cls-27" d="M741,830.24c3-.11,6.75-.48,9.54,0,9.35,1.6,46.21,22.03,60.43,28.62,12.86,5.97,11.33,19.23,28.62,6.36,5.85-4.35,6.14-12.02,7.95-12.72,4.76-1.84,14.31,17.95,30.21-12.72,2.5,1.17,10.52-1.17,12.72,0,13.88,7.36,11.87,20.94,19.08,31.8-27.21-9.57-33.53-6.94-19.08,22.26-26.11-10.26-52.87-18.54-81.1-15.9-10.63-9.53-24.12-21.97-36.57-28.62-27.11-14.48-28.84-9.36-47.7-15.9,5.95-1.1,9.42-2.93,15.9-3.18Z"/>
        <path class="cls-22" d="M969.98,842.96c5.15-1.03,15.48-11.91,19.08-3.18-2.63,9.35-15.6,34.49-22.26,41.34-12.67,13.03-9.99,17.86-31.8,15.9,9.25-44.11-14.11-35.79-25.44-66.79,41.1,34.19,35.17,17.78,60.43,12.72Z"/>
        <path class="cls-17" d="M1039.95,833.42c-.24-.52-1.89,5.24-6.36-9.54,19.94-9.06,28.14,1.07,6.36,9.54Z"/>
        <path class="cls-24" d="M1135.35,1618.95l-3.18,3.18c-4.57-3.05-18.06-16.09-20.67-15.9-2.05.15-8.54,13.49-19.08,9.54,19.17,53.21,39.63,39.1,46.11,49.29,7.17,11.26-3.31,30.2,12.72,30.21.1,6.81-3.35,7.13-3.18,9.54-4.76-2.18-7.77-6.63-12.72,0-.62.83-.26,15.68-7.95,19.08-23.93,10.59-33.58-25.02-14.31-33.39q-6.36-10.34-12.72-20.67c6.75-10.19-2-4.34-6.36-6.36-18.48-8.56-11.7,1.09-28.62,0,1.26-9.01-7.19-20.77-6.36-23.85,1.33-4.92,14.8-3.83,12.72-15.9-.35-2.05-24.03-24.02-28.62-30.21,6.34-13.59,14.24,26.02,22.26-9.54,2.36-10.45,5.88-24.57,3.18-34.98h3.18c3.62,25.54.31,55.33,17.49,25.44,13.51,1.89,12.07,13.96,27.03,14.31-11.39,12.04,6.58,17.28,19.08,30.21Z"/>
        <path class="cls-41" d="M1094.01,1663.47q3.18,3.18,6.36,6.36,6.36,10.34,12.72,20.67c-19.27,8.37-9.62,43.98,14.31,33.39,7.7-3.41,7.33-18.25,7.95-19.08,14.08,10.02,5.96,28.19-6.36,38.16-.98.8-3.23-4.65-11.13,0-4.89,2.88-7.36,9.34-7.95,9.54-1.91.64-9.04,3.18-9.54,3.18-4.75.04-6.15-11.12-15.9-3.18-4.98-10.6-20.09-8.86-22.26-14.31,26.63-44.23-.93-9.53-3.18-42.93,15.37,2.65,24.84,9.58,28.62,0,7.92-20.08.34-49-19.08-15.9-.75-.73-8.44,3.4-6.36-9.54.24-.26,3.13-6.01,3.18-6.36,16.93,1.09,10.14-8.56,28.62,0Z"/>
        <path class="cls-25" d="M1036.77,1711.18c-.32,2.63.73,3.11,3.18,3.18-4.99,33.46,9.51,32.92,12.72,38.16,12.71,20.73,23.92,24.73,31.8,34.98,2.42,3.14,15.38,21,15.9,22.26.31.75-2.09,12.99-3.18,15.9-1.22-1.21-18.49-11.37-28.62-19.08-.63-.48,3.08-3.89-9.54-12.72-15.23-34.39-32.53-31.54-44.52-76.33,13.17-13.77,10.04,7.32,22.26-6.36Z"/>
        <path class="cls-47" d="M1097.19,1825.67c2.11,2.1,4.64,9.08,9.54,9.54,3.58,5.92,8.64,10.26,12.72,15.9-28.64,22-26.98.77-28.62,0-9.24-4.34-5.59.22-12.72,3.18,5.86-28.17-17.48-4.57-9.54-47.7,10.13,7.72,27.4,17.87,28.62,19.08Z"/>
        <path class="cls-28" d="M1100.37,1755.7c8.06,16.25,27.9,48.75,0,54.06-.52-1.26-13.48-19.12-15.9-22.26-1.25-5.53.74-33.4,0-34.98,9.75-7.94,11.15,3.22,15.9,3.18Z"/>
        <path class="cls-34" d="M1128.99,1742.98c16.72,22.89,6.62,44.34-4.77,15.9-3.72,19.55-15.64,6.62-14.31-6.36.59-.2,3.06-6.67,7.95-9.54,7.9-4.65,10.15.8,11.13,0Z"/>
        <path class="cls-17" d="M1156.03,1797.04c2.16,1.18,2.27,6.1,1.59,7.95-6.87,18.79-41.89,24.83-1.59-7.95Z"/>
        <path class="cls-24" d="M1059.03,1793.86c12.62,8.83,8.91,12.24,9.54,12.72-7.94,43.14,15.4,19.53,9.54,47.7-.14.7-2.56.24-6.36,12.72-.07.22-1.94-1.3-3.18,3.18-18.43,3.64-17.4-1.1-34.98,3.18-4.22,1.03-5.35,5.58-9.54,6.36-12.6,9.3-12.25-6.89-15.9-9.54q-3.18-25.44-6.36-50.88c48.31,63.98-18.02-34.12,19.08-11.13,1.18-40.56,11.67-32.85,38.16-14.31Z"/>
        <path class="cls-31" d="M1008.14,1870.19c3.65,2.65,3.31,18.84,15.9,9.54,1.61,32.54,6.95-2.65,27.03,9.54,5.78-10.01-11.36-9.88-17.49-15.9,17.58-4.28,16.55.46,34.98-3.18-.52,1.88-4.1,24.56,0,25.44-1.19,4.07-4.85,5.49-6.36,9.54-17.65-12.9-10.54,25.37-20.67,25.44-4.82.04-26.31-47.1-52.47-60.43-.49-1.68-2.93-6.11-3.18-6.36,2.78-17.49,6.8-4.85,22.26,6.36Z"/>
        <path class="cls-24" d="M1148.08,1908.35c2.59,7.35,8.32,19.43,9.54,25.44-43.27,55.68-67.69-63-9.54-25.44Z"/>
        <path class="cls-24" d="M1119.45,1851.11c2.41,3.33,4.2,6.1,6.36,9.54-14.97,40.74-71.96,26.41-34.98-9.54,1.65.77-.02,22,28.62,0Z"/>
        <path class="cls-23" d="M1068.57,1895.63c-4.1-.88-.52-23.56,0-25.44,1.24-4.48,3.11-2.97,3.18-3.18,1.17,10.71-.14,18.26-3.18,28.62Z"/>
        <path class="cls-23" d="M1049.49,1510.82c.61,1.33,15.18,9,19.08,22.26.07.71,1.9,3.45,3.18,12.72.14,1.04-.15,2.14,0,3.18h-3.18c-4.24-16.35-24.52-25.15-28.62-28.62-24.91-21.07,2.78.7,9.54-9.54Z"/>
        <path class="cls-3" d="M1132.17,1622.13l3.18-3.18c15.11,15.64,13.19,14.1-3.18,3.18Z"/>
        <path class="cls-47" d="M1106.73,1256.4c3.78,2.57,7.02,7.56,12.72,6.36,7.87,11.47,5.76,12.07,6.36,12.72-17.08,25.66-2.81,23.98-3.18,25.44-1.06,4.22-4.82,11.35-9.54,12.72q-5.57-15.9-11.13-31.8c-5.62,14.85,2.05,28.03,1.59,31.8-.09.71-8.26.82-6.36,12.72-15.18-18.82-13.61-8.69-14.31-9.54-13-15.76-.31-10.84-1.59-14.31-7.22-19.55-6.15,14.49-31.8,20.67-13.76-20-3.17-15.14-6.36-25.44,25.78,2.83,21.09-13.59,22.26-15.9,16.44-23.82,32.45,12.88,34.98-28.62,2.09.52,4.67,2.03,6.36,3.18Z"/>
        <path class="cls-27" d="M1148.08,1281.84c-.36,4.48,12.87,16.61-3.18,85.87-3.39,2.07-5.9,4.88-9.54,6.36.34-10.02-2.56-91.17-12.72-73.15.37-1.46-13.9.22,3.18-25.44,6.14,6.6,13.8,7.28,22.26,6.36Z"/>
        <path class="cls-18" d="M1119.45,1262.76c-5.7,1.2-8.94-3.8-12.72-6.36,18.91-19.71,12,5.3,12.72,6.36Z"/>
        <path class="cls-6" d="M1076.52,1173.71h3.18q.8.8,1.59,1.59l-1.59,1.59-1.59,1.59-1.59,1.59-1.59-1.59v-3.18l1.59-1.59Z"/>
        <path class="cls-24" d="M1122.63,1409.05c23.1,5.86-6.83,38.2,28.62,12.72q6.36,6.36,12.72,12.72c-3.29,3.14-5.95,6.3-9.54,9.54-3.76,3.39-11.35,1.71-9.54,9.54-7.59,1.76,3.13,6.01,3.18,6.36,1.56,10.58,11.72,19.54,3.18,22.26-11.36-12.06-7.72-34.02-28.62-28.62-6.92-26.95-16.06-9.23-17.49-9.54-14.66-3.23-1.35-28.93-1.59-31.8,11.93-2.56,5.32-6.67,19.08-3.18Z"/>
        <path class="cls-6" d="M1148.08,1459.94c-.05-.35-10.77-4.6-3.18-6.36,8.33-.34,6.33.67,3.18,6.36Z"/>
        <path class="cls-31" d="M1186.24,1402.69c10.58,23.72-20.67,30.29-22.26,31.8q-6.36-6.36-12.72-12.72c.78-37.85,17.8-20,34.98-19.08Z"/>
        <path class="cls-14" d="M1205.32,1348.63c-2.04,4.09-4.73,6.54-7.95,9.54-3.7,1.59-4.96-3.53-7.95-3.18,4.15-7.73,8.25-12.46,15.9-6.36Z"/>
        <path class="cls-20" d="M1165.57,1285.02c3.77-.13,5.97.68,4.77,4.77-3.28,11.21-23.31-4.14-4.77-4.77Z"/>
        <path class="cls-32" d="M1106.73,1479.02c-5.39,10.31-17.94-15.63-23.85-15.9-12.01-.56-10.49,23.82-17.49,3.18q5.57-25.44,11.13-50.88c9.25,22.1,17.59,43.02,30.21,63.61Z"/>
        <path class="cls-39" d="M1070.16,1482.2c4.58-2.83,11.92,9.74,6.36,12.72-.77.41-13.89-8.07-6.36-12.72Z"/>
        <path class="cls-24" d="M1062.21,1669.83c-2.08,12.95,5.61,8.81,6.36,9.54,8.17,7.96,11.2,16.74,19.08,15.9-3.78,9.58-13.25,2.65-28.62,0-4.49-.77-2.82,10.03-14.31-6.36-2.28,1.34-.85,14.32-7.95,22.26-12.23,13.68-9.09-7.41-22.26,6.36-5.39,5.63-13.86,25.26-12.72,28.62h-3.18c-5.1-7.59-10.42-14.8-12.72-23.85-44.5-35.8-45.27-12.53-58.83-17.49-17.93-6.57,1.92-18.02,1.59-20.67-.46-3.65-20.94-11.25-25.44-14.31v-3.18c2.51,1.49,17.71,4.89,27.03,12.72,18.12-10.41,36.57,11.42,49.29-9.54,7.66-12.62-8.32-12.54-9.54-28.62-2.69-35.26,19.58-7.69,19.08-17.49-.15-2.89-43.84-43.9-23.85-46.11,8.38-.93,1.43,21.69,15.9-6.36,26.14,117.53,42.44,58.42,47.7,57.24,2.36-.53,12.58,42.16,14.31,46.11,5.1-5.05,15.01-.23,19.08-4.77Z"/>
        <path class="cls-24" d="M1049.49,1510.82c-6.76,10.24-34.45-11.53-9.54,9.54-5.09,13.91-19.89,9.83-19.08,31.8-73.79-26.73,5.1-27.19-3.18-52.47-2.57-7.84-35.12-22.73-34.98-6.36.01,1.55,22.24,25.25-4.77,17.49-23-6.61,7.88-25.23,7.95-27.03.13-3.12-20.36-9.01-22.26-12.72-.62-1.21-.55-21.02,11.13-17.49,6.06,1.83,11.82,21.2,15.9,0,36.27,44.75,21.07-19.85,38.16,19.08,9.91-80.53,13.95,23.42,20.67,38.16Z"/>
        <path class="cls-31" d="M1062.21,1377.25c.8,4.16,6.33,17.08,6.36,19.08-53.87-1.72-6.75,25.83-39.75,22.26-24.35-2.63-29.86-29.49-58.83-30.21,15.26-32.53,22.52-9.42,55.65-4.77,6.11-8.45-25.12-6.59-15.9-31.8q26.24,12.72,52.47,25.44Z"/>
        <path class="cls-24" d="M741,830.24c-6.49.25-9.95,2.08-15.9,3.18-.75-.26-4.24,3.62-15.9,0-9.6-2.97-18.49-10.11-28.62-12.72-.56-.14-8.99-6.21-9.54-6.36-15.33-30.72,7.98-18.28,0-39.75,8.93-23.26,65.41,45.07,69.97,55.65Z"/>
        <path class="cls-24" d="M935,1625.31c4.27,36.92-9.82,11.34-25.44,12.72q-6.36-13.52-12.72-27.03c44.96-18.28,16.42.62-6.36-50.88,15.96-7.83,6.36-15.91,6.36-30.21h3.18c9.34,41.12,13.73,23.65,28.62,42.93,40.59,52.54,8.16,21.36,3.18,25.44-5.06,4.15,2.56,21.71,3.18,27.03Z"/>
        <path class="cls-24" d="M877.75,1901.99c2.29-1.3,9.63-4.23,9.54-4.77-1.12-6.45-9.06,1.62-9.54,1.59-63.44-4.14-10.33-9.67-38.16-27.03,36.3-9.95,17.89-40.18,55.65,4.77,38.67-18.82,31.35,47.93-17.49,25.44Z"/>
        <path class="cls-32" d="M947.72,1625.31c3.36,28.56,11.16,27.67,31.8,44.52-12.72,20.96-31.17-.87-49.29,9.54-9.33-7.83-24.52-11.23-27.03-12.72-.58-.34-2.38-4.85-9.54-9.54,2.52-7.78,6.03-9.07,6.36-9.54,3.69-5.23,2.88-6.17,3.18-6.36s-2.2-2.42,6.36-3.18c15.62-1.38,29.71,24.19,25.44-12.72,4.46-3.27,8.08-1.37,12.72,0Z"/>
        <path class="cls-24" d="M1024.05,1946.52c-17.12-4.31-19.56-9.27-20.67-9.54-6.38-1.53-50.93,12.14-23.85-17.49-16.36-29.29-31.38-24.14-19.08-39.75,4.37,3,88.05,34.64,63.61,66.79Z"/>
        <path class="cls-24" d="M1020.86,1256.4c14.02,30.62,11.58,80.83-1.59,22.26-8.11,1.21.06,4.47-11.13,12.72-2.66-21.08-43.08,21.16-41.34-22.26,4.12.68,7.21,6.64,7.95,6.36,7.28-2.81,3.02-13.6,6.36-15.9,2.7-1.86,12.35,8.09,14.31,4.77,4.75-8.04-19.54-12.2,6.36-30.21,9.55,6.68,14.18,11.55,19.08,22.26Z"/>
        <path class="cls-24" d="M865.03,1762.06c18.67-5.31,4.19-4.22,0-6.36-6.23-3.18-42-16.61-41.34-20.67,41.71-17.4,52.46.03,55.65-1.59,2.78-1.41,3.08-27.26,14.31,1.59-7.47,53.94,7.28,75.65-28.62,27.03Z"/>
        <path class="cls-24" d="M394.35,776.18c10.74-.91.16,10.04,38.16-3.18,11.05,32.12-77.35,49.53-79.51,9.54,32.16-11.32,29.79-5.38,41.34-6.36Z"/>
        <path class="cls-3" d="M903.2,1641.21c-.3.19.51,1.14-3.18,6.36-80.49-107.34-108.65-211.06-139.93-338.7,26.82,56.95,33.3,124.6,57.24,184.46,16.63,41.56,57.68,111.06,85.87,147.88Z"/>
        <path class="cls-24" d="M1001.78,1819.31q3.18,25.44,6.36,50.88c-15.47-11.21-19.48-23.85-22.26-6.36-20.77-21.23-1.56-14.7-3.18-27.03-40.44-33.93-3.96-53.96,19.08-17.49Z"/>
        <path class="cls-31" d="M1065.39,1583.97c-8.02,35.56-15.93-4.05-22.26,9.54-4.27-5.75-29.77-32.22-15.9-38.16,21.23,6.47,18.01-35.18,38.16,28.62Z"/>
        <path class="cls-41" d="M850.72,1781.14c20.8-2.97,55.81,44.94,47.7,50.88-2.9,2.13-54.65-32.08-62.02-36.57,13.23-7.01,13.2-14.15,14.31-14.31Z"/>
        <path class="cls-47" d="M1068.57,1548.98c2.7,10.41-.82,24.54-3.18,34.98-20.16-63.8-16.93-22.16-38.16-28.62-.34-.1,1.39-.37-6.36-3.18-.81-21.97,13.99-17.89,19.08-31.8,4.1,3.47,24.39,12.27,28.62,28.62Z"/>
        <path class="cls-24" d="M966.8,1269.12c-1.74,43.42,38.69,1.18,41.34,22.26-.46.34-7.39-1.58-9.54,6.36-4.54-1.04-24.7-.77-30.21,3.18,8.59-10.73-52.8-19.56-34.98-31.8,1.38-.95,25-1.39,33.39,0Z"/>
        <path class="cls-24" d="M709.2,849.32c18.59,56.36-81.42,14.8-3.18-3.18.46,1.7-.58,2.95,3.18,3.18Z"/>
        <path class="cls-17" d="M623.33,807.98c10.01-1.29,37.04,3.51,47.7,6.36.55.15,8.99,6.22,9.54,6.36-23.21,1.79-46.66-2.07-69.97-3.18-1.56-7.17,7.5-8.87,12.72-9.54Z"/>
        <path class="cls-21" d="M969.98,1641.21c1.23,16.08,17.2,16,9.54,28.62-20.64-16.85-28.44-15.97-31.8-44.52,8.68,2.57,13.45,12.87,22.26,15.9Z"/>
        <path class="cls-31" d="M982.7,1224.6c-6.99-1.89-50.54,11.93-12.72-19.08,7.72,7.01,15.73,5.14,12.72,19.08Z"/>
        <path class="cls-8" d="M725.1,833.42c18.87,6.54,20.6,1.42,47.7,15.9-49.16-19.2-60.27.21-63.61,0-3.76-.23-2.72-1.48-3.18-3.18-1.44-5.28,4.48-7.29,3.18-12.72,11.67,3.62,15.15-.26,15.9,0Z"/>
        <path class="cls-38" d="M828.46,1822.49c3.29-.21,27.39,14.14,27.03,17.49-2.28,21.25-44.45-16.39-27.03-17.49Z"/>
        <path class="cls-40" d="M893.65,1657.11c7.17,4.69,8.96,9.2,9.54,9.54v3.18c-17.55-11.94-34.08-23.14-47.7-39.75,9.83-2.84,25.31,18.61,38.16,27.03Z"/>
        <path class="cls-20" d="M998.6,1746.16h3.18c26.3,35.77,22.59,38.36-3.18,0Z"/>
        <path class="cls-11" d="M962.03,1510.82c3.1-.73,12.28,2.7,12.72,3.18,9.62,10.57-5.9,11.45-12.72-3.18Z"/>
        <path class="cls-9" d="M865.03,1762.06c-.74-1-5.24,1.13,0-6.36,4.19,2.14,18.67,1.05,0,6.36Z"/>
        <path class="cls-29" d="M877.75,1901.99v-3.18c.48.03,8.42-8.04,9.54-1.59.09.54-7.25,3.47-9.54,4.77Z"/>
        <path class="cls-2" d="M901.6,1803.4c.49-.05,6,4.72,4.77,7.95-1.87,4.91-10.02-7.42-4.77-7.95Z"/>
        <path class="cls-5" d="M900.01,1529.9h-3.18c0-5.17-1.07-10.49,1.59-12.72,3.01,0,.86,9.5,1.59,12.72Z"/>
        <path class="cls-22" d="M639.23,633.07c7.09,5.49,12.25,18.4,19.08,25.44,3.19,3.28,17.96,22.07,20.67,22.26,9.24.65,23.6-36.12,25.44-34.98,3.67,3.2.23,9.45,1.59,12.72-28.41,41.26-1.25,35.96,0,54.06.1,1.49-6.5,24.31-12.72,27.03,33.29,25.92,26.62,7.12,34.98,1.59-11.49,12.7,67,51.4,71.56,50.88,28.85-3.26-7.56-51.51-17.49-57.24,39.87,1.38,33.42,10.28,41.34,15.9-.1,10.79-2.21,26.36,9.54,31.8-7.74,21.71-19.14,20.75-22.26,30.21-.62,1.89,13.86,28.5-14.31,27.03.65-16.91-18.83-17.82-30.21-25.44-58.48-39.17-77.98-62.73-157.42-85.87-16.41,5.68-38.49,10.93-55.65,9.54-48.61-3.93-23.51-17.09-22.26-19.08,52.75,14.29,80.47-12.76,31.8-15.9q3.18-7.95,6.36-15.9c131.59,57.5,163.35,85.01,57.24-50.88,2.88-4.03-5.04-16.93,12.72-3.18Z"/>
        <path class="cls-27" d="M499.3,626.71c9.67,10.81,23.38,17.1,34.98,25.44q-12.72,9.54-25.44,19.08c-3.37-3.65-24.33-15.8-28.62-15.9-.61-8.62-5.57-6.4,0-15.9,6.95-11.84,18.19-12,19.08-12.72Z"/>
        <path class="cls-41" d="M480.22,639.43c-5.57,9.5-.61,7.29,0,15.9-8.54-.2-22.64,15.28-30.21,9.54-5.4-4.09,5.44-22.74-11.13-19.08,12.7-7.24,27.65-21.24,41.34-6.36Z"/>
        <path class="cls-19" d="M432.52,594.9c.76.5,6.67,11.81,6.36,15.9-40.98-9.03-24.82-28-6.36-15.9Z"/>
        <path class="cls-34" d="M408.66,610.81c.35-.04,6.43,4.64,3.18,6.36-8.18,4.33-9.19-5.67-3.18-6.36Z"/>
        <path class="cls-24" d="M639.23,633.07c-17.76-13.75-9.84-.85-12.72,3.18-7.36,10.32-11.55,23.29-27.03,19.08-60.99-50.01-13.54-49.3-11.13-52.47,1.41-1.86-26.14-25.69,23.85-17.49,21.84,3.58,44.32,25.51,27.03,47.7Z"/>
        <path class="cls-24" d="M731.46,598.08c-15.08-5.58-12.1-.15-12.72,0-16.23,3.81-28.68,20.72-25.44-7.95-4.05-4.89-7.73,1.93-7.95,1.59-20.16-31.52,11.95-12.48,17.49-17.49,8.2-7.43-.2-19.66,0-20.67,8.18-40.7,5.32-26.83,34.98-11.13,17.73,46.51,3.82,32.86-6.36,55.65Z"/>
        <path class="cls-31" d="M706.02,636.25c.68,1.01-1.35,5.07,1.59,6.36q2.39-1.59,4.77-3.18c14.92,28.89,22.68,89.19-6.36,19.08-1.36-3.27,2.08-9.52-1.59-12.72-1.84-1.13-16.2,35.63-25.44,34.98-2.71-.19-17.49-18.98-20.67-22.26,48.5-6.02-13.68-48.44,14.31-57.24,19.39-6.1,19,13.51,33.39,34.98Z"/>
        <path class="cls-24" d="M680.58,480.41c9.45,23.78,16.11,9.11,19.08,14.31,3.25,5.67-7.58,40.1-12.72,46.11-17.6,20.58-28.21-15.42-28.62-20.67-1.05-13.28,11.61-35.18,22.26-39.75Z"/>
        <path class="cls-17" d="M588.35,553.56c.91,1.5,22.34,6.48,20.67,25.44-12.41-11.24-22.36-6.5-36.57-9.54q7.95-7.95,15.9-15.9Z"/>
        <path class="cls-8" d="M731.46,598.08c-6.2,13.87-11.34,28.17-19.08,41.34q-2.39,1.59-4.77,3.18c-2.95-1.29-.91-5.35-1.59-6.36,7.17-13.28,13.61-22.76,12.72-38.16.62-.15-2.36-5.58,12.72,0Z"/>
        <path class="cls-43" d="M671.04,404.09h-3.18c-8.31-4.88-44.34-17.49-44.52-27.03-.72-36.82,44.93,23.94,47.7,27.03Z"/>
        <path class="cls-20" d="M664.68,337.3c-2.33,16.51-12.09,7-9.54-6.36.47.33,2.17.66,9.54,6.36Z"/>
        <path class="cls-24" d="M747.36,712.57c-7.27,4.78-36.8,25.35-15.9,22.26-.29.2-2.88,6.16-3.18,6.36-8.36,5.53-1.69,24.33-34.98-1.59,6.23-2.73,12.82-25.54,12.72-27.03,29.39-8.75,20.54-29.11,41.34,0Z"/>
        <path class="cls-46" d="M830.05,709.39c4.3,11.47,14.49,22.64,15.9,41.34-5.28.51-49.05-45.53-15.9-41.34Z"/>
        <path class="cls-45" d="M845.95,750.74c-1.41-18.71-11.6-29.87-15.9-41.34,38.71,4.9,20.99,40.85,15.9,41.34Z"/>
        <path class="cls-31" d="M1097.19,1326.36c3.12,3.87,4.5,6.25,9.54,7.95-1.96,2.53-6.09,4.48-6.36,7.95-13.25,13.1-41.32-5.18-50.88-19.08,25.65-6.18,24.58-40.22,31.8-20.67,1.28,3.47-11.41-1.45,1.59,14.31.7.85-.87-9.28,14.31,9.54Z"/>
        <path class="cls-49" d="M1071.75,1256.4c2.57,12.28-4.87,14.15-6.36,19.08-2.06-.18-4.41.38-6.36,0-7.09-1.39-12.88-6.53-15.9,3.18h-6.36c-.45-1.83.39-4.45,0-6.36,8.42-10.06,19.81-24.23,34.98-15.9Z"/>
        <path class="cls-31" d="M1065.39,1275.48c-.54,1.79.56,5.25,0,6.36-1.17,2.31,3.52,18.73-22.26,15.9-1.87-6.04-4.87-13.02-6.36-19.08h6.36q7.95-1.59,15.9-3.18c1.95.38,4.3-.18,6.36,0Z"/>
        <path class="cls-30" d="M890.47,839.78c-2.2-1.17-10.22,1.17-12.72,0-33.43-15.63,36.49-30.13,12.72,0Z"/>
        <path class="cls-48" d="M839.59,865.23c-17.29,12.87-15.77-.39-28.62-6.36,8.29-10.5,19.11,5.53,28.62,6.36Z"/>
        <path class="cls-11" d="M853.9,833.42c9.02-2.41,6.98,11.89,3.18,12.72-7.63,1.67-10.81-10.68-3.18-12.72Z"/>
        <path class="cls-45" d="M818.92,817.52c1.1-.75,6.99-.51,7.95,1.59,2.39,5.24-18.23,5.39-7.95-1.59Z"/>
        <path class="cls-1" d="M1100.37,1669.83q-3.18-3.18-6.36-6.36c4.36,2.02,13.12-3.83,6.36,6.36Z"/>
        <path class="cls-34" d="M1059.03,1695.28c2.25,33.4,29.81-1.3,3.18,42.93,2.18,5.45,17.28,3.71,22.26,14.31.74,1.58-1.25,29.45,0,34.98-7.88-10.25-19.1-14.25-31.8-34.98,17.47-41.21,6.41-37.65-12.72-38.16-2.45-.07-3.5-.55-3.18-3.18,7.1-7.94,5.67-20.92,7.95-22.26,11.49,16.39,9.82,5.59,14.31,6.36Z"/>
        <path class="cls-47" d="M1087.65,1695.28c-7.88.84-10.92-7.94-19.08-15.9,19.42-33.1,27-4.18,19.08,15.9Z"/>
        <path class="cls-24" d="M1052.67,1752.52c-3.21-5.24-17.71-4.7-12.72-38.16,19.13.51,30.19-3.05,12.72,38.16Z"/>
        <path class="cls-12" d="M1024.05,1879.73c4.19-.78,5.32-5.33,9.54-6.36,6.13,6.02,23.27,5.89,17.49,15.9-20.08-12.19-25.43,22.99-27.03-9.54Z"/>
        <path class="cls-44" d="M1113.09,1313.64c-2.48.72-6.52-.43-9.54,0,.46-3.77-7.21-16.95-1.59-31.8q5.57,15.9,11.13,31.8Z"/>
        <path class="cls-11" d="M912.74,1157.81c-3.64-4.78-2.89-9.13-3.18-9.54,3.58-30.09,16.66,4.86,3.18,9.54Z"/>
        <path class="cls-39" d="M993.83,1708c1.1-.75,6.99-.51,7.95,1.59,2.39,5.24-18.23,5.39-7.95-1.59Z"/>
        <path class="cls-15" d="M1059.03,1275.48q-7.95,1.59-15.9,3.18c3.02-9.71,8.81-4.57,15.9-3.18Z"/>
      </g>
    </g>
  </g>
</svg>