<?xml version="1.0" encoding="UTF-8"?>
<svg id="Layer_2" data-name="Layer 2" xmlns="http://www.w3.org/2000/svg" viewBox="0 0 1214.97 2217.17">
  <defs>
    <style>
      .cls-1 {
        fill: #4a2e19;
      }

      .cls-1, .cls-2, .cls-3, .cls-4, .cls-5, .cls-6, .cls-7, .cls-8, .cls-9, .cls-10, .cls-11, .cls-12, .cls-13, .cls-14, .cls-15, .cls-16, .cls-17, .cls-18, .cls-19, .cls-20, .cls-21, .cls-22, .cls-23, .cls-24, .cls-25, .cls-26, .cls-27, .cls-28, .cls-29, .cls-30, .cls-31, .cls-32, .cls-33, .cls-34, .cls-35, .cls-36, .cls-37, .cls-38, .cls-39 {
        stroke-width: 0px;
      }

      .cls-2 {
        fill: #5f2525;
      }

      .cls-3 {
        fill: #5f371a;
      }

      .cls-4 {
        fill: #78899d;
      }

      .cls-5 {
        fill: #50182e;
      }

      .cls-6 {
        fill: #7a7d92;
      }

      .cls-7 {
        fill: #4f273d;
      }

      .cls-8 {
        fill: #2c191a;
      }

      .cls-9 {
        fill: #5c2c1e;
      }

      .cls-10 {
        fill: #643855;
      }

      .cls-11 {
        fill: #894877;
      }

      .cls-12 {
        fill: #976287;
      }

      .cls-13 {
        fill: #3a162b;
      }

      .cls-14 {
        fill: #385a66;
      }

      .cls-15 {
        fill: #3d3034;
      }

      .cls-16 {
        fill: #392239;
      }

      .cls-17 {
        fill: #1b1b1b;
      }

      .cls-18 {
        fill: #191a2b;
      }

      .cls-19 {
        fill: #19242d;
      }

      .cls-20 {
        fill: #371312;
      }

      .cls-21 {
        fill: #0e1929;
      }

      .cls-22 {
        fill: #422929;
      }

      .cls-23 {
        fill: #a95f79;
      }

      .cls-24 {
        fill: #1f181e;
      }

      .cls-25 {
        fill: #171c16;
      }

      .cls-26 {
        fill: #162e38;
      }

      .cls-27 {
        fill: #260e16;
      }

      .cls-28 {
        fill: #12151f;
      }

      .cls-29 {
        fill: #c0acb8;
      }

      .cls-30 {
        fill: #b2aebd;
      }

      .cls-31 {
        fill: #cf7787;
      }

      .cls-32 {
        fill: #9f6d83;
      }

      .cls-33 {
        fill: #8e798a;
      }

      .cls-34 {
        fill: #bb7da3;
      }

      .cls-35 {
        fill: #6d2340;
      }

      .cls-36 {
        fill: #985371;
      }

      .cls-37 {
        fill: #a08793;
      }

      .cls-38 {
        fill: #7e3d5d;
      }

      .cls-39 {
        fill: #745975;
      }
    </style>
  </defs>
  <g id="base_layer" data-name="base layer">
    <g>
      <path class="cls-36" d="M1202.25.08c2.97,7.71,6.37,7.61,12.72,3.18-2.3,39.76-41.31,39.87-44.52,41.34.2-4.26-6-3.81-9.54-3.18-20.43-44.83,10.47-4.29,31.8-41.34,3.18,0,6.36,0,9.54,0Z"/>
      <path class="cls-17" d="M1052.78.08v46.11c-9.66,3.28-2.01-8.36-19.08-1.59-9.13-22.51-.03-17.9,0-19.08,22.01,12.43,7.5-14.47,9.54-25.44,3.18,0,6.36,0,9.54,0Z"/>
      <path class="cls-36" d="M1065.5,60.51c8.14,3.75,7.46,12.15,7.95,12.72.72.84,7.55-.68,7.95,0,17.81,30.16-19.51,36.74-42.93,31.8-8.28-1.74-16.49-12.32-17.49-12.72-1.06-.42,4.29-3.48-6.36-6.36,2.73-5.29,15.33-19.75,19.08-22.26,2.96,6.71,11.85,3.63,9.54-3.18,7.74-1.3,14.56-3.55,22.26,0Z"/>
      <path class="cls-36" d="M962.14,251.32c39.62-1.33-3.83,36.88-28.62,28.62-25.37-8.45,23.89-28.46,28.62-28.62Z"/>
      <path class="cls-8" d="M1160.91,41.42c3.54-.63,9.74-1.08,9.54,3.18-27.25,12.54-55.41,27.66-85.87,25.44,1.08-11.74,11.31-1.95,15.9-3.18,20.3-5.45,45.36-22.77,60.43-25.44Z"/>
      <path class="cls-8" d="M1014.61,85.95c10.65,2.88,5.3,5.94,6.36,6.36-17.87,2.71-36.23,1.76-54.06,3.18-1.86-10.42,8.09-4.86,19.08-6.36,1.82-.25,16.4-6.49,28.62-3.18Z"/>
      <path class="cls-38" d="M1100.48,60.51v6.36c-4.59,1.23-14.82-8.56-15.9,3.18-.22,2.41-.47,3.51-3.18,3.18-.4-.68-7.23.84-7.95,0-.49-.57.19-8.97-7.95-12.72,2.74.34,2.9-.79,3.18-3.18q15.9,1.59,31.8,3.18Z"/>
      <path class="cls-38" d="M1030.52,12.8c13.27,10.96,3.2,11.9,3.18,12.72-.03,1.18-9.13-3.43,0,19.08-1.72.68-30.37,17.91-31.8,19.08,7.88-10.42-2.92-11.94-3.18-12.72-2.67-7.91-1.75-16.9-6.36-23.85,8.02-13.01,17.57-31.31,38.16-14.31Z"/>
      <path class="cls-38" d="M1100.48,60.51q-15.9-1.59-31.8-3.18c1.24-10.69-3.25-14.45,11.13-25.44,59.54-2.1,20.67,9.74,20.67,28.62Z"/>
      <path class="cls-25" d="M1001.89,63.69c-4.37,3.56-9.18,5.92-9.54,6.36-8.89,1.67-5.97-6.13-6.36-6.36q6.36-6.36,12.72-12.72c.26.78,11.06,2.31,3.18,12.72Z"/>
      <path class="cls-3" d="M1043.24,60.51c2.31,6.81-6.58,9.89-9.54,3.18,11.29-7.56,2.67-2.03,9.54-3.18Z"/>
      <path class="cls-5" d="M1168.86,25.52h3.18q.8.8,1.59,1.59v3.18q-.8.8-1.59,1.59l-1.59-1.59q-.8-.8-1.59-1.59l-1.59-1.59,1.59-1.59Z"/>
      <g>
        <path class="cls-21" d="M108.24.08c-34.74,156.52-16.44,257.9,20.67,410.25,58.16,12.01,96.6-153.89,100.18-192.41,6.79-73.06-12.03-145.16-15.9-217.85,32.86-.16,65.73.11,98.59,0-53.64,116.46,22.87,186.48,22.26,0,23.32-.07,46.64.05,69.97,0-14.52,141.47-96.63,251.35-85.87,395.94-9.85,47.78-48.86,91.83-38.16,143.11,8.25,39.53,57.15,37.86,79.51,12.72,6.81-7.65,86.17-174.63,89.05-184.46,14.77-50.4-7.45-99.54,36.57-4.77,15.43-25.12,32.72-50.07,46.11-76.33,18.27,5.53,1.29,11.58,9.54,15.9-18.13,34.49,2.61,14.16,9.54,0,7.19,6.05,15.94-1.06,22.26-6.36v3.18c-7.11,28.7-23.34,32.35-25.44,34.98-4.07,5.11-8.92,10.85-12.72,15.9-15.17,20.19-122.26,171.96-124.03,182.87-6.38,39.25,56.74,18.03,74.74,11.13,60.77-23.28,177.44-159.06,233.75-209.9,1.12.05,21.02-2.85,22.26-3.18q-18.29,34.98-36.57,69.97c11.79-2.76,48.87-35.39,52.47-20.67.86,3.53-29.87,26.18,50.88-7.95,3.92.74,8.64-.48,12.72,0-2.7,1.28-13.21,16.56-52.47,28.62-53.19-6.13-43.66,2.92-46.11,3.18-14.85,1.55-16.57,6.52-17.49,6.36-2.11-.37-10.39-12.17-12.72-12.72-16.81-4.01-47.91,26.82-23.85,38.16q-54.06,69.17-108.13,138.34c-16.31,73.28-64.43,133.92-104.95,195.59-2.83,4.31-6.62,8.28-9.54,12.72-36.26,55.08-79.23,105.82-111.31,163.78,14.87,38.74,65.48,81.55,38.16,87.46h-3.18c-1.94-5.31-35.43-77.03-39.75-76.33-9.55,19.24-34.25,58.95-39.75,74.74-.2.59,6.56,5.77,6.36,6.36-7.72,22.9-15,45.33-22.26,68.38-3.82.27-3.49-2.74-3.18-6.36,1.57-18.04,16.3-46.74,15.9-49.29-3.52-22.31-31.46,47.26-34.98,55.65-1.6,3.81-5.18,5.12-9.54,19.08-16.33,52.24,6.71,50.27,12.72,19.08.32.33,3.75-.19,6.36,0-1,3.48.99,9.24,0,12.72-2.24,7.87-26.48,42.35-34.98,124.03-29.71-10.96-8.48-9.43-6.36-47.7.47-8.43-.33-16.99,0-25.44,16.36,1.02,16.74-4.01,12.72-19.08-3.32-12.44-2.63-4.3-9.54-3.18-2.22.36-2.99-5.44-12.72,1.59,6.16,11.92,1.17,12.93,0,17.49-3.04,11.87-3.54,23.3-6.36,34.98-3.58,14.84-23.6,16.59-6.36,42.93-5.55,7.42-10.45,1.41-15.9,11.13-6.88,12.28,2.75,12.79,3.18,19.08,2.12,30.8-6.1,41.11,9.54,28.62,8.89-1.67,5.97,6.13,6.36,6.36-1.85,17.11-23.07,40.3-12.72,57.24-.41,2.84-4.79,5.05-3.18,12.72q-6.36-1.59-12.72-3.18c-.44-4.46,1.47-52.28-6.36-33.39-1.4,3.39-13.34,59.88-15.9,71.56-.64,2.91-2.55,3.45-3.18,6.36-5.39,24.92-6.21,51.12-9.54,76.33-17.61,9.84-11.59,29.22-9.54,47.7.07.64,5.07,8.93,6.36,11.13-23.99,5.09-17.68,73.06-12.72,93.82,1.68,7.02,5.34,12.11,6.36,19.08-30.64,1.39-5.33,10.62,3.18,19.08-34.31,13.46-6.7,27.2-6.36,33.39.77,13.82-37.36-16.26-22.26,60.43-29.48-1.53-11.04-42.79-47.7-15.9,24.47,7.46,5.23,20.11,30.21,17.49-9.02,22.9,6.2,3.55,49.29,22.26.96,26.33,10.02,73.39,19.08,98.59-45.15-8.06-17.86,25.88-23.85,28.62-1.39.64-11.86-18.77-15.9-3.18-35.93-53.69-40.55-1.97-46.11,7.95-20.57,36.68-44.29,62.92,20.67,42.93,7.83,1.56-14.5,31.27,9.54,25.44,9.51-2.31-16.2-39.88,42.93-3.18-.21,6.98-5.44.06-6.36,6.36-8.25,8.83,12.86,13.61,25.44,33.39,6.99,10.99,9.76,22.49,15.9,33.39,7.6,13.5,6.79,20.73,19.08,6.36.43.46,6.16,2.89,6.36,3.18.84,1.21-4.41,30.62,6.36-3.18,8.82-27.68,3.26-1.89,6.36,3.18,6.68,10.95,20.67,7.4,12.72,25.44-32.7-12.84-14.88,9.82-15.9,11.13-.78,1-3.68-.15-12.72,7.95-1.31,1.18-9.35-1.91-12.72,1.59-1.57,1.63,2.33,13.93-1.59,17.49-1.54,1.39-23.56-4.7-20.67,25.44-3.84-2.39-15.21-2.76-15.9-3.18-1.94-1.19-13.21-20.54-36.57-25.44-8.11,78.6,1.93-14.28-23.85,9.54-2.91-.89-4.11-3.96-6.36-6.36,17.43-19.93,25.41-41.81-7.95-44.52-20.09-1.64-25.65,6.21-27.03,6.36-37.22,4.02,13.08-67.34-44.52-82.69C-.04,1805.41-.03,1543.57.11,1281.73c19.55-2.62,12.83-39.16,9.54-55.65,68.6-24.82,73.14-126.45,63.61-187.64-2.95-18.96-55.07-202.12-73.15-230.57,0-8.48,0-16.96,0-25.44q11.13,24.65,22.26,49.29Q11.24,749.83.11,667.94c.03-20.14-.02-40.28,0-60.43,29,106.03,26.51,215.14,57.24,321.21,2.04,7.03,4.07,12.32,6.36,19.08,5.27,15.55,4.91,30.38,15.9,44.52.22.28,6.01,2.8,6.36,3.18.2,4.37-2.02,6.85,3.18,9.54,28.01,14.48-5.35-20.52-6.36-22.26-5.78-9.93-10.42-20.5-12.72-31.8,1.48.89,6.08,2.89,6.36,3.18,6.26,6.41,20.01,27.16,25.44,36.57h6.36q7.95-71.56,15.9-143.11c48.92-88.34-20.55-195.35-9.54-302.13C51.02,467.83,20.82,417.87.11,318.11.44,212.1-.14,106.09.11.08,36.15-.23,72.21.51,108.24.08Z"/>
        <path class="cls-21" d="M922.39.08c-7.11,14.45-28.07,58.29-31.8,63.61-12.22,17.38-9.01,25.21-34.98,15.9,8.8-25.79,20.13-52.11,19.08-79.51,15.9-.01,31.8.01,47.7,0Z"/>
        <path class="cls-36" d="M292.69,1316.71c-1.08,1.18-8.58,25.03-14.31,28.62-13.58,8.5-19.07-25.2-20.67-7.95-1.31,14.04,21.41,14.62,22.26,15.9,3.6,5.43-22.29,60.22,9.54,55.65.25,17.32,16.2,50.1,27.03,47.7,11.62-2.57.15-29.46,14.31-28.62,18.02,6.43,17.02-2.78,20.67,0,22.75,17.35-23.74,48.99-34.98,63.61-11,1.72-16.79-63.14-30.21-27.03-5.13,13.82,11.16,35.56,9.54,54.06-63.49,37.81-16.25,14.44-4.77,14.31.73,0,6.91,6.25,11.13,9.54-11.04,18.83.37,36.02,4.77,9.54,12.12,13.5,7.08,13.55,1.59,22.26-.26.41-7.65-5.92-9.54,1.59-2.32,9.21,6.31,14.91,1.59,17.49-24.04,13.15-26.32-29.59-46.11-38.16,7.11-54.8,19.22-153.4,23.85-101.77,12.68,5.51,7.45-30.11-11.13-38.16-14.67-6.36-44.4-.9-47.7,7.95-7.75,20.76,18.89-20.65,41.34,1.59-6.98,7.57-9.12,11.48-19.08,15.9-4.13,1.83-7.98-4.96-14.31-3.18-9.59,2.7,16.33,22.47-36.57-6.36-.07-.71-4.3-11.93-6.36-12.72-1.61-7.67,2.77-9.88,3.18-12.72.05-.32,5.63,1.16,6.36-1.59.39-1.48-3.68-27.02,4.77-30.21,4.71-1.78,9.02,9,12.72,6.36,5.63-4.01-2.1-28.62,23.85-6.36,3.06,6.07,20.14,44.82,31.8,27.03,2.08-3.18-23.6-68.23-25.44-71.56,15.11-31.66,22.11-2.64,30.21-9.54,3.52-3-1.76-44.36,20.67-3.18Z"/>
        <path class="cls-21" d="M184.57,1418.48c2.06.79,6.29,12.01,6.36,12.72,11.78,114.48,44.46,156.66,50.88,9.54,9.96-4.42,12.1-8.33,19.08-15.9,2.84-3.08,5.21-5.51,6.36-9.54,18.58,8.05,23.81,43.67,11.13,38.16-4.63-51.63-16.75,46.97-23.85,101.77-2.56,19.73-4.5,48.84-6.36,69.97-.84,9.56-8.28,18.3-6.36,28.62q-1.59,3.98-3.18,7.95c6.79,6.45,9.67,7.25,9.54,17.49-.64,51.13-5.62,98.57-34.98,39.75q12.72-22.26,25.44-44.52c1.88-10.6-12.53-16.43-12.72-17.49-8.1-44.47,2.82-131.63-34.98-104.95-.35-.58-5.49,3.37-9.54-9.54,9.27-3.22,18.24.97,19.08-1.59.85-2.57-8.65-12.51-12.72-23.85-2.1-5.86-4.32-10.33,0-15.9q-1.59-1.59-3.18-3.18c-4.5-27.72-9.98-54.64-12.72-82.69q6.36,1.59,12.72,3.18Z"/>
        <path class="cls-36" d="M241.81,2010.01c.36,5.26-.35,10.64,0,15.9-15.67,13.7.71,118.4-28.62,98.59-3.1-5.07,2.46-30.86-6.36-3.18q-3.18,1.59-6.36,3.18c-.2-.29-5.93-2.73-6.36-3.18-4.94-5.25-10.29-16.34-19.08-6.36-6.14-10.91-8.91-22.4-15.9-33.39-12.58-19.78-33.69-24.56-25.44-33.39,22.76,12.91,3.43-32.06,31.8,3.18,3.72,4.62,5.05,18.73,17.49,25.44,19.24,10.38,2.88-37.49-14.31-41.34,4.8-35.17,31.36-18,33.39-19.08,2.09-1.11,18.49-46.08,20.67,1.59h6.36c2.93-38.61-16.94-130.83,0-157.42,4.03,49.66,9.35,99.82,12.72,149.47Z"/>
        <path class="cls-38" d="M152.76,1943.22c9.87,27.43,1.15,43.61,31.8,31.8.08.73,4.49-4.4,9.54,11.13-6.2,7.81-15.51,3.52-25.44,4.77-1.96.25-7.09-5.75-11.13-3.18-4.18,2.65-4,10.57-14.31,22.26-1.21,1.37-5.73-6.56-9.54-1.59-.57,1.69,7.01,11.84,6.36,33.39-59.13-36.7-33.42.87-42.93,3.18-24.04,5.83-1.71-23.89-9.54-25.44-64.96,19.98-41.24-6.25-20.67-42.93,5.56-9.92,10.19-61.64,46.11-7.95,4.04-15.59,14.51,3.82,15.9,3.18,5.99-2.74-21.3-36.69,23.85-28.62Z"/>
        <path class="cls-36" d="M130.5,1726.96c7.46,7.42,12.91,11.48,15.9,22.26q-6.36,8.75-12.72,17.49c17.34-11.73,10.99-5.97,22.26,7.95-27.79,25.85-23.72,30.03-22.26,69.97-43.09-18.71-58.32.63-49.29-22.26-24.99,2.62-5.74-10.03-30.21-17.49,36.66-26.89,18.22,14.37,47.7,15.9-15.09-76.68,23.03-46.61,22.26-60.43-.34-6.19-27.95-19.94,6.36-33.39Z"/>
        <path class="cls-38" d="M757.01,276.76c.91-.35,15.1-3.31,15.9-3.18,31.47,5.02-.78,49.04-31.8,57.24-1.24.33-21.14,3.23-22.26,3.18-7.13-.31-30.4-6.11-31.8-14.31-5.46-31.82,47.98-11.78,36.57-55.65,7.05-5.53,11.81,32.28,9.54,38.16,8.34-11.18,9-19.73,23.85-25.44Z"/>
        <path class="cls-36" d="M639.34,232.24c.67,4.14.64,5.62,3.18,9.54-33.79,40.07-20.36,40.36-22.26,42.93-1.57,2.12-14.62-5.15-22.26,14.31-26.14-18.37,39.87-42.64-7.95-25.44-3.4,6.02-12.9,18.41-17.49,22.26-6.32,5.3-15.07,12.41-22.26,6.36,1.63-3.34,3.35-11.7,3.18-15.9,4.67-4.39,11.49-11.71,12.72-12.72.8-.65,15.8,1.95,19.08-7.95,2.85-8.6-6.01-20.96-3.18-25.44,3.79-6.02,13.15,4.82,15.9,0,1.38-2.42-16.42-41.2,30.21-27.03,12.79,3.89,9.61,9.64,11.13,19.08Z"/>
        <path class="cls-26" d="M534.39,108.21c23.28,34.92,21.65,73.88,28.62,6.36.53-.59,9.11-12.06,9.54-12.72q-3.18,59.63-6.36,119.26c5.19,4.02,6.03-16.63,12.72-23.85.61-.65,15.26-5.79,15.9-6.36-10.48,32.82-36.64,42.14-28.62,82.69-1.24,1.01-8.05,8.33-12.72,12.72-7.7,7.23-7.24,5.47-12.72,15.9-8.25-4.32,8.73-10.37-9.54-15.9,14.25-27.94,37.54-56.16,25.44-119.26-.85-4.44-55.11-108.11-22.26-58.83Z"/>
        <path class="cls-19" d="M136.86,1536.15c-.4,3.02-4.77,1.6-6.36,19.08-.59,6.45-4.63,9.78-3.18,14.31q35.78,34.19,71.56,68.38-3.98-35.78-7.95-71.56c-5.14-8.19-11.89-6.78-19.08-11.13-1.89-17.92,3.98-10.79,9.54-12.72,4.05,12.91,9.19,8.96,9.54,9.54,4.57,7.49,19.61,96.31,19.08,108.13-.91,20.28-1.83,8.32-6.36,9.54.55-24.68-58.9-81.42-76.33-85.87-2.05-18.49-8.07-37.86,9.54-47.7Z"/>
        <path class="cls-36" d="M722.03,403.97c20.16,1.34,20.18,14.2,4.77,25.44-14.78-21.24-49.06,10.97-58.83,6.36-24.06-11.34,7.04-42.17,23.85-38.16,2.33.56,10.61,12.35,12.72,12.72.92.16,2.64-4.81,17.49-6.36Z"/>
        <path class="cls-36" d="M219.55,1234.02c-2.12,38.27-23.35,36.74,6.36,47.7-1.01,9.71,2.53,19.15-3.18,19.08-11.32-11.56-22.16-22.61-25.44,0-.63-.59-7.9-.87-15.9-6.36,5.45-9.72,10.36-3.71,15.9-11.13-17.24-26.34,2.78-28.1,6.36-42.93l15.9-6.36Z"/>
        <path class="cls-23" d="M141.63,2130.86c11.28-.08,14.66,52.9,6.36,54.06-17.21,2.42-35.45-53.86-6.36-54.06Z"/>
        <path class="cls-36" d="M486.69,814.23c-10.31-.52-8.55,6.58-9.54,9.54q-15.9-20.67-31.8-41.34c2.92-4.44,6.71-8.41,9.54-12.72,16.27,18.77,37.44,21.85,38.16,27.03.13.92-3.4,1.65-6.36,17.49Z"/>
        <path class="cls-36" d="M152.76,1688.8c10.18,2.48,3.38,7.52,15.9,3.18,10.69,6.76-5.13,9.53-12.72,22.26-8.62.78-22.17-6.65-28.62-6.36-1.02-6.97-4.68-12.06-6.36-19.08,12.44-21.42,17.43,1.92,23.85,3.18,9.01,1.77,7.53-3.28,7.95-3.18Z"/>
        <path class="cls-36" d="M273.61,1106.81c-3.98,12.63-9.15,25.66-12.72,38.16-2.61-.19-6.04.33-6.36,0-8.63-8.87-14.5-9.21-12.72-19.08,4.37-13.96,7.94-15.27,9.54-19.08q9.54-3.18,19.08-6.36c-.31,3.62-.64,6.63,3.18,6.36Z"/>
        <path class="cls-36" d="M569.38,340.37c1.35,1.07,6.03,2.65,6.36,4.77.07.42-4.65,2.64-3.18,7.95-17.99,1.55-30.21,28.92-38.16-3.18,3.8-5.06,8.65-10.79,12.72-15.9,10.95-1.17,14.14-.03,22.26,6.36Z"/>
        <path class="cls-38" d="M830.16,356.27q1.59,4.77,3.18,9.54c-4.27,2.19-8.39,4.31-12.72,6.36-4.08-.48-8.8.74-12.72,0-8.18-1.54-37.42-6.07-20.67-19.08,7.16-5.56,40.79,3.42,42.93,3.18Z"/>
        <path class="cls-33" d="M127.32,1707.88c6.45-.29,20,7.14,28.62,6.36-1.17,1.96,4.89,4.33,3.18,7.95-1.28,2.71-9.9-.13-12.72,6.36-.42.96,2.93,19.66,3.18,20.67h-3.18c-2.99-10.78-8.44-14.84-15.9-22.26-8.51-8.46-33.82-17.69-3.18-19.08Z"/>
        <path class="cls-18" d="M143.22,2010.01c-.12,13.84,18.83,23.1,22.26,31.8.72,1.82-.43,6.35,0,9.54-28.37-35.24-9.05,9.72-31.8-3.18.92-6.3,6.15.62,6.36-6.36.65-21.55-6.93-31.7-6.36-33.39,3.81-4.97,8.33,2.96,9.54,1.59Z"/>
        <path class="cls-36" d="M68.49,1901.88c28.17,42.81-21.42,25.06-20.67,11.13.79-14.57,16.37-.65,20.67-11.13Z"/>
        <path class="cls-23" d="M74.85,1726.96c14.27-2.34,23.59,22.33,15.9,25.44-26.92,10.88-28.24-23.42-15.9-25.44Z"/>
        <path class="cls-5" d="M598,299.03c-.99,2.52-2.3,18.87-3.18,25.44-16.14,8.02,4.58-45.7-15.9-28.62-.84.7-4.72,2.76-6.36,3.18v-3.18c4.6-3.85,14.09-16.24,17.49-22.26,47.82-17.2-18.19,7.07,7.95,25.44Z"/>
        <path class="cls-37" d="M569.38,340.37c-8.12-6.4-11.32-7.53-22.26-6.36,2.1-2.64,18.34-6.28,25.44-34.98,1.64-.42,5.52-2.48,6.36-3.18-4.28,16.49,3.68,34.77-9.54,44.52Z"/>
        <path class="cls-38" d="M119.37,1917.78c3.86.19,10.86,18.47,7.95,23.85-2.28,4.22-27.33-16.35-9.54,9.54-38.27-1.3-1.2-33.53,1.59-33.39Z"/>
        <path class="cls-36" d="M222.73,1342.15c-12.86,4.76-11.57,12.64-22.26,6.36-.39-.23,2.53-8.04-6.36-6.36,4.7-3.75,10.48-15.58,9.54-22.26h3.18c7.04,9.24,6.74,5.85,15.9,22.26Z"/>
        <path class="cls-35" d="M378.56,1040.03c1.78,24.09,9.48,26.1-12.72,31.8-3.14.81-4.18,4.1-12.72,3.18-1.25-9.16,12.87-14.89,15.9-19.08,10.96-15.16.67-9.89,0-12.72-.68-2.84.8-7.36,0-9.54h3.18c.31,1.49,5.93,6.22,6.36,6.36Z"/>
        <path class="cls-11" d="M76.44,954.16c-.28-.29-4.88-2.29-6.36-3.18-1.91-1.15-4.14-2.68-6.36-3.18-2.29-6.76-4.32-12.06-6.36-19.08,21-14.63,19.38,2.82,19.08,25.44Z"/>
        <path class="cls-38" d="M222.73,1186.32c-.76,9.15,3.56,6.93,9.54,3.18,4.02,15.07,3.64,20.11-12.72,19.08-3.23-.2-4.38-4.68-9.54-3.18,1.17-4.56,6.16-5.57,0-17.49,9.73-7.03,10.5-1.23,12.72-1.59Z"/>
        <path class="cls-10" d="M197.29,1300.81c.78.73,8.27,17.41,9.54,19.08h-3.18l-19.08-6.36c-.43-6.29-10.06-6.8-3.18-19.08,8,5.49,15.28,5.78,15.9,6.36Z"/>
        <path class="cls-10" d="M89.16,1005.04c1.45-10.64-2.84-9.17-3.18-9.54-.35-.38-6.14-2.9-6.36-3.18q1.59-4.77,3.18-9.54c1.01,1.74,34.37,36.74,6.36,22.26Z"/>
        <path class="cls-36" d="M179.79,2153.12c2.09,1.61,2.52,15.64,1.59,17.49-16.55,33.16-12.97-26.24-1.59-17.49Z"/>
        <path class="cls-23" d="M100.29,1701.52c3.52.02,12.7,13.24,3.18,15.9-12.3,3.43-12.19-15.96-3.18-15.9Z"/>
        <path class="cls-34" d="M232.27,1189.5c-5.98,3.75-10.3,5.97-9.54-3.18,6.91-1.12,6.22-9.26,9.54,3.18Z"/>
        <path class="cls-4" d="M200.47,2124.5q3.18-1.59,6.36-3.18c-10.77,33.8-5.52,4.39-6.36,3.18Z"/>
        <path class="cls-30" d="M106.65,1752.41c.41-.22,8.13,4.34,7.95,4.77-2.32,5.5-15.33-.91-7.95-4.77Z"/>
        <path class="cls-37" d="M89.16,1005.04c-5.2-2.69-2.98-5.17-3.18-9.54.34.37,4.63-1.1,3.18,9.54Z"/>
        <path class="cls-23" d="M680.69,846.03c-3.82,13.2-12.84,12.86,9.54,15.9-3.24,9.52-19.93,17.38-25.44,25.44-29.71-3.17-14.25-11.38-17.49-12.72-13.72-10-67.55,38.79-68.38,42.93-1.84,9.16,33.41,22.62,4.77,39.75-12.04,7.2-22.73-2.43-34.98,0-4.47,14.99-14.69,11.8-27.03,12.72,2.4-9.29-24.73-12.84-25.44-4.77-.21,2.37,7.02,3.72,9.54,7.95,5.85,9.82,13.53,18.59,15.9,30.21l-4.77,4.77c-2.69-4.82-28.77-8.89-30.21-9.54-.6-.27,1.46-8.71-1.59-9.54-6.95,13.92-28.12,42.99-23.85,47.7-9.77,4.78-16.27,14.71-28.62,12.72,2.18-9.19,5.86-19.89,9.54-28.62,12.98,2.15,39.12-40.06,22.26-41.34.67-2.01,9.25-39.24,9.54-41.34,7.32-4.16,16.31-14.72,23.85-6.36,3.65-2.15-.46-6.3,1.59-12.72.49-1.53,17.3-25.7-6.36-12.72-2.27,1.24-21.32,14.91-22.26,15.9-1.37,1.46-5.53-1.69-12.72,12.72-21.93-36.48-84.04,51-14.31-98.59,13.65,37.89-8,43.26,17.49,47.7,18.03,3.14,6.48-5.77,9.54-6.36,43.87-8.44,33.82,12.89,44.52-6.36,34.69,9.42,13.72-5.36,20.67-9.54,5.61-3.38,11.9,6.31,12.72,6.36,23.5,1.45,29.9-6.38,17.49,28.62-.36,1.02-.18,3.42-3.18,9.54-.3.61-1.59-3.74-9.54,9.54-1.32-12.82-4.28-4.72-9.54,0-21.37-20.56-11.61-22.79-12.72-23.85-4.64-4.45-33.71-6.65,6.36,27.03,3.54,2.97-.05,5.01,9.54,9.54,7.68,3.63,8.73,7.93,17.49,6.36,6.7-.22,5.18-20.88,4.77-22.26,13.01-8.18,20.58-20.87,25.44-34.98,8.69-25.25-.31-40.7,0-42.93,2.73-19.98,7.96-27.49,25.44-15.9-30.65,36.97,8.76,42.06,36.57,49.29,3.87-8.65,14.05-22.45,23.85-22.26Z"/>
        <path class="cls-38" d="M985.99,63.69c.39.23-2.53,8.04,6.36,6.36-.64.78-2.67,13.05-6.36,19.08-10.99,1.5-20.95-4.06-19.08,6.36-3.15.25-6.41-.32-9.54,0-17.67-18.03-67.84-4.01-82.69,22.26-1.31.65-6.07-.39-9.54,0,2.89-17.17-12.67-9.74-19.08-15.9-.8-.77-2.2-19.32-11.13-19.08-1.8.05-26.54,22.12-27.03,23.85-5.12,18.2,20.83,13.54,22.26,14.31,1.01.54,9.14,14.33,19.08,12.72-1.02,1.3-3.58,10.98-12.72,25.44-4.79-1.19-33.48-5.41-34.98-6.36-24.96-15.8-4.29-21.67-6.36-30.21-4.64-19.16-23.44,9.79-33.39,7.95-12.33-2.28,13.18-32.32-30.21,3.18-15.32,12.54-34.57,29.78-47.7,44.52-19.03-36.59,13.52-16.16,9.54-77.92-.12-1.83-8.44-.26-9.54-9.54-.12-1.03,7.9-17.48,11.13-17.49,22.01-.1-9.05,47.04,9.54,54.06,2.69,1.02,27.67-24.79,31.8-25.44,10.55-1.66,12.34,10.43,19.08,9.54,17.03-2.25-20.3-32.26,57.24-15.9,3.14-13.56-5.1-35.82,19.08-38.16,25.71-2.49,6.93,16.2,23.85,22.26,25.97,9.31,22.77,1.48,34.98-15.9,7.78-.88,14.05,11.42,20.67,12.72,26.74,5.27,28.67-39.75,74.74-12.72Z"/>
        <path class="cls-21" d="M836.52,159.09c-21.73,34.38-42.49,78.73-63.61,114.49-.8-.13-14.99,2.83-15.9,3.18-27.4.34-7.75-27.46,19.08-79.51,5.98-11.59,12.8-23.47,19.08-34.98,1.97-3.6,4.96-5.76,6.36-9.54,1.5.95,30.19,5.17,34.98,6.36Z"/>
        <path class="cls-38" d="M874.68,343.55c13.03-20.38-2.96-9.79-6.36-12.72-28.47-24.51,11.56-16.42,17.49-19.08,9.54-4.29,4.07-22.73,4.77-23.85,15.04-24.18,23.37,13.3,39.75,1.59-10.45,32.47,10.59-2.58,20.67,11.13,16.85,22.9-11.46,10.4-17.49,20.67-8.36-27.45-38.61-9.89-39.75-1.59-.14,1,8.37,14.05,6.36,19.08-3.56,8.91-20.11,2.51-25.44,4.77Z"/>
        <path class="cls-23" d="M496.23,852.39c-11.76-.21-8.56-27.37-6.36-31.8,12.19-24.5,54.1-8.93,6.36,31.8Z"/>
        <path class="cls-28" d="M957.37,95.49c-29.25,3.04-56.27,9.25-82.69,22.26,14.85-26.27,65.02-40.29,82.69-22.26Z"/>
        <path class="cls-19" d="M865.14,117.75c-4.11,4.63-14.05,13.55-15.9,15.9-9.94,1.61-18.07-12.18-19.08-12.72q7.95-9.54,15.9-19.08c6.41,6.16,21.98-1.26,19.08,15.9Z"/>
        <path class="cls-17" d="M874.68,343.55c-9.93,4.2-28.27,15.54-41.34,22.26q-1.59-4.77-3.18-9.54c11.43-1.3,29.65-16.73,38.16-25.44,3.4,2.93,19.39-7.66,6.36,12.72Z"/>
        <path class="cls-15" d="M486.69,814.23c-.36,1.94.42,4.49,0,6.36-4.17,18.58-18.87,36.33-15.9,57.24-3.06.59,8.49,9.5-9.54,6.36,5.14-19.96,9.4-40.9,15.9-60.43.99-2.96-.77-10.06,9.54-9.54Z"/>
        <path class="cls-20" d="M594.82,877.83c-4.86,14.11-12.44,26.8-25.44,34.98-.13-.43-8.04,2.59-6.36-6.36,3-6.12,2.82-8.52,3.18-9.54q14.31-9.54,28.62-19.08Z"/>
        <path class="cls-23" d="M690.23,861.93c-22.38-3.04-13.36-2.7-9.54-15.9,10.63.2,12.32,7.72,9.54,15.9Z"/>
        <path class="cls-33" d="M588.46,89.13c13.26,12.66,2.02,21.44,0,34.98-.81,5.43-2.18,9.86-3.18,15.9-1.01,6.06,3.9,6.81,3.18,11.13-11.16,7.51-10.82,32.18-9.54,46.11-6.69,7.22-7.53,27.87-12.72,23.85q3.18-59.63,6.36-119.26c.47-.72-2.04-2.44,6.36-15.9,5.27-1.51,6.51,3.19,9.54,3.18Z"/>
        <path class="cls-38" d="M594.82,190.9c-.64.57-15.29,5.71-15.9,6.36-1.28-13.93-1.62-38.6,9.54-46.11.72-4.32-4.19-5.07-3.18-11.13,17.43-17.84-3.85,29.56,30.21,3.18,20.13,33.95-7,35.47-20.67,47.7Z"/>
        <path class="cls-19" d="M642.52,241.78c-2.54-3.92-2.51-5.4-3.18-9.54,17.86-13.6,30.76-38.62,44.52-54.06,13.13-14.74,32.38-31.98,47.7-44.52-.87,4.18,6.9,2.84,6.36,4.77-3.55,12.8-81.63,87.02-95.41,103.36Z"/>
        <path class="cls-38" d="M585.28,66.87c-.45.9,2.87,4.28-6.36,19.08-8.4,13.46-5.89,15.18-6.36,15.9-.43.67-9.01,12.13-9.54,12.72-12.46,13.9-17.93,13.86-22.26-6.36-4.82-22.51,4.11-27.27,19.08-34.98,1.17-.6,22.2-6.91,25.44-6.36Z"/>
        <path class="cls-35" d="M588.46,124.11c2.02-13.54,13.26-22.32,0-34.98,8.03-.02,16.58-6.53,17.49-6.36,22.61,4.28,1.42,36.11-17.49,41.34Z"/>
        <path class="cls-35" d="M585.28,66.87c-3.24-.55-24.28,5.76-25.44,6.36,1.66-15.6,38.44-1.63,33.39-54.06,30.38,17.95-2.05,35.91-7.95,47.7Z"/>
        <path class="cls-39" d="M76.44,2188.1q-1.59-1.59-3.18-3.18c3.64,2.16,2.16,2.45,3.18,3.18Z"/>
        <path class="cls-36" d="M68.49,852.39c20.47-10.32,20.15,45.38,0,54.06-28.75,12.39-3.26-52.42,0-54.06Z"/>
        <path class="cls-17" d="M257.71,2162.66l-1.59,6.36c-9.27-12.51-15.65-8.82-17.49-9.54-.33-.13-1.23-.95-6.36-3.18,3.96-20.19,9.43-1.46,25.44,6.36Z"/>
        <path class="cls-22" d="M232.27,2175.38c-.2-.39-7.33,2.24-6.36-4.77.12-.87,11.67-12.13,12.72-11.13,3.52,3.35-8.7,10.88-6.36,15.9Z"/>
        <path class="cls-36" d="M795.18,162.27c-6.29,11.51-13.11,23.4-19.08,34.98-26.02,17.21-21.9,6.7-44.52-4.77-8.9-19.77,42.52-45.81,63.61-30.21Z"/>
        <path class="cls-38" d="M594.82,324.47c36.38,1.43,10.98,33.95,1.59,34.98-6.32.69-2.88-8.17-23.85-6.36-1.47-5.31,3.25-7.53,3.18-7.95-.34-2.12-5.01-3.71-6.36-4.77,13.22-9.75,5.26-28.03,9.54-44.52,20.48-17.07-.24,36.64,15.9,28.62Z"/>
        <path class="cls-32" d="M372.2,1602.93c1.1,1.45,5.06,4.85,6.36,6.36.29.34,1.53,5.84,6.36,6.36-.41,1.05,4.32,1.6-3.18,22.26-20.83-27.24-26.19,1.49-34.98,9.54q-6.36-4.77-12.72-9.54c3.86-6.13,17.31-29.18,14.31-34.98-9.26-17.93-33,17.22-39.75,12.72.54-3.03-.48-6.48,0-9.54.36-2.29-4.43-3.62-3.18-11.13,1.2-7.27,20.65-.2,3.18-20.67,5.49-8.71,10.53-8.76-1.59-22.26-4.4,26.48-15.81,9.29-4.77-9.54,3.56-6.08,5.62-12.16,14.31-12.72,13.64,76.65,32.91,46.32,44.52,54.06.92.61-1.03,3.1,11.13,19.08Z"/>
        <path class="cls-24" d="M334.04,1284.91c5.32,2.56-.07,10.68,19.08,0,1.03,10.93-2.32,21.03-3.18,31.8-1.51,18.98,6.08,37.58-12.72,34.98,2.1-19.13-2.94-16.3-12.72-22.26-27.22-16.59-15.04,15.67-41.34,27.03-.8,1.6,11.28,30.54,12.72,33.39-3.6,6.87-6.48,10.74-6.36,19.08-31.83,4.56-5.95-50.23-9.54-55.65-.85-1.28-23.57-1.86-22.26-15.9,1.6-17.25,7.09,16.46,20.67,7.95,5.73-3.59,13.23-27.45,14.31-28.62,18.14-19.67,22.85-9.16,38.16,4.77,2.19-36.24-7.84-34.61-19.08-42.93-.52-19.55,4.98-1.98,22.26,6.36Z"/>
        <path class="cls-21" d="M222.73,1300.81c1.2,1.23,17.49,25.75,19.08,28.62,1.84,3.32,27.52,68.38,25.44,71.56-11.67,17.78-28.74-20.96-31.8-27.03-4.03-8-5.9-19.58-12.72-31.8-9.16-16.41-8.87-13.02-15.9-22.26-1.27-1.67-8.76-18.35-9.54-19.08,3.28-22.61,14.13-11.56,25.44,0Z"/>
        <path class="cls-16" d="M267.25,1415.3c-1.15,4.03-3.52,6.46-6.36,9.54-22.45-22.24-49.09,19.17-41.34-1.59,3.3-8.85,33.03-14.31,47.7-7.95Z"/>
        <path class="cls-29" d="M281.56,1548.87c4.28-4.83,19.2,31.87,9.54,31.8q-4.77-15.9-9.54-31.8Z"/>
        <path class="cls-7" d="M224.32,1399.4c4.1,3.54.11,6.82-3.18,9.54-12.09,10.01-30.6,9.7,3.18-9.54Z"/>
        <path class="cls-23" d="M438.99,985.96c-5.01,11.32-5.84,25.74-15.9,34.98-21.86-77.77-39.04,65.05,0,12.72.02.4,6.65,2.76,6.36,4.77-.81,5.58-32.75,41.2-38.16,52.47-17.66,2.18-20.3-3.35-25.44-19.08,22.2-5.71,14.5-7.72,12.72-31.8,17.31,5.57,20.31-31.49,19.08-33.39-2.9-4.5-15.51,2.85-22.26-6.36-1.52-2.07-3.53-41.03,19.08-38.16-3-39.98,25.49-13.77,30.21-14.31,2.24-.26,31.2-32.92,20.67,7.95-1.3,5.03-14.43-1.58-6.36,30.21Z"/>
        <path class="cls-17" d="M470.79,922.36c.37,2.92,3.29,15.1,3.18,15.9-.29,2.1-8.87,39.33-9.54,41.34-2.25,6.76-14.53,22.98-22.26,41.34-3.68,8.74-7.36,19.43-9.54,28.62-.9,3.78-3.43,2.61,0,12.72-15.3-1.13-27.94,50.4-28.62,60.43-4.35,2.39-5.22,3.63-9.54,0-9.79-8.24-4.52-8.13-9.54-12.72,3.96-5.58,4.19-14.55,6.36-19.08,5.41-11.27,37.36-46.89,38.16-52.47.29-2.01-6.34-4.37-6.36-4.77-.27-4.33.78-9.95,0-12.72,10.06-9.25,10.89-23.67,15.9-34.98,7.37-16.63,19.62-30.82,19.08-50.88,7.19-14.41,11.35-11.26,12.72-12.72Z"/>
        <path class="cls-23" d="M384.92,1109.99c5.02,4.59-.25,4.48,9.54,12.72-4.1,12.07-11.6,23.02-15.9,34.98-.13.36-5.45-1.21-6.36,1.59-.57,3.42.86,8.16,0,11.13-27.08,18.27-21.92,3.03-30.21,0-19.86-7.27-2.93,13.95-17.49-11.13,28.47-7.28,9.62-12.95,9.54-14.31-.72-12.04-3.36-16.62-3.18-17.49.23-1.13,9.7-8.95,12.72-14.31,4.77-8.46,9.24-17.12,14.31-25.44,27.31,34.2,25.54,20.9,27.03,22.26Z"/>
        <path class="cls-32" d="M343.58,1113.17c-3.03,5.36-12.49,13.18-12.72,14.31-.18.87,2.47,5.45,3.18,17.49l-25.44-3.18c.58-2.92.78-6.46-3.18-6.36.67-2.14,3.41-40.27,11.13-41.34,1.64-.23,21.05,19.72,27.03,19.08Z"/>
        <path class="cls-19" d="M308.6,1141.8c-4.24,21.26-20.41,66.21-28.62,89.05-3.05.64-5.18,4.73-12.72,3.18q-1.59-36.57-3.18-73.15c6.79,14.36,3.25,40.96,11.13,57.24,4.3.95,27.93-75.43,30.21-82.69,3.97-.1,3.76,3.44,3.18,6.36Z"/>
        <path class="cls-38" d="M359.48,1043.21q4.77,6.36,9.54,12.72c-3.03,4.2-17.16,9.93-15.9,19.08-4.22,6.14-13.31-13.34-12.72-14.31,2.09-3.44,10.6-.57,11.13-1.59,4.1-7.85-11.07-15,7.95-15.9Z"/>
        <path class="cls-23" d="M369.02,1043.21c.67,2.83,10.96-2.44,0,12.72q-4.77-6.36-9.54-12.72c3.17-.15,6.37.09,9.54,0Z"/>
        <path class="cls-23" d="M308.6,1606.11c-.48,3.06.54,6.51,0,9.54-2.12,11.77-5.9,24.18-11.13,34.98,50.42-38.86,16.57,19.05,36.57-12.72q6.36,4.77,12.72,9.54c-32.21,29.48-33.77-10.1-49.29,60.43-43.87-47-26.98,17.85-30.21,28.62-2.89,9.65-29.89,28.01-39.75,28.62-22.89,1.42-10.55-34.98-19.08-34.98-7.88,13.14-7.48,30.55-4.77,44.52.64,3.62-1.25,6.84-3.18,9.54-10.87-31.93-11.2-97.59-31.8-92.23-12.52,4.34-5.72-.7-15.9-3.18-3.85-2.57,18.67-31.53,20.67-31.8,11.11-1.52,4.72,19.62,30.21,12.72,4.53-1.22,5.45,10.74,6.36-9.54q7.95-1.59,15.9-3.18c.19,1.06,14.6,6.89,12.72,17.49q-12.72,22.26-25.44,44.52c29.36,58.81,34.34,11.38,34.98-39.75,21.59,1.17,13.12-19.36-6.36-25.44-1.91-10.32,5.52-19.06,6.36-28.62,40.25-13.29,34.5,2.77,36.57,3.18,12.07,2.37-.84-24.51,23.85-22.26Z"/>
        <path class="cls-24" d="M187.75,1501.17c-4.32,5.57-2.1,10.04,0,15.9-26.7,6.35-20.04,27.92-22.26,30.21-3.12,3.22-8.14.66-9.54,1.59-4.11-8.31.88-6.24,0-12.72-3.37-24.97,3.29-17.96,3.18-19.08,29.13.17,14.98-9.88,28.62-15.9Z"/>
        <path class="cls-6" d="M248.17,1679.26c.13-10.24-2.75-11.04-9.54-17.49q1.59-3.98,3.18-7.95c19.48,6.09,27.95,26.61,6.36,25.44Z"/>
        <path class="cls-21" d="M254.53,1844.63c-10.53,2.19-19.41,6.43-25.44,15.9-16.94,26.6,2.93,118.82,0,157.42h-6.36c-2.18-47.67-18.58-2.7-20.67-1.59-2.04,1.08-28.59-16.09-33.39,19.08-.14,1.04.13,2.14,0,3.18-19.04-26.96,8.76-41,0-47.7,9.93-1.25,19.24,3.04,25.44-4.77-5.05-15.53-9.46-10.4-9.54-11.13-3.13-29.32,3.69-82.2,0-104.95,27.56-4.51,11.86-13.7,28.62-23.85,2.39-14.72-6-10.6-6.36-11.13-5.51-8.14-10.89-8.79-12.72-19.08,13.36-3.83,19.93,11.52,27.03,12.72,13.11,2.22,29.71-8.76,39.75-12.72,23.98-9.46-13.07,8.66-6.36,28.62Z"/>
        <path class="cls-32" d="M165.48,2051.35c-.43-3.19.72-7.72,0-9.54,2.75.34,2.89-.8,3.18-3.18.13-1.04-.14-2.14,0-3.18,17.19,3.86,33.55,51.72,14.31,41.34-12.45-6.71-13.77-20.82-17.49-25.44Z"/>
        <path class="cls-23" d="M334.04,1246.74c.34.37-.58,4.58,3.18,9.54-7,.94-1.06,13.65-33.39-6.36,21.81,28.65-.78,15.8-20.67,9.54-3.47-14.66,1.25-15.67-15.9-25.44,7.54,1.55,9.67-2.54,12.72-3.18,28.81-6.04,19.1-21.4,54.06,15.9Z"/>
        <path class="cls-38" d="M337.22,1256.28c3.12-.42,1.21,4.4,9.54,0q-6.36,14.31-12.72,28.62c-17.28-8.34-22.78-25.91-22.26-6.36-5.93-4.39-32.23-11.37-33.39-12.72-6.32-7.34,4.86-5.97,4.77-6.36,19.89,6.26,42.48,19.11,20.67-9.54,32.34,20.01,26.39,7.3,33.39,6.36Z"/>
        <path class="cls-36" d="M200.47,1784.21c-14.2,19.93-29.94,4.98-31.8,7.95-.13,18.43-3.39,28.23,19.08,39.75,5.02,2.57,13.61.9,19.08,3.18.36.53,8.75-3.59,6.36,11.13-16.76,10.15-1.06,19.35-28.62,23.85-5.46-33.72-55.49-68.01-6.36-106.54-8.53-6.37-10.26-3.01-19.08,4.77-4.56-3.43-8.3-14.12-9.54-19.08-.25-1.01-3.6-19.71-3.18-20.67,2.82-6.49,11.44-3.65,12.72-6.36,1.71-3.62-4.35-5.99-3.18-7.95,7.59-12.73,23.41-15.5,12.72-22.26,20.61-5.36,20.93,60.29,31.8,92.23Z"/>
        <path class="cls-13" d="M159.12,1768.31c-.27.24-2.86,6.06-3.18,6.36-11.27-13.92-4.92-19.68-22.26-7.95q6.36-8.75,12.72-17.49h3.18c1.24,4.97,4.98,15.65,9.54,19.08Z"/>
        <path class="cls-5" d="M612.31,238.6c9.34,3.27-17.01,38.37-9.54,12.72.23-.8,8.75-13,9.54-12.72Z"/>
        <path class="cls-11" d="M155.94,1536.15c.88,6.48-4.11,4.41,0,12.72-7.67,5.09-17.04,13.13-25.44,6.36,1.59-17.49,5.96-16.06,6.36-19.08,7.39-4.13,11.7-4.95,19.08,0Z"/>
        <path class="cls-36" d="M483.51,1132.25c-28.52,19.63-32.36,9.4-25.44,38.16,1.94,8.06,13.18,9.22-25.44,28.62-8.53,4.28-12.39-5.93-31.8,12.72-5.42,5.2-24.09,18.5-6.36,25.44-9.24,19.77-24.05,34.65,9.54,22.26-2.61,11.21-5.01,4.7-12.72,14.31-1.16,1.45,10.98,1.04-17.49,23.85q-10.34-6.36-20.67-12.72c-19.15,10.68-13.77,2.56-19.08,0q6.36-14.31,12.72-28.62c28.83-15.24-5.02-20.7-6.36-22.26-26.62-31.02-4.01-37.33,22.26-15.9,3.1,37.68,11.86,15.81,19.08-25.44,46.66-.63,36.83-12.37,42.93-15.9.57-.33,7.36,6.73,12.72,3.18,7.55-4.99-5.61-11.49-7.95-22.26,13.7-5.52,38.48-22.57,41.34-34.98,4.62,1,13.4,2.66,12.72,9.54Z"/>
        <path class="cls-38" d="M486.69,998.68c-19.63,45.69,25.37,13.29-25.44,38.16-4.26-4.71,16.9-33.78,23.85-47.7,3.05.83.99,9.27,1.59,9.54Z"/>
        <path class="cls-2" d="M521.67,970.06c-6.07.45-10.28-1.18-15.9,3.18-2.52-4.23-9.75-5.58-9.54-7.95.71-8.07,27.84-4.52,25.44,4.77Z"/>
        <path class="cls-38" d="M472.38,1043.21c4.33,1.71-.61,8.66-3.18,9.54-21.14,7.28-2.87-11.94,3.18-9.54Z"/>
        <path class="cls-36" d="M481.92,1036.85c14.47-2.91,6.74,11.79-3.18,6.36-3.05-1.67,2.28-6.18,3.18-6.36Z"/>
        <path class="cls-37" d="M543.94,916c-.44.39-4.66,2.69-6.36,3.18-40.08-33.68-11-31.49-6.36-27.03,1.11,1.06-8.65,3.29,12.72,23.85Z"/>
        <path class="cls-1" d="M553.48,916c-.37.61.54,5.04-6.36,12.72-9.59-4.53-6-6.57-9.54-9.54,1.7-.49,5.92-2.79,6.36-3.18,5.26-4.72,8.22-12.82,9.54,0Z"/>
        <path class="cls-2" d="M499.41,919.18q-3.18-6.36-6.36-12.72c23.66-12.98,6.85,11.2,6.36,12.72Z"/>
        <path class="cls-17" d="M454.89,1507.53c-.92,5.73-5.05,10.16,0,15.9-11.04,12.31-18.39,26.54-25.44,41.34-.19.41-3.52.13-6.36,6.36-13.93,30.57-19.19,43.73-28.62,76.33-5.36,18.51-29.38,52.61-3.18,57.24-27.77,9.62-36.27,8.78-54.06,31.8-10.32,13.35-16.37,30.1-25.44,44.52-5.86,9.31-12.97,19.08-19.08,28.62.49-14.29-20.06-1.15-9.54-22.26,11.71-4.29,21.72-37.91,34.98-58.83,4.08-6.44,18.15-16.13,19.08-17.49.13-.19.72.39,3.18-3.18,33.98-5.99,31.93-44.04,41.34-69.97,7.5-20.67,2.77-21.21,3.18-22.26,14.76-37.61,40.11-71.88,60.43-106.54q4.77-25.44,9.54-50.88c-1.75,18.17.39,46.86,0,49.29Z"/>
        <path class="cls-36" d="M267.25,1736.5c37.01-8.2-26.47,47.67,15.9,50.88-10.52,21.11,10.03,7.97,9.54,22.26-.94,1.47-2.01,12.45-6.36,19.08-9.08,13.83-25.4,34.96-31.8,15.9-6.71-19.96,30.34-38.08,6.36-28.62-12.33-27.04,8.87-23.21-9.54-31.8-12.51-5.84-17.88,1.33-30.21-3.18l-7.95,11.13q3.18.8,6.36,1.59c-.46,2.37-2.08,4.2-3.18,6.36-15.98,3.57-6.8-12.65-3.18-30.21q-4.77,2.39-9.54,4.77c-2.71-13.97-3.11-31.38,4.77-44.52,8.53,0-3.81,36.4,19.08,34.98,9.86-.61,36.86-18.98,39.75-28.62Z"/>
        <path class="cls-23" d="M451.71,1660.18c3.69,2.41,4.56,5.88,6.36,9.54-5.42,1.28-14.87-.79-9.54,14.31,4.18,11.84,61.06-17.4-4.77,27.03h-14.31c-2.9-69.22-2.29-35.72-6.36-27.03-3.8,8.12-14.19-2.4-15.9,3.18-.23.75,8.85,6.5,6.36,9.54-4.14,5.05-21.45-3.87-19.08,7.95-1.03-.18-2.15.18-3.18,0-26.2-4.63-2.18-38.74,3.18-57.24,12.95,3.63,8.93-12,17.49-12.72,2.98-.25,33.03,21.05,39.75,25.44Z"/>
        <path class="cls-23" d="M512.13,1453.46c6.07,16.19-8.32,25.93-3.18,33.39.98,1.42,31.08,4.49,15.9,22.26-8.05,9.42-18.94,2.02-23.85,4.77-9.59,5.36,6.71,24.56-46.11,9.54-5.05-5.74-.92-10.17,0-15.9,13.76-7.19,40.96-97.5,57.24-54.06Z"/>
        <path class="cls-23" d="M349.94,1781.03c2.24,44.66-22.51,19.25-31.8,33.39-6.83,10.4,11.27,36.65-31.8,14.31,4.35-6.63,5.42-17.61,6.36-19.08,6.11-9.54,13.23-19.31,19.08-28.62,22.73,39.48,27.06-5.92,38.16,0Z"/>
        <path class="cls-32" d="M489.87,1660.18c39.14-18.85,56.99-59.78,63.61-36.57,10.18,35.71-56.37,43.54-71.56,62.02q3.98-12.72,7.95-25.44Z"/>
        <path class="cls-23" d="M493.05,1615.65c14.94,6.37-11.53,8.96,3.18,31.8-2.69,4.04-7.02,7.26-6.36,12.72-38.88,18.73-30.06,9.13-31.8,9.54-1.8-3.66-2.67-7.13-6.36-9.54,4.55-23.42,24.4-31.99,41.34-44.52Z"/>
        <path class="cls-32" d="M349.94,1781.03c-11.11-5.92-15.44,39.48-38.16,0,9.07-14.43,15.12-31.17,25.44-44.52,10.35,10.43,11.94,29.03,12.72,44.52Z"/>
        <path class="cls-32" d="M423.09,1571.13c2.84-6.23,6.17-5.95,6.36-6.36,17.86,9.12,18.52-16.26,31.8-1.59,2.02,5.13-31.33,66.64-41.34,44.52-5.68-12.55,22.14-33.11,3.18-36.57Z"/>
        <path class="cls-31" d="M496.23,1647.46c-14.71-22.85,11.76-25.43-3.18-31.8.96-.71,5.3-16.75,14.31-19.08,54.63-14.14-5.04,41.72-11.13,50.88Z"/>
        <path class="cls-36" d="M389.69,1714.24c45.68-9.63-33.77,60.6-17.49,14.31.37-1.07,16.39-14.08,17.49-14.31Z"/>
        <path class="cls-5" d="M429.45,1711.06c-20.93-17.7-33.1-6.04-34.98-6.36-2.37-11.82,14.94-2.9,19.08-7.95,2.49-3.04-6.59-8.79-6.36-9.54,1.71-5.58,12.1,4.94,15.9-3.18,4.07-8.69,3.46-42.18,6.36,27.03Z"/>
        <path class="cls-23" d="M394.46,1335.79c27.93,26.09,8.87,27.24-19.08,31.8-15.37-50.37,6.14-22.06-38.16,4.77,32.13-11.74,20.91-1.48,22.26-1.59.36,50.4-18.2,19.28-41.34,50.88-1.36-1.39-21.39-30.07-22.26-31.8-1.44-2.86-13.52-31.79-12.72-33.39,26.3-11.36,14.12-43.63,41.34-27.03-1.48,7.65,2.8,20.89,12.72,22.26,18.8,2.6,11.21-16,12.72-34.98,36.45-8.66,17.83,10.03,60.43-28.62-8.16,55.34-32.42,32.28-15.9,47.7Z"/>
        <path class="cls-36" d="M480.33,1221.3c-6.45,7.74-52.47,70.41-54.06,74.74-.22.59,6.54,5.71,6.36,6.36-.48,1.74-7.13,1.98-9.54,27.03-2.85.34-10.24-5.44-28.62,6.36-16.52-15.43,7.75,7.64,15.9-47.7,23.34-21.18,56.29-44.08-3.18-38.16.06-.86-13.09-2.78,1.59-9.54,29.9-3.41,46.25-.45,71.56-19.08Z"/>
        <path class="cls-38" d="M375.38,1367.59c-8.59,1.4-15.09,3.11-15.9,3.18-1.35.11,9.87-10.15-22.26,1.59,44.3-26.83,22.79-55.14,38.16-4.77Z"/>
        <path class="cls-14" d="M378.56,1609.29c-1.3-1.51-5.26-4.91-6.36-6.36q6.36-29.42,12.72-58.83-3.18,32.6-6.36,65.2Z"/>
        <path class="cls-36" d="M334.04,1637.92c-20,31.77,13.84-26.14-36.57,12.72,5.23-10.81,9.01-23.21,11.13-34.98,6.75,4.5,30.5-30.66,39.75-12.72,3,5.81-10.45,28.86-14.31,34.98Z"/>
        <path class="cls-35" d="M396.05,1059.11c17.32-3.42,11.39,9.18-6.36,6.36-3.96-1.15,5.92-6.27,6.36-6.36Z"/>
        <path class="cls-23" d="M404,1122.71c-.21,3.09,26.58,31.36-15.9,47.7.05-7.31.13-13.01-9.54-12.72,4.3-11.96,11.81-22.91,15.9-34.98,4.32,3.63,5.19,2.39,9.54,0Z"/>
        <path class="cls-17" d="M378.56,1157.7c9.67-.29,9.59,5.42,9.54,12.72-.01,1.72-5.45,17.06-6.36,22.26-7.23,41.25-15.98,63.13-19.08,25.44-.47-5.71,6.66-37.75,9.54-47.7.86-2.97-.57-7.71,0-11.13.91-2.8,6.23-1.23,6.36-1.59Z"/>
        <path class="cls-35" d="M364.25,1148.16c2.7,1.18,3.96,9.69-3.18,9.54-2.31-.05,2.62-9.78,3.18-9.54Z"/>
        <path class="cls-5" d="M361.07,1116.35c.56-.24,5.49,9.49,3.18,9.54-7.15.15-5.88-8.36-3.18-9.54Z"/>
        <path class="cls-13" d="M216.37,1800.11c-11.62,22.76-6.27-8.56-25.44,3.18-.6.37-5.24-1.61-9.54,4.77q3.18,11.93,6.36,23.85c-22.47-11.52-19.21-21.33-19.08-39.75,1.86-2.97,17.6,11.98,31.8-7.95,1.93-2.7,3.82-5.92,3.18-9.54q4.77-2.39,9.54-4.77c-3.62,17.56-12.8,33.78,3.18,30.21Z"/>
        <path class="cls-23" d="M251.35,1784.21c18.41,8.6-2.79,4.76,9.54,31.8-10.04,3.96-26.65,14.94-39.75,12.72-7.1-1.2-13.67-16.56-27.03-12.72-.8-4.47.88-7.7-3.18-12.72,19.17-11.74,13.82,19.58,25.44-3.18,1.1-2.16,2.72-3.99,3.18-6.36q15.9-4.77,31.8-9.54Z"/>
        <path class="cls-32" d="M190.93,1803.29c4.06,5.02,2.39,8.25,3.18,12.72,1.83,10.29,7.21,10.94,12.72,19.08-5.47-2.28-14.06-.61-19.08-3.18q-3.18-11.93-6.36-23.85c4.3-6.38,8.94-4.4,9.54-4.77Z"/>
        <path class="cls-8" d="M346.76,1256.28c-8.33,4.4-6.42-.42-9.54,0-3.76-4.96-2.84-9.17-3.18-9.54l6.36-12.72c1.34,1.56,35.19,7.02,6.36,22.26Z"/>
        <path class="cls-33" d="M483.51,1132.25c-1.55,15.65-21.52,11.36,3.18,23.85-21.32.79-9.99,15.18-28.62,14.31-6.91-28.77-3.07-18.53,25.44-38.16Z"/>
        <path class="cls-35" d="M523.26,1148.16c4.05,2.87,1.71,13.97-3.18,6.36-2.02-3.14,2.81-6.62,3.18-6.36Z"/>
        <path class="cls-2" d="M400.82,1211.76c7.38,13.38-5.76,24.15-6.36,25.44-17.73-6.95.95-20.24,6.36-25.44Z"/>
        <path class="cls-12" d="M340.4,1707.88c-2.46,3.57-3.05,2.99-3.18,3.18-10.03-67.24,39.86-56.5,3.18-3.18Z"/>
        <path class="cls-27" d="M251.35,1784.21q-15.9,4.77-31.8,9.54-3.18-.8-6.36-1.59l7.95-11.13c12.33,4.51,17.7-2.66,30.21,3.18Z"/>
        <path class="cls-9" d="M399.23,1672.9q.8.8,1.59,1.59l1.59,1.59,1.59,1.59-1.59,1.59h-3.18q-.8-.8-1.59-1.59v-3.18l1.59-1.59Z"/>
      </g>
    </g>
  </g>
</svg>