<?xml version="1.0" encoding="UTF-8"?>
<svg id="Layer_2" data-name="Layer 2" xmlns="http://www.w3.org/2000/svg" xmlns:xlink="http://www.w3.org/1999/xlink" viewBox="300 100 2213.55 3200.28">
  <defs>
    <style>
      .cls-1 {
        clip-path: url(#clippath);
      }

      .cls-2 {
        fill: none;
      }

      .cls-2, .cls-3, .cls-4, .cls-5, .cls-6, .cls-7, .cls-8, .cls-9, .cls-10, .cls-11, .cls-12, .cls-13, .cls-14, .cls-15, .cls-16, .cls-17, .cls-18, .cls-19, .cls-20, .cls-21, .cls-22, .cls-23, .cls-24, .cls-25, .cls-26, .cls-27, .cls-28, .cls-29, .cls-30, .cls-31, .cls-32, .cls-33, .cls-34, .cls-35, .cls-36, .cls-37, .cls-38, .cls-39, .cls-40, .cls-41, .cls-42, .cls-43, .cls-44, .cls-45, .cls-46, .cls-47, .cls-48, .cls-49, .cls-50, .cls-51, .cls-52, .cls-53, .cls-54, .cls-55, .cls-56, .cls-57, .cls-58, .cls-59, .cls-60, .cls-61, .cls-62, .cls-63, .cls-64 {
        stroke-width: 0px;
      }

      .cls-3 {
        fill: url(#linear-gradient);
      }

      .cls-4 {
        fill: #f4b383;
      }

      .cls-5 {
        fill: #f8c4b6;
      }

      .cls-6 {
        fill: #f9ead0;
      }

      .cls-7 {
        fill: #4d3124;
      }

      .cls-8 {
        fill: #5f88ab;
      }

      .cls-9 {
        fill: #623b36;
      }

      .cls-10 {
        fill: #6097c3;
      }

      .cls-11 {
        fill: #4a1530;
      }

      .cls-12 {
        fill: #461e29;
      }

      .cls-13 {
        fill: #793d3f;
      }

      .cls-14 {
        fill: #5196bf;
      }

      .cls-15 {
        fill: #4c6572;
      }

      .cls-16 {
        fill: #7c4f52;
      }

      .cls-17 {
        fill: #26211d;
      }

      .cls-18 {
        fill: #7b6556;
      }

      .cls-19 {
        fill: #4e4634;
      }

      .cls-20 {
        fill: #7a96af;
      }

      .cls-21 {
        fill: #497d9c;
      }

      .cls-22 {
        fill: #644d56;
      }

      .cls-23 {
        fill: #5a95aa;
      }

      .cls-24 {
        fill: #5c2c4a;
      }

      .cls-25 {
        fill: #6f374c;
      }

      .cls-26 {
        fill: #463737;
      }

      .cls-27 {
        fill: #89a5b7;
      }

      .cls-28 {
        fill: #72365d;
      }

      .cls-29 {
        fill: #314355;
      }

      .cls-30 {
        fill: #3c241e;
      }

      .cls-31 {
        fill: #3d4250;
      }

      .cls-32 {
        fill: #3b6f9d;
      }

      .cls-33 {
        fill: #2e454b;
      }

      .cls-34 {
        fill: #176b95;
      }

      .cls-35 {
        fill: #3f2730;
      }

      .cls-36 {
        fill: #363f42;
      }

      .cls-37 {
        fill: #445154;
      }

      .cls-38 {
        fill: #0b202f;
      }

      .cls-39 {
        fill: #0b101d;
      }

      .cls-40 {
        fill: #222c36;
      }

      .cls-41 {
        fill: #1f7e90;
      }

      .cls-42 {
        fill: #24131f;
      }

      .cls-43 {
        fill: #c5829a;
      }

      .cls-44 {
        fill: #c3b7ad;
      }

      .cls-45 {
        fill: #cbcbd4;
      }

      .cls-46 {
        fill: #c3b191;
      }

      .cls-47 {
        fill: #c89bb5;
      }

      .cls-48 {
        fill: #e0a4a5;
      }

      .cls-49 {
        fill: #b1735b;
      }

      .cls-50 {
        fill: #afbec7;
      }

      .cls-51 {
        fill: #b3728d;
      }

      .cls-52 {
        fill: #bba1bc;
      }

      .cls-53 {
        fill: #a0a7ae;
      }

      .cls-54 {
        fill: #92516e;
      }

      .cls-55 {
        fill: #8fa4bf;
      }

      .cls-56 {
        fill: #914753;
      }

      .cls-57 {
        fill: #32142b;
      }

      .cls-58 {
        fill: #a05d81;
      }

      .cls-59 {
        fill: #85456e;
      }

      .cls-60 {
        fill: #e3a195;
      }

      .cls-61 {
        fill: #e9d1d7;
      }

      .cls-62 {
        fill: #f6b3aa;
      }

      .cls-63 {
        fill: #f5d9c5;
      }

      .cls-64 {
        fill: #67534d;
      }
    </style>
    <clipPath id="clippath">
      <rect class="cls-2" width="2213.55" height="3200.28"/>
    </clipPath>
    <linearGradient id="linear-gradient" x1="1746.38" y1="2868.08" x2="1475.09" y2="3069.93" gradientUnits="userSpaceOnUse">
      <stop offset="0" stop-color="#6995b1"/>
      <stop offset="1" stop-color="#5580a2"/>
    </linearGradient>
  </defs>
  <g id="woman">
    <g class="cls-1">
      <g>
        <g>
          <path class="cls-34" d="M1440.11,3185.07c4.32.79,10.98-.89,14.95,0-3.43,11.52-21.7,9.78-31.76,16.81-.27-.68-7.88-9.67-9.34-11.21,5.01-6.52,2.87-8.73,5.6-14.95,9.24,10.92,14.31,8.2,20.55,9.34Z"/>
          <path class="cls-62" d="M2277.08,3158.92c-8.37,8.64.23,21.66-3.74,31.76-42.31-5.93-32.95,8.54-54.18,13.08-27.61-37.29-8.2,4.5-48.57-24.29-1.57-1.12-8.55-8.82-11.21-11.21,3.07-23.12,13.12-12.84,36.43-20.55,13.73,2.12,21.65,39.95,28.96,17.75,2.44-7.41-1.8-13.82-5.6-19.62,9.29-14.14,17.44-3.48,22.42-3.74,8.1-.41,23.45-24.5,35.5,16.81Z"/>
          <path class="cls-56" d="M2219.17,3203.76q-.93,1.87-1.87,3.74c-8.45-3.99-20.16-8.73-28.02-13.08-6.84-3.79-12.43-8.52-18.68-13.08v-1.87c40.37,28.79,20.97-13,48.57,24.29Z"/>
          <path class="cls-51" d="M2392.92,3143.97c21.83,17.22,22.22,4.57,27.09,5.6,8.26,1.76-2.51,18.85,21.48,3.74-.03,16.81.03,33.63,0,50.44-8.98-.55-13-17.78-14.01-18.68-1.04-.92-9.98,2.1-12.14-2.8-1.73-3.9,1.2-19.85-6.54-21.48-11.1-2.35-2.54,21.86-4.67,28.96q18.68,10.74,37.36,21.48c0,3.74,0,7.47,0,11.21-21.09,11.56-46.4,48.27-58.85,9.34-2.06,62.78-23.37,26.96-26.16,28.02-2.54.97-13.27,29.72-16.81,31.76-5.56,3.2-15.71-1.52-21.48-1.87-.48-.03.63-5.26-9.34,1.87-6.65-42.02-23.37-21.91-43.9-33.63-9.34,7.54-20.48,12.69-30.83,18.68-.51.29-2.63,7.29-10.28,5.6-3.4-2.25-1.87-4.65-4.67-7.47-8.39-8.44-9.78-12.29-11.21-24.29-3.94-32.99,15.68-26.5,9.34-42.97q.93-1.87,1.87-3.74c21.23-4.53,11.87-19.01,54.18-13.08.58.08,4.29,7.01,10.28,5.6.58-.14,2.48-5.54,2.8-5.6,12.5-2.32,16.58,2.73,21.48,0,11.35-6.32-5.5-18.01,27.09-1.87,7.99,3.96,4.56,11.86,31.76-5.6,2.01,1.14,3.37,1.65,3.74,1.87,44.97,27.01,18.28,1.82,7.47,0-2.3-12.94,8.51-14.86,7.47-37.36,4.29-4.41,7.21-3.42,7.47-3.74Z"/>
          <g>
            <g>
              <g>
                <path class="cls-4" d="M1895.96,2264.03c-.14,4.97.18,9.98,0,14.95-.18,4.74.1,8.75,0,13.08-1.92,81.37,2.74,76.49,7.47,134.51,1.37,16.75,4.52,33.66,5.6,50.44.08,1.24-.07,2.5,0,3.74,1.26,21.16,2.58,42.28,1.87,63.52-.13,3.96-1.74,4.1-1.87,5.6-2.85-6.41-3.81-13.78-5.6-20.55,6.18-8.2-2.07-16.33-3.74-24.29,2.05.18,3.11,3.2,3.74.93,4.92-17.77-23.45-86.31-33.63-106.49q1.4-3.27,2.8-6.54c39.03-21.33,13.33-21.71,12.14-23.35-.49-.68,8.03-13.19,7.47-14.95-.64-2.01-7.85-1.28-16.81-12.14-.2-.24-3.04,1.01-5.6-2.8v-5.6c10.68-29.89,13.31-64.99,26.16-92.48-.15,7.47.21,14.96,0,22.42Z"/>
                <path class="cls-28" d="M1897.83,2234.14c-.45.68-1.29,6.24-1.87,7.47-12.84,27.49-15.47,62.59-26.16,92.48v5.6c2.57,3.81,5.41,2.56,5.6,2.8-.75,10.95-18.02,18.06-28.02,18.68-.12-11.06,2.98-102.99,3.74-108.36.62-4.43.76-8.18,4.67-11.21,21.22,11.48,30.58-2.78,34.56-5.6,2.31-1.64,4.59-2.32,7.47-1.87Z"/>
                <path class="cls-11" d="M1899.7,2505.03c-.19-.02.8-3.23-3.74,0-8.7-27.67-21.6-68.33-37.36-91.54.66-11.3-12.1-29.4-13.08-39.23-.07-.66,2.03,1.3,1.87-13.08,10-.62,27.27-7.73,28.02-18.68,8.96,10.86,16.17,10.13,16.81,12.14.56,1.76-7.96,14.27-7.47,14.95,1.18,1.64,26.88,2.02-12.14,23.35q-1.4,3.27-2.8,6.54c10.17,20.18,38.55,88.72,33.63,106.49-.63,2.27-1.69-.76-3.74-.93Z"/>
                <path class="cls-30" d="M1899.7,2505.03c1.67,7.95,9.92,16.09,3.74,24.29-2.17-8.17-4.94-16.23-7.47-24.29,4.53-3.23,3.55-.02,3.74,0Z"/>
              </g>
              <g>
                <path class="cls-24" d="M1649.36,2258.43c3.24,31.86,5.89,65.2,5.6,97.15-.16,17.27,1.91,19.52,1.87,20.55-.52,13.91-9.3,25.69-11.21,39.23-.53-.13-1.29,0-1.87,0-4.29.07-27.48,71.51-29.89,80.33q-10.28,2.8-20.55,5.6c.24-4.31-.44-8.81,0-13.08.58-5.6,1.09-11.24,1.87-16.81.17-1.24,1.31-1.69,1.87-5.6,2.7-18.89,7.01-36.86,9.34-56.05.7-5.75,1.32-11.03,1.87-16.81.04-.42,3.1,1.33,3.74-7.47,35.46-13.1,42.07,13.18,41.1-17.75-.97-30.93-21.66-30.93-41.1-12.14.38-36.09-3.16-69.06-9.34-104.62-.21-1.19-6.96-19.43,4.67-18.68,2.49.16,25,19.24,42.04,26.16Z"/>
                <path class="cls-11" d="M1611.99,2385.47c.11-1.49-.08-22.1,0-29.89,19.44-18.78,40.13-18.78,41.1,12.14.97,30.93-5.64,4.65-41.1,17.75Z"/>
                <path class="cls-11" d="M1613.86,2495.69c-3.51,12.85-7.97,26.23-5.6,39.23-3.76,8.17-7.03,16.26-11.21,24.29-11.63-33.2-4.14-50.78-3.74-57.92q10.28-2.8,20.55-5.6Z"/>
                <path class="cls-42" d="M1643.75,2415.36c-1.06,4.01-1.42,11.88-1.87,13.08-3.25,8.67-27.52,51.86-11.21,46.71-3.62,7.69-12.08,37.3-22.42,59.78-2.37-13.01,2.1-26.38,5.6-39.23,2.41-8.82,25.61-80.26,29.89-80.33Z"/>
              </g>
            </g>
            <g>
              <path class="cls-4" d="M1828.71,2082.81c14.03,46.44,9.95-3.57,49.51,22.42,10.76,7.07,14.43,15.85,15.88,28.02.64,5.38,4.03,5.06-1.87,14.95-3.09,5.18-5.35,3.48-5.6,3.74-6.93,1.67-12.29,6.42-18.68,9.34-2.76,1.26-13.38,2.57-14.95,7.47-1.58-.08-3.34.21-3.74,0,4.17-5.63,6.59-9.6,7.47-16.81,1.62-13.24,3.04-30.81-14.95-26.16-14.9-19.58-1.53,3.58-7.47,14.01h-3.74q-3.74-28.49-7.47-56.98h5.6Z"/>
              <path class="cls-18" d="M1886.62,2151.94c-2.21,2.27-8.26,8.5-9.34,9.34-1.58,1.21-8.96,1.58-9.34,1.87v-1.87c6.39-2.92,11.75-7.67,18.68-9.34Z"/>
            </g>
            <path class="cls-23" d="M1852.99,2168.75c1.86.09,3.74-.06,5.6,0-.88.71-9.41,17.58-14.95,16.81-.08-3.11.13-6.24,0-9.34.66-3.54,3.26-4.3,5.6-7.47.4.21,2.16-.08,3.74,0Z"/>
            <g>
              <path class="cls-28" d="M1658.79,2105.23c.84.13,1.79-.19,2.39,0,17.58,5.54,6.48,46.94,14.33,60.72-35.47-24.5,10.5,15.64-9.55,28.96-.57-.31-2.31-.17-11.94-5.6-30.1-17-26.4-33.24-34.46-16.98-3.71-2.13-15.89-1.27-16.18-1.32-5.22-7.75,3.34-29.84,5.27-37.74.32-1.31,5.5-10.31,7.16-12.14,1.81-1.99,24.67-15.53,26.27-15.88,1.8-.4,14.32-.38,16.72,0Z"/>
              <g>
                <path class="cls-39" d="M1800.68,1862.36c7.72,4.78,21.63,16.75,26.16,24.29,16.32,27.16,19.61,84.06-14.95,99.95,3.1,8.04,2.86,16.79,3.74,25.22q-4.67,7.94-9.34,15.88c10.21,15.96,13.87,36.43,16.81,55.11q3.74,28.49,7.47,56.98h3.74c5.94-10.43-7.43-33.59,7.47-14.01,8.51,11.18,9.62,11.75,14.95,26.16-.88,7.21-3.3,11.18-7.47,16.81-1.98-1.04,1.32-19.83-1.87-27.09-9.95-22.64-8.14,10.3-7.47,17.75-5.47,9.89-3.09,35.12-3.74,38.3-.32,1.59-13.62,27.67-11.21,29.89,4.56,4.21,11.61-5.45,7.47,10.28-.31.48.95,3.39-6.54,9.34-11.23-4.85-13.07,6.66-23.35,13.08-3.23-1.54,4.66-13.89,2.8-14.95-4.25-2.41-21.33,32.24-92.48,5.6-8.23-15-14.92-17.97-20.55-26.16-2.15-3.13-3.58-3.52-3.74-3.74-.71-.98-3.82-11.48-7.47-16.81-8.63-12.58-4.9-3.75-13.08-9.34,15.69-13.32-20.27-53.45,7.47-28.96-6.14-13.78,2.54-55.18-11.21-60.72,2.73-1.11,22.23-18.88,14.01-20.55-11.93.52-26.97-11.4-23.35,14.95-.39-.01-2.49,3.36-7.47,1.87-6.17-6.67-.79-18.98-3.74-28.96-.51-10.25,33.56-27.91,7.47-21.48.05-1.24-.11-2.51,0-3.74,1.4-15.12,64.14-49.19,48.57-86.87-2.25-5.44-21.12-13.66-28.02-30.83,10.94-1.46,9.64-5.83,9.34-15.88q-6.54,4.2-13.08,8.41c-1.3-18.93,18.91-36.62,9.34-40.17,29.16-9.29,59.28-42.31,86.87-34.56,14.98,7.72,20.17,4.87,36.43,14.95Z"/>
                <g>
                  <path class="cls-13" d="M1856.73,2151.94c-5.33-14.4-6.44-14.98-14.95-26.16,17.98-4.66,16.57,12.92,14.95,26.16Z"/>
                  <g>
                    <path class="cls-41" d="M1662.43,2105.23c-1.87-.38-11.67-.4-13.08,0-.34-1.07-1.73-3.58-1.87-3.74,4.98,1.5,7.09-1.88,7.47-1.87,4.27.12,7.64-.2,7.47,5.6Z"/>
                    <path class="cls-9" d="M1815.63,2013.69c1.81,15.7,7.23,44.37,11.21,59.78.89,3.46,1.4,7.78,1.87,9.34h-5.6c-2.95-18.69-6.6-39.15-16.81-55.11q4.67-7.94,9.34-15.88c.06.62-.07,1.25,0,1.87Z"/>
                    <path class="cls-12" d="M1843.65,2176.22c.13,3.1-.08,6.23,0,9.34.44,17.95-.86,36.59-11.21,52.31,4.14-15.72-2.91-6.06-7.47-10.28-2.41-2.23,10.89-28.3,11.21-29.89.65-3.18-1.73-28.41,3.74-38.3,1.63,18.09,3.7,15.95,3.74,16.81Z"/>
                    <path class="cls-47" d="M1747.44,1942.69c11.86,19.71,23.66,9.64,19.62,25.22-1.24,4.78-13.25,6.89-14.01,6.54-6.3-2.88-3.27-11.14-7.47-13.08-2.48-1.14-11.91,1.58-14.01-.93-2.16-2.58-.32-17.11,15.88-17.75Z"/>
                    <path class="cls-49" d="M1797.88,2041.71c8.51-6.33,9.4,38.46,12.14,56.98.5,3.36,6.8,21.05,7.47,28.02,3.51,36.41-7.05,3.06-5.6-14.95-8.2-5.81-16.91-67.9-14.01-70.06Z"/>
                    <g>
                      <path class="cls-47" d="M1671.77,1929.62c-1.2-2.97-3.65-6.23-3.74-7.47q6.54-4.2,13.08-8.41c.3,10.05,1.6,14.42-9.34,15.88Z"/>
                      <path class="cls-47" d="M1766.12,1901.59c11.61-1.16,16.68,23.36,9.34,26.16-1.31.5-24.64-10.87-25.22-12.14-2.43-5.37,14.78-13.9,15.88-14.01Z"/>
                    </g>
                    <path class="cls-47" d="M1664.3,2105.23c-.47-.19-1.21.13-1.87,0,.17-5.8-3.2-5.49-7.47-5.6-3.62-26.34,11.42-14.42,23.35-14.95,8.22,1.67-11.28,19.44-14.01,20.55Z"/>
                    <path class="cls-47" d="M1689.52,2080.94c5.26-1.01,21.51,3.04,25.22,8.41,0,2.27-18.77,10.97-21.48,10.28-1.23-.31-16-16.33-3.74-18.68Z"/>
                    <path class="cls-47" d="M1736.23,2099.63c24.51-4.47,13.53,23.74-3.74,18.68-10.31-3.02-5.68-16.97,3.74-18.68Z"/>
                    <path class="cls-16" d="M1849.26,2168.75c-2.35,3.17-4.94,3.93-5.6,7.47-.04-.86-2.11,1.28-3.74-16.81-.67-7.45-2.48-40.39,7.47-17.75,3.19,7.25-.11,26.05,1.87,27.09Z"/>
                    <path class="cls-47" d="M1794.14,1963.24c7.02-2.55,31.5,12.16,13.08,16.81-20.47,5.17-21.68-13.69-13.08-16.81Z"/>
                    <path class="cls-61" d="M1652.16,2066c1-.43,3.95-.31,4.67.93,3.61,6.24-22.49,6.77-4.67-.93Z"/>
                    <path class="cls-45" d="M1652.16,2079.07c3.08.31-1.7,7.55-2.8,4.67-.72-1.9,2.51-4.7,2.8-4.67Z"/>
                  </g>
                </g>
              </g>
            </g>
          </g>
          <g>
            <path class="cls-62" d="M2217.3,3207.49c6.34,16.46-13.28,9.98-9.34,42.97-27.92,20.94-18.97,1.01-50.44-8.41,9.68,9.02,29.57,17.05,31.76,28.96-1.35.23-8.33,10.72-25.22,7.47-10.26-1.97-6.9-11.62-27.09-13.08-.62-.04-1.25.04-1.87,0-3.33-9.44,2.36-17.29,5.6-24.29,19.38-2.08,7.24-6.38,7.47-9.34,1.84-23.46,15.19-6.48,16.81-14.01.25-1.15-5.38-11,.93-14.01,7.49-3.57,10.76,10.65,15.88,5.6,2-1.97,3.07-9.06,7.47-14.95,7.86,4.35,19.57,9.08,28.02,13.08Z"/>
            <path class="cls-8" d="M1671.77,3129.03c.19,3.61,2.08,11.44,3.74,14.01,10.17,15.76,41.95,7.97,44.84,15.88-5.06-.87-3.72,2.73-3.74,7.47-27.86-18.26-37.7,17.56-40.17,18.68-9.73,4.41-9.76-9.72-16.81-14.95-9.37-6.95-34.82-2.26-23.35-15.88,4.38-5.2,11.93-.4,19.62-6.54,6.94-5.54,4.25-9.82,4.67-10.28,9.48-10.22,10.74-7.88,11.21-8.41Z"/>
            <g>
              <path class="cls-34" d="M1912.78,3164.52c3.28,1.78,6.06,10.37,8.41,11.21,5.15,1.85,20.59-4.45,25.22,9.34-.15.14-1.36,3.06-1.87,3.74-1.22-.3-2.76-1.19-3.74-1.87-7.06-4.88-14.41-7.76-23.35-5.6-11.39,2.75-6.65,16.96.93,16.81-.09,21.2-18.79,8.14,4.67,37.36,31.95-10.85,60.07-.63,70.99-9.34,5.61,4.37-8.67,17.91-10.28,23.35,5.67,2.12,14.13,6.48,14.95,6.54,15.12,33.52-15.92,30.87-10.28,41.1,21.1-13.8,7.77,31.99,39.23,22.42,8.29-2.52,13.08-21.43,14.01-22.42,4.66-4.95,41.71-16.28,44.84-29.89,13.71,3.68,24-20.57,36.43,0,4.79.81,7.31-2.19,12.14-1.87.62.04,1.25-.04,1.87,0,3.95,16.2,13.25,30.86,24.29,42.97,4.91,5.39,7.41,10.09,14.95,13.08-25.68,8.92-49.75,21.9-76.6,28.02-12.48,2.85-24.39,6.23-37.36,5.6q-33.63-.93-67.26-1.87-2.34-1.87-4.67-3.74c-9.46-1.21-13.31,1.82-14.01,1.87-12.58.86-25.02,3.22-37.36,5.6-8.72,1.68-20.73,7.24-28.96,11.21-25.75-6.58-45.93.64-71.93,0-5.57-.14-11.28.4-16.81,0-7.67-.56-63.49-10.95-69.12-13.08-4.03-1.52-25.87-18.64-36.43-22.42-25.27.71-58.5-13.44-61.65-13.08-4.72.55-29.38,35.6-85.94-7.47-28.17,3.2-82.62-8.57-103.69-26.16-6.33-5.28-10.52-13.77-14.95-20.55,19.82-19.51,42.89-35.89,57.92-59.78,6.59.91,12.8,2.78,19.62,1.87,9.31,7.46,17.89,11.04,28.96,14.95-2.86,39.12,20.24,20.01,24.29,20.55q.93,3.74,1.87,7.47c-2.13,1.6-22.18,5.1-14.95,21.48,2.27,5.14,12.41,1.67,14.01,2.8.55.39,2.19,9.07,7.47,11.21,27.7,11.19,26.3-18.81,56.05-11.21,15.17-26.4,10.13-3.25,26.16-7.47,17.82-17.82,61.54,10.53,30.83-40.17,11.33-5.43,47.4-2.34,50.44-16.81,2.75-13.1-12.62-17.54-13.08-18.68-.45-1.13,13.21-14.9-6.54-15.88-1.37-.07-11.32,12.5-15.88-9.34.02-4.74-1.32-8.35,3.74-7.47.95,2.61-1.41,9.29.93,11.21,3.29,2.69,24.72-13.34,26.16-13.08.52.09,4.14,8.04,7.47,7.47,5.13-.87.06-15.97,22.42,0,4.4-27.33,9.34-15.62,17.75-22.42,20.35,36.24,25.27-5.41,40.17,20.55,49-16.24,8.5,11.85,54.18,22.42,16.15-14.33,5.97-30.02,23.35-20.55Z"/>
              <path class="cls-43" d="M1940.8,3186.94c-2.55,2.33-21.17,11.19-22.42,11.21-7.59.15-12.33-14.07-.93-16.81,8.94-2.15,16.29.72,23.35,5.6Z"/>
              <path class="cls-20" d="M1891.29,3200.02c14.83-4.89,11.59,15.2,7.47,16.81-5.24-6.26,7.64-7.47-7.47-16.81Z"/>
            </g>
            <path class="cls-8" d="M1671.77,3058.03c10.96,19.3-13.62,26.72-28.02,30.83,1.38-2.02,1.23-7.54-.93-8.41-12.02-4.81-10.3,12.08-33.63,9.34-1.32-1.13-1.43-11.08-.93-13.08.9-3.61,18.59-21,25.22-69.12,12.35,27.69,36.72,47.67,38.3,50.44Z"/>
            <g>
              <path class="cls-51" d="M1716.61,3065.51c-6.39,2.9-5.4,7.03-5.6,7.47-3.43-21.56-41.71,5.29-3.74,5.6-.09.14,2.44-.55,1.87,2.8-18.26,6.45-12.37,28.2-13.08,29.89-1.07,2.57-7.02-2.81-12.14-.93-2.11.77-10.12,16.42-12.14,18.68-.47.52-1.73-1.81-11.21,8.41-.42.45,2.27,4.74-4.67,10.28-7.69,6.14-15.24,1.34-19.62,6.54-11.47,13.62,13.98,8.93,23.35,15.88,7.05,5.23,7.08,19.35,16.81,14.95,2.47-1.12,12.31-36.94,40.17-18.68,4.56,21.84,14.51,9.27,15.88,9.34,19.75.98,6.09,14.75,6.54,15.88.45,1.14,15.83,5.58,13.08,18.68-3.04,14.47-39.11,11.39-50.44,16.81,30.71,50.7-13.01,22.35-30.83,40.17-16.02,4.22-10.99-18.92-26.16,7.47-29.75-7.6-28.35,22.4-56.05,11.21-5.29-2.14-6.92-10.82-7.47-11.21-1.6-1.13-11.74,2.34-14.01-2.8-7.23-16.38,12.82-19.89,14.95-21.48,5.42-4.07,5.07-6.54-1.87-7.47-4.05-.55-27.14,18.57-24.29-20.55,1,.35,6.04-2.17,17.75,9.34,16.35,4.92,25.47-1.42,29.89,5.6,1.5-.06,11.48-18.37,25.22-7.47,11.74,9.31,1.25,25.32,2.8,26.16,3.75,2.44,26.1-14.62,27.09-15.88,12.35-15.76-24.89,7.55-28.02-14.01,3.42-13.91,12.88-5.19,20.55-11.21,10.63,8.27,20.42,4.42,27.09,5.6.98.17,12.13,14.95,2.8-5.6,10.19-10.16-1.22-7.35-1.87-7.47-8.23-1.55-17.18,10.7-28.02,5.6,3.49-4.63-19.8,2.49-23.35,7.47-1.77-2.84-4.07-1.54-6.54-1.87-4.49-.6-17.47-7.2-21.48-11.21-5.21-.64-1.64,7.1-2.8,9.34-11.96,23.15-24.68.48-36.43-3.74-2.12-.76-21.64,11.29-24.29-14.95-36.5,13.26-44.27-3.1-46.71-3.74-10.44-2.74-26.11-7.44-34.56-9.34-3.97-.89-10.62.79-14.95,0-7.98-3.51-14.58-22.89-20.55-9.34-2.74,6.22-.6,8.43-5.6,14.95-17.03,22.17-45.97-13.05-46.71-15.88-4.93-18.93,17.13.32,13.08-19.62-2.86-14.09-13.17-11.2,24.29-2.8-7.58-9.91-20.15-2.39-22.42-14.01,23.32,1.4,22.02-8.82,9.34-9.34.16-.88,3.49-3.63,3.74-3.74,17.15-7.21,28.42,1.68,6.54-9.34-2.25-1.14,1.84-12.43-10.28,3.74-1.1-.7-6.07,1.89-22.42-11.21-.19-2.42,1.47-8.77,1.87-9.34,4.96-7.06,24.12-4.12,37.36-22.42,14.72,5.79,18.38-13.07,27.09-14.95,15.73-3.4,6.4,8.66,27.09,14.95-8.33,10.75,2.34,15.64,14.95,3.74.9,12.9-28.77,18.04-29.89,19.62-2.71,3.81,5.71,8.9,3.74,16.81-1.83,7.34-21.25,10.4-22.42,23.35-6.37,4.01-29.17,19.42-8.41,16.81,2.71-.34,10.55-7.34,11.21-7.47,9.44-1.92,25.33,12.87,6.54-13.08,3.76-2.12,21.99-15.18,23.35-14.95,5.94,1.02,3.13,12.78,7.47,14.95,27.53,13.73,7.56-39.87,18.68-42.97,10.58-2.94.84,22.1,16.81,16.81,2.21-.73,6.05-12.87,13.08-11.21,7.65,1.8-2.82,14.65,20.55,7.47,13.15-31.63,24.27-4.44,26.16-3.74,18.52,6.85-.95-16.72,20.55-16.81,8.9-8.12,4.36-18.36,23.35-9.34-.5,2-.39,11.95.93,13.08,23.33,2.74,21.61-14.15,33.63-9.34,2.17.87,2.31,6.39.93,8.41,14.41-4.11,38.99-11.53,28.02-30.83,5.75-5.26,35.84-11.54,41.1-4.67.39.5-.85,5.75,3.74,12.14Z"/>
              <g>
                <g>
                  <path class="cls-59" d="M1418.63,3093.53c1.77-.61,15.12-.26,15.88.93-14.4,8.61-3.64,11.61-3.74,13.08-.73,11.59-30.64-7.67-12.14-14.01Z"/>
                  <path class="cls-24" d="M1395.27,3125.29c-5.74,1.25-3.2-5.26-3.74-5.6,12.11-16.16,8.02-4.87,10.28-3.74,21.88,11.02,10.61,2.14-6.54,9.34Z"/>
                  <path class="cls-10" d="M1391.54,3129.03c12.68.52,13.98,10.74-9.34,9.34-.5-2.56,1.2-5.67-1.87-5.6.67-.23-4.46-4.38,11.21-3.74Z"/>
                  <path class="cls-11" d="M1477.48,3080.45c-12.6,11.9-23.28,7.01-14.95-3.74,7.9,2.4,14.29-5.71,14.95,3.74Z"/>
                  <path class="cls-57" d="M1390.6,3162.65c23.38,28-4.03,10.87-4.67,8.41-.39-1.48,3.55-8.41,4.67-8.41Z"/>
                </g>
                <g>
                  <path class="cls-42" d="M1597.04,3216.83c9.81-3.96,17.67,15.69,24.29,1.87,2.47.33,4.77-.97,6.54,1.87,3.55-4.99,26.84-12.11,23.35-7.47v1.87c-7.67,6.02-17.13-2.71-20.55,11.21-.37,1.49.92,3.84-1.87,3.74-13.74-10.9-23.73,7.42-25.22,7.47-4.42-7.02-13.54-.69-29.89-5.6-11.71-11.51-16.75-8.99-17.75-9.34-11.06-3.91-19.64-7.49-28.96-14.95-6.81.91-13.03-.96-19.62-1.87-23.97-3.3-61.16-5.28-82.2,5.6-3.78-9.96-1.69-8.9-1.87-9.34,10.06-7.04,28.33-5.29,31.76-16.81,8.45,1.9,24.13,6.6,34.56,9.34,2.43.64,10.2,16.99,46.71,3.74,2.64,26.23,22.17,14.19,24.29,14.95,11.75,4.22,24.47,26.88,36.43,3.74Z"/>
                  <path class="cls-42" d="M1438.24,3136.5c18.79,25.95,2.9,11.16-6.54,13.08-.66.13-8.5,7.13-11.21,7.47-20.77,2.61,2.03-12.81,8.41-16.81,5.46-3.43,8.9-3.49,9.34-3.74Z"/>
                  <path class="cls-25" d="M1644.68,3129.03c3.93-.6,9.44-.67,8.41,2.8-38.05,34.59-34.04,1.09-8.41-2.8Z"/>
                  <path class="cls-51" d="M1711.01,3072.98c-.96,2.12-2.51,3.61-3.74,5.6-37.97-.32.3-27.17,3.74-5.6Z"/>
                  <path class="cls-58" d="M1564.35,3110.34c9.81-5.33,16.53,10.65,11.21,16.81-6.93,8.02-14.52-15.02-11.21-16.81Z"/>
                  <path class="cls-24" d="M1663.37,3097.27c13.26.23-11.7,18.65-14.95,16.81-.21-6.23,9.24-16.92,14.95-16.81Z"/>
                  <path class="cls-54" d="M1523.25,3170.13c30.6-2.85,7.91,21.41-2.8,2.8l2.8-2.8Z"/>
                  <path class="cls-52" d="M1585.84,3188.81q-5.6,1.87-11.21,3.74c-13.39-9.62,7.69-21.93,11.21-3.74Z"/>
                  <path class="cls-42" d="M1440.11,3185.07c-6.24-1.14-11.31,1.57-20.55-9.34,5.97-13.55,12.57,5.83,20.55,9.34Z"/>
                  <path class="cls-24" d="M1564.35,3147.71c14.79-.53-19.04,13.47-19.62,12.14-5.42-12.52,17-5.25,19.62-12.14Z"/>
                  <path class="cls-24" d="M1583.03,3147.71c7.1,1.36-12.61,16.08-14.01,10.28-1.26-5.24,10.92-8.19,14.01-10.28Z"/>
                  <path class="cls-11" d="M1596.11,3175.73c.68-.13,12.2,5.2,12.14,6.54-.34,8.49-21.72-4.73-12.14-6.54Z"/>
                  <path class="cls-24" d="M1472.81,3157.05c10.97-1.42,12.87,6.85-8.41,6.54-1.55-2.91,7.27-6.39,8.41-6.54Z"/>
                  <path class="cls-24" d="M1480.28,3145.84c6.91-2.13,14.58,4.58,12.14,8.41-.94,1.48-12.8-3.28-12.14-8.41Z"/>
                  <path class="cls-11" d="M1607.32,3114.08c2.23-.74,10.82.41,10.28,2.8-1.13,4.98-20.89.72-10.28-2.8Z"/>
                  <path class="cls-40" d="M1585.84,3188.81c1.55,8.04-6.13,7.39-11.21,3.74q5.6-1.87,11.21-3.74Z"/>
                  <path class="cls-24" d="M1640.95,3117.82c3.02-1.68,8.46,4.19,8.41,4.67-.69,6.9-13.08-2.07-8.41-4.67Z"/>
                  <path class="cls-11" d="M1422.36,3160.79c.31-.11,4.78,4.36,4.67,4.67-1.35,3.76-8.43-3.32-4.67-4.67Z"/>
                  <g>
                    <path class="cls-35" d="M1676.44,3188.81c1.63-.35,15.03,8.45-5.6,13.08-25.24-2.79-2.03-2.57,0-3.74,3.76-2.16,2.36-8.63,5.6-9.34Z"/>
                    <path class="cls-11" d="M1711.94,3196.28c18.14-3.44-11.64,19.15-8.41,6.54.31-1.23,7.28-6.32,8.41-6.54Z"/>
                  </g>
                </g>
              </g>
            </g>
            <g>
              <path class="cls-53" d="M1735.29,2871.21c2.4,6.25.09,7.49,7.47,10.28-10.68,12.16-16.44,4.88-22.42,14.95q11.68,2.34,23.35,4.67c8.45,17.52,20.87,7.73,12.14,20.55-1.06-.18-3.12,2.55-21.48,0-1.31-.18-.13,4.04-2.8,3.74-.19-.02.62-3.57-.93-3.74-11.18-1.18-26.68.82-35.5-7.47-4.77,28.09,6.71,22.25,6.54,25.22-.2,3.49-8.08,2.5-8.41,2.8-25.13,22.8-8.07,8.97-40.17-12.14.55-7.84,15.4-25.81,14.95-28.02-2.35-11.39-26.99,1.24-27.09-10.28-36.71,12.38-27.02-9.16,3.74-16.81,11.77,11.85,27.33,24.89,26.16,7.47,20.02,8.95-4.48-11.68,26.16-7.47,2.33.32,9.71,14.64,4.67-6.54,13.51.44,14.4-15.64,33.63,2.8Z"/>
              <path class="cls-53" d="M1787.61,2845.05c2.15-.78,7.46.8,9.34,0-7.52,37.98-9.68,15.24-19.62,18.68-2.91,1.01-2.21,10.4-15.88,10.28,15.22,7.68-6.48,17.95,25.22,4.67,10.99,1.31,4.79,8.89,6.54,12.14,2.22,4.13,10.41.41,9.34,3.74-.77,2.4-7.27,3.56-7.47,5.6-.11,1.07,12.52,11.83,5.6,18.68-3.1,3.07-8.22-7.68-14.01,6.54-12.04-10.05-8.53,5.14-9.34,5.6-3.99,2.26-18.06-8.75-21.48-9.34,8.72-12.82-3.69-3.03-12.14-20.55q-11.68-2.34-23.35-4.67c5.98-10.07,11.74-2.78,22.42-14.95-7.38-2.78-5.07-4.03-7.47-10.28-3.58-9.32-13.99-28.86,0-23.35-2.28-12.19,5.5-14.85,10.28-4.67,16.37-17.91-12.8,25.28,29.89,16.81,5.18-2.86-7.47-7.81,12.14-14.95Z"/>
            </g>
            <g>
              <path class="cls-6" d="M1832.44,2768.46q-14.95,27.09-29.89,54.18c-26.75,8.23-56.04-.62-78.47-16.81,31.16-11.91,19.21-40.7,43.9-41.1.58-3.73,5.77-11.29,8.41-13.08,17.98-12.18,16.59,11.71,25.22-3.74,16.65-.13,11.39-3.75,12.14-3.74,2.18.04,4.36-.03,6.54,0,9.44,5.87,9.48,14.7,12.14,24.29Z"/>
              <path class="cls-14" d="M1834.31,2777.8c-6.64,16.97-15.93,32.57-29.89,44.84h-1.87q14.95-27.09,29.89-54.18c.96,3.44,1.03,6.43,1.87,9.34Z"/>
            </g>
            <g>
              <path class="cls-3" d="M1640.01,2712.41c13.23,4.82,27.53,19.22,38.3,9.34l2.8,2.8c-2.29,12.87,16.94,17.02,16.81,24.29-13.57,13.23-44.01-32.05-29.89-3.74,5.62,11.27,44.88,52.65,56.05,60.72,22.43,16.2,51.72,25.05,78.47,16.81h1.87c-6.53,5.74-30.51,9.02-16.81,22.42-19.61,7.13-6.96,12.09-12.14,14.95-42.69,8.46-13.52-34.72-29.89-16.81-4.78-10.18-12.56-7.52-10.28,4.67-13.99-5.51-3.58,14.03,0,23.35-19.23-18.44-20.12-2.36-33.63-2.8,5.04,21.18-2.34,6.86-4.67,6.54-30.63-4.21-6.13,16.42-26.16,7.47,1.18,17.42-14.38,4.38-26.16-7.47-30.76,7.65-40.44,29.2-3.74,16.81.1,11.51,24.74-1.12,27.09,10.28.46,2.22-14.4,20.18-14.95,28.02,32.1,21.11,15.04,34.94,40.17,12.14.33-.3,8.21.69,8.41-2.8.17-2.97-11.31,2.87-6.54-25.22,8.81,8.29,24.32,6.29,35.5,7.47,1.56.16.74,3.71.93,3.74-4.01.39,1.78,5.32,1.87,5.6.25.76,1.17,14.04,1.87,15.88,3.96,10.48,18.43,29.12,11.21,39.23-2.13,2.98-4.52-1.12-4.67-.93-6.4,7.6-2.02,8.64-3.74,9.34-5.57,2.27-19.91-12.76-22.42,5.6-32.5,1.43-5.56,18.17,11.21,16.81,9.1,19.02,13.58-.39,29.89,3.74,25.43,6.43-2.97,33.37,4.67,47.64,1.94,3.63,13.77.7,15.88,8.41,33.56-4.98-12.23,10.06-12.14,12.14.3,7.6,16.31-8.04,14.01,15.88q4.67-6.54,9.34-13.08c-3.35,21.41,2.28,7.54,11.21,13.08,6.17,3.83.81,7.12.93,7.47-10.18-5.81-.27,22.03-25.22-5.6-15.12,4.4-21.15-3.35-35.5,1.87-9.78-8.21,4.98-15.47-19.62-14.01,14.58-9.75,13.29-28.23-3.74-28.96-4.59-6.39-3.35-11.64-3.74-12.14-5.26-6.87-35.36-.59-41.1,4.67-1.58-2.77-25.95-22.75-38.3-50.44-6.63,48.12-24.32,65.52-25.22,69.12-18.99-9.02-14.46,1.22-23.35,9.34-21.5.09-2.03,23.66-20.55,16.81-1.89-.7-13-27.9-26.16,3.74-23.37,7.18-12.9-5.67-20.55-7.47-7.03-1.66-10.87,10.48-13.08,11.21-15.97,5.29-6.24-19.76-16.81-16.81-11.13,3.09,8.85,56.7-18.68,42.97-4.35-2.17-1.54-13.93-7.47-14.95-1.37-.23-19.6,12.83-23.35,14.95-.44.25-3.89.31-9.34,3.74,1.17-12.95,20.59-16.01,22.42-23.35,1.97-7.92-6.45-13.01-3.74-16.81,1.12-1.58,30.79-6.72,29.89-19.62-.66-9.45-7.05-1.34-14.95-3.74-20.69-6.29-11.36-18.34-27.09-14.95-8.7,1.88-12.37,20.73-27.09,14.95-2.5-10.66,16.93-31.86,31.76-54.18,2.52-3.79,5.01-7.34,7.47-11.21,12.62-19.84,26.78-38.66,37.36-59.78,7.65-15.27,26-52.61,22.42-67.26,3.87,1.21,5.51-7.69,7.47-13.08,6.97-19.12,16.29-37.33,24.29-56.05,3.13-7.32,1.75-5.33,1.87-5.6,8.82-20.52,17.56-41.03,26.16-61.65,6.55-15.71,14.82-30.53,20.55-46.71,8.12,13.04,29.16,16.06,11.21,27.09,10.06,5.54,2.35,7.23,3.74,9.34,2.75,4.18,34.21,25.46,36.43,25.22,13.08-16.57-7.69-47.61.93-50.44Z"/>
              <g>
                <path class="cls-32" d="M1528.85,2944.07c8.08,38.93-.13,83.83-35.5,106.49,23.84-33.04,29.42-67.33,35.5-106.49Z"/>
                <path class="cls-34" d="M1484.02,3018.8c5.04-1.7-9.68,42.51-7.47,48.57-8.9-5.9,4.39-47.54,7.47-48.57Z"/>
                <path class="cls-27" d="M1715.68,2960.88c2.01,2.57,15.81,16.56,15.88,17.75,1.03,18.5-21.86-16.03-15.88-17.75Z"/>
                <g>
                  <path class="cls-53" d="M1670.84,2817.03c17.94,15.42,39.37,24.09,23.35,36.43,15.95,23.37-5.2,6.76-6.54,6.54-2.5-.42-21.78,5.76-28.96-14.01-3.84-10.57,5.39-20.68,12.14-28.96Z"/>
                  <path class="cls-27" d="M1657.76,2873.08c1.79-.12,11.62,9.63,5.6,11.21-8.04,2.11-11.55-10.81-5.6-11.21Z"/>
                </g>
              </g>
            </g>
            <path class="cls-6" d="M1819.37,2305.13c-12.35,26.72-23.91,41.68-1.87,67.26,6.82,7.92,26.22,19.19,41.1,41.1,15.76,23.21,28.67,63.87,37.36,91.54,2.53,8.06,5.31,16.12,7.47,24.29,1.8,6.77,2.76,14.14,5.6,20.55-.26,2.97-6.87,5.63,0,14.95-34.71-52.72-14.2-19.53-22.42,15.88,6.63,7.04,9.56,16.06,13.08,25.22,5.05,13.16,8.79,19.56,13.08,29.89,1.52,3.66,2.18,9.53,3.74,13.08-9.47,1.06-12.37-10.4-21.48-7.47-2.51.81-17.29,23.51-33.63-20.55-32.96,15.98-13.09-.9-32.69-17.75,59.72-43.73-.83-59.97-3.74-81.27-1.7-12.45,12.77-14.57,13.08-15.88.17-.71-8.77-7.44-9.34-11.21-2.04-13.55,10.87-12.48,11.21-14.95.16-1.16-7.22-6.11-7.47-6.54-2.34-3.97-5.57-9.03-7.47-13.08-1.64-3.48-3.63-9.14-3.74-13.08,2.55-8.42,28.82-10.8,29.89-12.14-16.1-22.14-20.72-9.1-24.29-38.3-.23-1.91,3.88-2.16-.93-5.6-14.93,2.76-14.94-9.74-19.62-13.08-3.78-2.7-14.88-6.94-18.68-7.47-1.81-.25-3.77.15-5.6,0-3.14-17.06,33.67-7.65-2.8-22.42-57.22-5.51,30.86-.09,19.62-27.09-3.81-9.15-19.19-1.52-26.16-5.6,27.23-24.83,38.64-49.58,33.63-7.47,7.16,8.89,7.91-9.43,13.08-2.8Z"/>
            <path class="cls-44" d="M1909.04,2564.82c5.34,8.83,8.58,18.84,13.08,28.02-10.72,3.28-6.28,20.62-22.42,13.08-3.51-9.16-6.45-18.18-13.08-25.22,8.22-35.41-12.29-68.6,22.42-15.88Z"/>
            <path class="cls-20" d="M1938.93,2628.34c-.5.17-6.48,6.83-7.47,7.47-1.08.69-9.23,16.1-17.75-3.74q-.47,1.87-.93,3.74c-4.29-10.33-8.03-16.73-13.08-29.89,16.14,7.54,11.7-9.79,22.42-13.08,5.66,11.56,13.8,23.34,16.81,35.5Z"/>
            <path class="cls-6" d="M1897.83,2234.14c-2.88-.45-5.17.23-7.47,1.87-2.4-14.24-13.79-18.6-24.29-27.09,2.26-3.65,33.25,8.76,39.23-11.21-1.49-4.19-39.84-2.25-33.63-26.16,2.5-9.61,18.8-5.78,5.6-10.28,1.09-.84,7.14-7.08,9.34-9.34.25-.26,2.52,1.45,5.6-3.74,22.03,1.1,23.51,20.66,30.83,24.29,59.85,10.01,39.97,9.65,68.19,36.43-35.43,9.01-29.16,15.11-30.83,15.88-8.41,3.91-46.1-15.45-62.59,9.34Z"/>
            <path class="cls-63" d="M2170.59,3181.34c6.25,4.55,11.84,9.29,18.68,13.08-4.41,5.89-5.48,12.98-7.47,14.95-7.87-9.81-18.31-18.98-29.89-16.81-1.62-8.05-.49-17.49-1.87-25.22-.29-1.61-3.59-.7-3.74-.93-.61-1-.29-4.03,1.87-3.74,7.39,8.26,13.64,12.29,22.42,18.68Z"/>
            <path class="cls-8" d="M1996.85,3112.21c1.95,8.37-1.99,28.4-1.87,29.89-35.85,17.59-9.82.17-19.62-18.68q-12.14,5.6-24.29,11.21c-5.13-6.92-6.83-1.56-8.41-1.87-.19-.04.68-3.29-.93-3.74-6.19-1.7-18.81,0-19.62-9.34,7.71-11.48,7.01-4.49,9.34-18.68.03-.21,2.57.67,1.87-3.74,22.71,8.3,28.45,4.91,30.83,5.6,3.53,1.03,9.81,16.79,32.69,9.34Z"/>
            <path class="cls-8" d="M1819.37,3071.11c.24.4,6.05,4.56,7.47,5.6-7.85,21.4,17.07,22.99,31.76,14.95,4.66,6.13-.39,9.52,0,11.21-52.42,12.66-33.52-4.09-35.5-14.01-.97-4.86-17.96,5.35-3.74-17.75Z"/>
            <path class="cls-20" d="M1828.71,2994.51c-3.13,8.7-2.46,20.08,7.47,24.29l-5.6,14.95c-1.6-.35-2.19,2.27-3.74,1.87-21.46-5.61-9.3-10.1-9.34-20.55-.06-13.3-8.68-21.79,11.21-20.55Z"/>
            <g>
              <path class="cls-53" d="M1817.5,3015.06c.05,10.45-12.11,14.94,9.34,20.55,4.84,19.25-18.07,17.63-7.47,35.5-14.23,23.1,2.77,12.89,3.74,17.75,1.97,9.92-16.92,26.67,35.5,14.01,4.49,19.2,17.09,6.43,23.35,11.21,2.27,1.74,3.3,10.54,4.67,12.14,9.21,10.79,14.85-7.17,35.5-6.54.81,9.34,13.42,7.64,19.62,9.34,1.62.44.75,3.7.93,3.74q-14.95,15.88-29.89,31.76c-17.38-9.47-7.2,6.22-23.35,20.55-45.68-10.57-5.18-38.65-54.18-22.42-14.9-25.96-19.82,15.69-40.17-20.55,13.32-10.78,10.29-15.94,5.6-29.89-.12-.36,5.24-3.65-.93-7.47-8.93-5.53-14.56,8.33-11.21-13.08q-4.67,6.54-9.34,13.08c2.3-23.92-13.71-8.28-14.01-15.88-.08-2.08,45.7-17.13,12.14-12.14-2.11-7.71-13.94-4.78-15.88-8.41-7.64-14.27,20.76-41.21-4.67-47.64-16.32-4.12-20.79,15.28-29.89-3.74-16.77,1.36-43.71-15.39-11.21-16.81,2.51-18.37,16.85-3.33,22.42-5.6,1.71-.7-2.66-1.74,3.74-9.34.15-.18,2.54,3.92,4.67.93,7.22-10.12-7.25-28.75-11.21-39.23-.69-1.84-1.62-15.12-1.87-15.88,9.93,13.07,22.4,52.57,34.56,39.23,13.9,12.54,22.52.26,17.75,27.09,22.42,12.09,15.54,27.52,31.76,17.75Z"/>
              <path class="cls-20" d="M1822.17,3110.34l2.8,2.8c-12.03,15.35-13.29,11.35-2.8-2.8Z"/>
            </g>
            <path class="cls-8" d="M2097.73,3179.47c-10.92-.02,12.44,27.05,20.55,37.36-30.3,6.23-5.39-21.37-32.69-28.02-4.75,10.15-11.36,1.74-12.14,1.87,8.58-22.88,2.26-44.65-22.42-23.35,9.46-13.48,25.56-26.18,8.41-40.17-10.2.57-26.7-11.41-35.5-9.34-4.28,1.01-11.71,15.23-19.62,9.34,1.72-6.52,5.13-12.7,5.6-19.62,1.1-1.69,3.39-.71,5.6-.93,2.46-.25,27.96,10.1,39.23-9.34,10.47,21.24,31.5,66.42,42.97,82.2Z"/>
            <g>
              <path class="cls-15" d="M2015.53,3106.61c-2.22.23-4.5-.76-5.6.93-.48,6.91-3.89,13.09-5.6,19.62-12.23,46.5,14.84,38.64,5.6,56.98-4.93-6.27-14.6-37.88-14.95-42.04-.12-1.49,3.82-21.52,1.87-29.89,15.97-5.2,22.33-48.39,24.29-30.83.16,1.41-14.33,15.61-5.6,25.22Z"/>
              <g>
                <path class="cls-5" d="M2073.45,3190.68c-36.41,6.03-30.1,25.12-34.56,28.02-1.39.91-21.73-7.44-6.54,19.62.52,4.59-23.14,18.53-33.63,17.75-.81-.06-9.27-4.42-14.95-6.54,1.6-5.45,15.89-18.98,10.28-23.35-10.93,8.71-39.04-1.51-70.99,9.34-23.46-29.22-4.76-16.17-4.67-37.36,1.25-.02,19.86-8.88,22.42-11.21.98.67,2.52,1.56,3.74,1.87-1.38,1.86-10.61,23.52-8.41,24.29,12.76-26.07,41.84-38.08,20.55-33.63-.57.12-9.84,5.21-10.28,5.6-4.63-13.79-20.07-7.49-25.22-9.34-2.34-.84-5.13-9.42-8.41-11.21q14.95-15.88,29.89-31.76c1.58.31,3.27-5.05,8.41,1.87q12.14-5.6,24.29-11.21c9.8,18.85-16.23,36.28,19.62,18.68.34,4.15,10.02,35.76,14.95,42.04,9.24-18.34-17.83-10.48-5.6-56.98,7.91,5.89,15.34-8.34,19.62-9.34,8.8-2.07,25.3,9.91,35.5,9.34,17.15,13.99,1.06,26.69-8.41,40.17,24.68-21.3,31,.47,22.42,23.35Z"/>
                <path class="cls-29" d="M1944.54,3188.81c.5-.68,1.71-3.6,1.87-3.74.43-.39,9.7-5.48,10.28-5.6,21.29-4.46-7.79,7.56-20.55,33.63-2.2-.77,7.03-22.43,8.41-24.29Z"/>
                <path class="cls-29" d="M1982.84,3198.15c13.01-.85,29.26,10.43,13.08,26.16.4-30.66-25.79-13.11-27.09-15.88-.5-4.73,12.21-10.16,14.01-10.28Z"/>
                <path class="cls-48" d="M2029.54,3138.37c.73.08,11.79,7.76,12.14,8.41,5.95,10.86-21.58,10.23-22.42,1.87-.57-5.68,9.44-10.37,10.28-10.28Z"/>
              </g>
            </g>
            <path class="cls-60" d="M2146.31,3166.39c.14.23,3.45-.67,3.74.93,1.38,7.73.24,17.17,1.87,25.22-10.88,2.03-17.89,11.48-28.02,14.95-4.19-4.95-8.55-10.35-13.08-14.95,9.01-16.27,14.56-27.22,35.5-26.16Z"/>
            <path class="cls-31" d="M2097.73,3179.47c3.95,5.44,8.56,8.49,13.08,13.08,4.53,4.6,8.89,9.99,13.08,14.95-2.52,16.48-4.82,9.18-5.6,9.34-8.11-10.32-31.47-37.39-20.55-37.36Z"/>
            <path class="cls-51" d="M2118.28,3216.83c.79-.16,3.08,7.14,5.6-9.34,10.13-3.46,17.14-12.91,28.02-14.95,11.58-2.17,22.02,7.01,29.89,16.81-5.12,5.04-8.39-9.18-15.88-5.6-6.31,3.01-.69,12.86-.93,14.01-1.62,7.53-14.98-9.45-16.81,14.01-15.46,4.39-7.15,8.64-7.47,9.34-3.24,7-8.93,14.85-5.6,24.29-4.84-.32-7.36,2.68-12.14,1.87-12.43-20.57-22.72,3.68-36.43,0-.13-.03.71-.54-1.87-1.87-3.77-1.94-13.89-15.23-16.81-20.55,13.9-24.36-2.49-7.71-3.74-7.47-6.3,1.21-9.86-3.77-13.08-.93,29.75,34.7,1.01,25.61,0,47.64-1.35.54,2.04,8.62-26.16,6.54l16.81,6.54c-.93.99-5.72,19.9-14.01,22.42-31.47,9.57-18.14-36.22-39.23-22.42-5.65-10.23,25.39-7.58,10.28-41.1,10.49.78,34.15-13.16,33.63-17.75-15.19-27.06,5.15-18.71,6.54-19.62,4.46-2.91-1.84-21.99,34.56-28.02.79-.13,7.39,8.28,12.14-1.87,27.3,6.65,2.39,34.25,32.69,28.02Z"/>
            <g>
              <path class="cls-5" d="M1800.68,3112.21c4.68,13.95,7.72,19.11-5.6,29.89-8.4,6.8-13.35-4.91-17.75,22.42-22.35-15.97-17.29-.87-22.42,0-3.33.56-6.95-7.38-7.47-7.47-1.44-.26-22.86,15.77-26.16,13.08-2.34-1.92.02-8.6-.93-11.21-2.88-7.91-34.67-.12-44.84-15.88-1.66-2.57-3.54-10.4-3.74-14.01,2.02-2.26,10.03-17.91,12.14-18.68,5.13-1.88,11.07,3.5,12.14.93.71-1.69-5.19-23.44,13.08-29.89.58-3.35-1.96-2.66-1.87-2.8,1.23-1.99,2.77-3.49,3.74-5.6.2-.44-.79-4.58,5.6-7.47,17.02.73,18.31,19.21,3.74,28.96,24.59-1.46,9.83,5.8,19.62,14.01,14.35-5.22,20.37,2.53,35.5-1.87,24.95,27.63,15.04-.21,25.22,5.6Z"/>
              <path class="cls-36" d="M1734.36,3136.5c1.29-.73,6.03,1.12,7.47,1.87,27.95,14.45-21.65,6.18-7.47-1.87Z"/>
              <path class="cls-16" d="M1702.6,3123.42c2.55-.12,3.13,1.23,4.67,2.8-31.69,28.42-12.05-2.45-4.67-2.8Z"/>
              <path class="cls-22" d="M1767.99,3136.5c7.22-.63,6.08,11.07-7.47,9.34-.97-1.87,6.88-9.29,7.47-9.34Z"/>
            </g>
            <path class="cls-44" d="M1699.8,2477.01c-.82-9.77,17.75-13.87-9.34-14.95,10.33-11.35,27.52-11.96,5.6-24.29.5-.21,4.08.54,5.6-2.8.45-.98-.32-3.18,0-4.67,15.7,6.93,16.25,3.95,27.09-7.47,1.71,12.33-11.71,13.01,1.87,24.29,3.66-4.5,7.56-6.14,9.34,0,5.86-4.94-.79-11.12,7.47-16.81,2.31-1.59,59.93-8.43,9.34,9.34-10.07,16.43,18.15,4.57,18.68,16.81,15.38-9.18,15.76,7.93,25.22,15.88-16.23,5.64-5.49,10.91-5.6,13.08-.67,12.64-11.64-7.85-24.29,11.21-2.32,3.5,2.56,27.32-14.95-11.21-.01-49.5-10.62-5.16-13.08,14.95-8.8-6.19-4.01,37.62-11.21,18.68-1.29-3.39.92-21.68,0-29.89-12.81,3.07-17.75-11.45-31.76-12.14Z"/>
            <path class="cls-20" d="M1696.06,2437.78c21.92,12.32,4.73,12.94-5.6,24.29-3.97-.16-10.62,10.04-24.29-15.88,6.26.92,23.18-5.53,29.89-8.41Z"/>
            <path class="cls-10" d="M1914.65,2678.78c-.27,1.27,2.84,2.62,1.87,6.54-21.34,1.97,4.08,45.44-22.42,23.35-1.19-6.1-3.91-11.8-5.6-17.75,13.95-5.72,9.21-24.34,26.16-12.14Z"/>
            <g>
              <path class="cls-53" d="M1621.33,2658.23c5.16,16.84,16.16,14.83,16.81,15.88-1.71,35.84,12.14,15.89,1.87,38.3-8.62,2.83,12.14,33.87-.93,50.44-2.22.24-33.69-21.04-36.43-25.22-1.39-2.12,6.33-3.8-3.74-9.34,17.95-11.03-3.09-14.05-11.21-27.09,1.09-3.08,7.62-14.83,7.47-15.88-1.94-2.65-3.56-2.65-3.74-2.8,8.71-2.82,3.95-8.89,9.34-14.95,2,4.48-2.01,8-1.87,8.41,3.01,8.76,10.69-1.53,15.88,4.67q-1.4-10.74-2.8-21.48c10.06-2.16,1.65,4.53,9.34-.93Z"/>
              <path class="cls-34" d="M1602.65,2620.86c-22.92,27.94-2.31,18.16-1.87,19.62.33,1.07-6.82,25.85,4.67,6.54,11.82,7.71,6.51-23.07-.93-26.16,10.73,2.38,26.91,30.19,16.81,37.36-7.69,5.47.72-1.23-9.34.93q1.4,10.74,2.8,21.48c-5.19-6.2-12.87,4.09-15.88-4.67-.14-.41,3.87-3.93,1.87-8.41-1.62-3.61-16.29-4.48-17.75-5.6-5.37-4.16.68-18.1-13.08-14.95-2.99.69-7.93,10.91-9.34,11.21-.67.14-12.62-3.24-13.08-3.74-3.65-3.97,1.69-15.97,2.8-20.55,14.06-8.76-.26,9.73,21.48,7.47,12.37-1.28,18.67-18.65,30.83-20.55Z"/>
              <path class="cls-53" d="M1604.52,2620.86c7.44,3.08,12.76,33.87.93,26.16-11.49,19.31-4.34-5.47-4.67-6.54-.45-1.46-21.05,8.32,1.87-19.62,1.05-3.93,1.78-.02,1.87,0Z"/>
            </g>
            <g>
              <path class="cls-44" d="M1701.67,2430.3c-.32,1.49.45,3.69,0,4.67-1.52,3.34-5.1,2.59-5.6,2.8-6.71,2.87-23.63,9.33-29.89,8.41,13.66,25.92,20.31,15.72,24.29,15.88,27.09,1.08,8.52,5.17,9.34,14.95.14,1.65,5.54,6.97,3.74,17.75q9.34,3.74,18.68,7.47c-11.26,10.03,10.8,13.14-11.21,16.81,24.82-2.74,3.6,20.61,34.56,4.67,17,8.32-5.1,14.94,13.08,11.21.36-.07,3.52,3.89,3.74,3.74-4-8.95,18.31-15.15,19.62-14.01,2,1.74.9,10.84,4.67,12.14,8.69,3.01,20.5-9.47,18.68-20.55,5.35,7.71,10.95,5.47,19.62,5.6,2.91,21.3,63.46,37.54,3.74,81.27,19.6,16.85-.27,33.73,32.69,17.75,16.34,44.06,31.12,21.36,33.63,20.55,9.11-2.93,12.02,8.53,21.48,7.47,1.03,2.34,2.57,4.91,3.74,7.47-5.2,6.25-3.99,14.78-5.6,22.42-16.94-12.2-12.2,6.42-26.16,12.14,1.69,5.95,4.41,11.65,5.6,17.75,2.62,13.4,5.5,22.65,9.34,35.5-6.45,1.65-2.39,8.93-3.74,13.08-9.19,28.33-32.93-1.62-46.71-12.14,18.61,51.1,2.74,19.8-1.87,33.63-6.99,20.99,29.64,27.34,43.9,25.22v3.74c-7.98-5.63-20.38,7.67-39.23,3.74-20.68-4.32-17.37-19.39-21.48-33.63-.84-2.91-.91-5.9-1.87-9.34-2.67-9.59-2.71-18.42-12.14-24.29-2.18-.03-4.36.04-6.54,0-2.8-12.08-17.55-20.66-29.89-21.48q7.47,9.34,14.95,18.68c-.05,5.93-26.17-8.73-21.48-17.75-34.39,12.18-60.37-27.78-31.76,22.42,13.96-8.01,19.71-2.94,30.83,5.6-2.64,1.79-7.83,9.35-8.41,13.08-24.7.4-12.75,29.19-43.9,41.1-11.17-8.07-50.43-49.45-56.05-60.72-14.11-28.32,16.32,16.97,29.89,3.74.12-7.27-19.11-11.42-16.81-24.29l-2.8-2.8c-10.77,9.88-25.07-4.52-38.3-9.34,10.27-22.41-3.58-2.46-1.87-38.3-.66-1.05-11.65.96-16.81-15.88,10.09-7.17-6.08-34.98-16.81-37.36-.09-.02-.82-3.93-1.87,0-12.15,1.9-18.46,19.27-30.83,20.55-21.75,2.26-7.43-16.24-21.48-7.47.09-.36-3.37-.47,0-7.47,1.78-3.7,23.41-22.48,46.71-67.26,4.18-8.03,7.45-16.12,11.21-24.29,10.34-22.49,18.8-52.09,22.42-59.78,21.37-45.45,11.49,4.93,29.89-27.09-19.5,8.63-13.85,5.18-11.21-12.14q2.8-6.54,5.6-13.08,7.01-9.34,14.01-18.68c3.39-1.04-1.32,4.59,9.34,7.47-.22-26.93,14.26-4.33,19.62-16.81,1.84.58,7.18-.37,11.21,4.67.96,38.03-2.43,16.92-10.28,25.22-1.97,2.08,3.26,3.46,2.8,5.6Z"/>
              <path class="cls-10" d="M1844.59,2675.04c8.24-1.58,8.17,7.65,6.54,15.88-1.95,9.84-20.15,22.75-20.55,24.29-4.45,17.03,41.86,7.86,25.22,21.48-2.05,1.68-5.8-7.04-8.41-.93,4.02,18.36-1.96-.55-2.8-.93-2.51-1.14-6.9,5.86-7.47,5.6-3.47-1.54,1.73-7.18.93-8.41-3.58-5.53-22.12,1.33-24.29-9.34-.9-4.41,4.08-7.57,3.74-13.08-1.51-24.32-33.18,3.71-39.23-3.74,18.65-32.72,46.54-12.49,55.11-15.88,2.33-.92,7.13-14.16,11.21-14.95Z"/>
              <path class="cls-10" d="M1813.76,2744.17c-.75-.02,4.51,3.61-12.14,3.74-8.64,15.45-7.24-8.45-25.22,3.74-11.11-8.55-16.86-13.62-30.83-5.6-28.61-50.2-2.63-10.24,31.76-22.42-4.68,9.02,21.44,23.68,21.48,17.75q-7.47-9.34-14.95-18.68c12.34.83,27.09,9.41,29.89,21.48Z"/>
              <path class="cls-21" d="M1629.74,2585.37c2.33-.36,8.41,6.01,8.41,6.54-.07,7.05-16.74-5.26-8.41-6.54Z"/>
            </g>
            <g>
              <path class="cls-6" d="M1899.7,2757.25c13.94,32.5,48.48,154.32,56.05,168.14-3.06,13.68-18.76-33.07-27.09-35.5-14.12-4.11-13.63,10.52-14.95,11.21-1.98,1.03-22.65-19.92-11.21,28.02-7.93-8.56-54.73-47.14-64.45-32.69-1.14,1.69-1.26,17.43-1.87,21.48q-3.74-.93-7.47-1.87c-.16-.57.1-1.27,0-1.87-3.2-18.57,2.28-76.11,3.74-99.95-15.12,19.66-12.91,21.18-35.5,30.83-1.88.8-7.19-.78-9.34,0-13.7-13.4,10.28-16.68,16.81-22.42,13.96-12.27,23.26-27.87,29.89-44.84,4.11,14.24.8,29.31,21.48,33.63,18.85,3.93,31.26-9.37,39.23-3.74v-3.74c-14.26,2.12-50.89-4.23-43.9-25.22,4.61-13.83,20.48,17.47,1.87-33.63,13.78,10.52,37.52,40.48,46.71,12.14Z"/>
              <path class="cls-10" d="M1844.59,2811.43c16.58,1.26,15.16,11.2,18.68,13.08,34.03,2.98,25.44,17.97-1.87,20.55-11.34,6.84,5.37,14.95,4.67,19.62-1.15,7.65-41.94,34.27-21.48-53.24Z"/>
              <path class="cls-37" d="M1836.18,2917.92c-1.23,8.23-5.44,5.49-7.47-1.87q3.74.93,7.47,1.87Z"/>
            </g>
            <g>
              <path class="cls-10" d="M1828.71,2914.18c-14.47-14.24-25.45-1.13-14.95,15.88-8.9-4.81-23.78,6.18-24.29,7.47-3.09,7.83,10.03,16.01,11.21,18.68,1.64,3.74,1.89,23.65,14.01,28.96,14.17,6.21,11.41-9.07,25.22-6.54-.49,6.67-9.85,12.11-11.21,15.88-19.89-1.24-11.27,7.25-11.21,20.55-16.22,9.77-9.34-5.66-31.76-17.75,4.77-26.82-3.84-14.55-17.75-27.09-12.16,13.33-24.63-26.16-34.56-39.23-.09-.28-5.88-5.22-1.87-5.6,2.67.3,1.49-3.92,2.8-3.74,18.36,2.55,20.43-.18,21.48,0,3.42.59,17.5,11.61,21.48,9.34.81-.46-2.7-15.66,9.34-5.6,5.79-14.22,10.91-3.46,14.01-6.54,6.91-6.85-5.71-17.61-5.6-18.68.2-2.04,6.7-3.21,7.47-5.6,1.07-3.33-7.12.39-9.34-3.74-1.75-3.25,4.45-10.83-6.54-12.14-31.7,13.28-10.01,3.01-25.22-4.67,13.67.13,12.97-9.27,15.88-10.28,9.93-3.44,12.09,19.3,19.62-18.68,22.59-9.64,20.37-11.16,35.5-30.83-1.45,23.84-6.94,81.38-3.74,99.95Z"/>
              <path class="cls-53" d="M1814.69,2865.6c9.2,30-2.68,19.61-3.74,20.55-.7.62-9.3,19.66-4.67-2.8.2-.96,7.43-17.76,8.41-17.75Z"/>
            </g>
            <g>
              <path class="cls-6" d="M1953.88,2728.29c7.41,14.05,14.88,28.05,22.42,42.04,4.73,8.78,10.06,17.42,14.95,26.16,10.22,18.27,20.52,36.49,31.76,54.18,26.13,41.12,41.12,60.64,72.86,97.15,2.53,2.91,4.56,6.13,7.47,9.34,4.9,5.4,9.95,9.82,14.95,14.95,9.8,10.04,17.26,18.59,28.02,28.02,2.58,2.27,4.54,5.04,7.47,7.47,2.18,1.81,3.95,2.43,5.6,3.74,17.75,13.99,20.97,15.18,39.23,26.16,38.46,23.11,69.57,34.93,72.86,37.36,4.31,3.19,6.94,17.48,20.55,20.55-6.8,13.4,8.12,31.22,18.68,37.36-18.84,3.29-16.19,30.42-29.89,24.29-.9.23-3.59,1.72-3.74,1.87-12.05-41.31-27.4-17.23-35.5-16.81-25.12-23.31-68.74-54.76-91.54-76.6-21.45-20.54-41.79-45.04-61.65-67.26-6.69-8.86-13.15-22.62-23.35-29.89,4.28,11.98,15.26,20.84,23.35,29.89,18.6,24.63,37.73,47.67,57.92,70.99,13.46,15.55,69.96,72.18,72.86,76.6,3.8,5.8,8.05,12.2,5.6,19.62-7.31,22.21-15.23-15.63-28.96-17.75-23.31,7.71-33.36-2.57-36.43,20.55-14.31-12.84-27.22-34.11-28.02-25.22,6.7,5.61,11.07,13.2,16.81,19.62-2.16-.29-2.48,2.73-1.87,3.74-20.94-1.06-26.49,9.88-35.5,26.16-4.52-4.59-9.13-7.64-13.08-13.08-11.47-15.78-32.5-60.97-42.97-82.2-15.52-31.48-30.29-64.24-44.84-96.21-17.81-39.14-14.04-66.26-44.84-68.19-17.05-63.93-42.74-125.41-61.65-188.69-3.84-12.84-6.72-22.1-9.34-35.5,26.5,22.08,1.08-21.38,22.42-23.35.98-3.92-2.14-5.27-1.87-6.54,1.61-7.63.41-16.17,5.6-22.42,2.09,4.57,5.41,8.76,7.47,13.08.34.72-.23,3.29,5.6,14.95,3.38,6.75,12.22,30.85,15.88,33.63"/>
              <g>
                <path class="cls-38" d="M2150.04,3065.51c22.81,21.84,66.43,53.29,91.54,76.6-4.98.25-13.13-10.4-22.42,3.74-2.9-4.42-59.4-61.05-72.86-76.6q1.87-1.87,3.74-3.74Z"/>
                <path class="cls-64" d="M2159.39,3168.26c2.66,2.39,9.64,10.09,11.21,11.21v1.87c-8.78-6.39-15.03-10.43-22.42-18.68-5.75-6.42-10.11-14.01-16.81-19.62.81-8.89,13.71,12.38,28.02,25.22Z"/>
                <path class="cls-48" d="M1965.09,2932.86c-2.22,5.54-7.69-4.46-9.34-7.47-7.56-13.82-42.11-135.64-56.05-168.14,1.35-4.15-2.72-11.43,3.74-13.08,18.91,63.28,44.61,124.76,61.65,188.69Z"/>
                <g>
                  <path class="cls-17" d="M2150.04,3065.51q-1.87,1.87-3.74,3.74c-20.18-23.32-39.31-46.36-57.92-70.99,19.87,22.22,40.2,46.72,61.65,67.26Z"/>
                  <path class="cls-46" d="M2088.39,2998.25c-8.09-9.05-19.07-17.92-23.35-29.89,10.2,7.27,16.66,21.03,23.35,29.89Z"/>
                  <path class="cls-46" d="M2058.5,2960.88c-5.41-4.4-3.29-4.89-3.74-5.6,5.41,4.4,3.29,4.89,3.74,5.6Z"/>
                  <path class="cls-46" d="M2058.5,2960.88c.12.2,6.19-.77,2.8,3.74-2.73-2-2.62-3.59-2.8-3.74Z"/>
                  <path class="cls-46" d="M2054.76,2955.28c-.12-.2-6.19.77-2.8-3.74,2.73,2,2.62,3.59,2.8,3.74Z"/>
                </g>
              </g>
            </g>
            <path class="cls-44" d="M1826.84,2396.68c3.56,29.19,8.19,16.15,24.29,38.3-1.07,1.35-27.35,3.72-29.89,12.14q-11.21-2.34-22.42-4.67c8.54-6.77-4.86-7.92,4.67-28.96-46.45,14.84-20.36,9.97-24.29-9.34,15.11-4.97,21.28-3.15,22.42-3.74,1.97-1.02-9.48-14.45,25.22-3.74Z"/>
            <path class="cls-10" d="M1802.55,2260.29c-21.79,13.59-19.9,2.24-23.35,1.87-15.97,7.59-33.5,3.35-31.76,13.08-1.99,1.48-3.62-8.42-14.95,3.74-.12-29.19-10.89-10.88-13.08-11.21-4.81-.74-6.11-16.02-6.54-16.81,71.15,26.64,88.22-8.01,92.48-5.6,1.86,1.05-6.03,13.41-2.8,14.95Z"/>
            <g>
              <path class="cls-44" d="M1626.94,2165.01c.23.06-.1,1.61,2.8,3.74,6.3-16.26,5.41,3.55,28.96,20.55-.25,11.93,12.62,29.08,22.42,14.95,3.66,5.33,6.76,15.83,7.47,16.81-8.56-1.68-13.12,20.09-10.28,22.42q7.94-1.4,15.88-2.8c-4.22-4.5-5.65-14.1-1.87-15.88,5.64,8.18,12.32,11.16,20.55,26.16.43.79,1.73,16.08,6.54,16.81,2.18.33,12.96-17.98,13.08,11.21,11.33-12.15,12.95-2.26,14.95-3.74-1.74-9.72,15.79-5.49,31.76-13.08,3.45.38,1.56,11.72,23.35-1.87,10.29-6.41,12.13-17.93,23.35-13.08,7.49-5.96,6.23-8.87,6.54-9.34,10.35-15.72,11.65-34.36,11.21-52.31,5.53.76,14.07-16.11,14.95-16.81.42-.34,1.27.47,9.34-5.6.38-.29,7.77-.65,9.34-1.87,13.19,4.5-3.11.67-5.6,10.28-6.21,23.91,32.13,21.97,33.63,26.16-5.99,19.97-36.97,7.56-39.23,11.21,10.5,8.49,21.88,12.85,24.29,27.09-3.99,2.83-13.34,17.09-34.56,5.6-3.91,3.03-4.05,6.78-4.67,11.21-9.57,12.01-25.58,38.95-31.76,52.31-5.17-6.63-5.92,11.69-13.08,2.8,5.01-42.11-6.4-17.35-33.63,7.47,6.97,4.08,22.34-3.55,26.16,5.6,11.24,27-76.84,21.58-19.62,27.09,36.48,14.77-.34,5.35,2.8,22.42-24.97-2.06-3.38.32-13.08,16.81-17.35-4.63-17.23.17-3.74,10.28-13.43,5.64-16,13.53-29.89,15.88,12.83-19.94-5.59,1.18-14.01,0-11.97-1.67,1.62-13.07.93-14.01-1.53-2.08-7.48.09-7.47-1.87,0-1.55,7.2,3.83,24.29-16.81.08-2.57-17.19-7.12-22.42-4.67.03-7.9-.76-12.76-9.34-13.08,6.35-16.26,11.6-16.77,11.21-17.75-.48-1.21-22.81-11,0-11.21-26.07-13.56-8.04-5.98,3.74-16.81-8.97-6.72-18.49.75-21.48-.93-3.47-1.95-19.05-42.69-51.38-57.92-17.04-6.91-39.55-26-42.04-26.16-11.63-.75-4.88,17.49-4.67,18.68-21.08,1.87-6.25-16.06-37.36-12.14,29.27-39.3-6.23-9.98-14.01-14.01-3.56-4.66,20.06-23.47,34.56-38.3,18.57-18.99,7.87-29.63,41.1-21.48Z"/>
              <path class="cls-33" d="M1867.94,2161.28v1.87c-8.08,6.08-8.92,5.26-9.34,5.6-1.86-.06-3.74.09-5.6,0,1.56-4.9,12.19-6.22,14.95-7.47Z"/>
              <path class="cls-55" d="M1688.59,2221.06c.16.21,1.58.61,3.74,3.74-3.79,1.78-2.35,11.38,1.87,15.88q-7.94,1.4-15.88,2.8c-2.84-2.33,1.72-24.1,10.28-22.42Z"/>
              <path class="cls-23" d="M1668.04,2194.91c8.17,5.59,4.44-3.24,13.08,9.34-9.8,14.14-22.67-3.01-22.42-14.95,7.53,5.44,8.89,5.3,9.34,5.6Z"/>
              <path class="cls-20" d="M1683.92,2262.16c21.11,3.13,40.97,25.24,38.3,30.83-.3.63-11.95-.91-14.01.93-.77.69,1.63,11.65-7.47,9.34-3.43-.87-20.25-38.73-16.81-41.1Z"/>
            </g>
            <path class="cls-44" d="M1716.61,2376.13c-6.38,3-2.53,13.43-15.88,16.81-.62.16-2.61-4.32-5.6-3.74-1.61.31-2.57,3.7-2.8,3.74-5.69.88-11.14,1.54-16.81,2.8-2.47-4.32,8.4-10.73,11.21-14.95.09-.14-2.59-1.91-1.87-2.8,1.51-1.87,5.26-7.16,5.6-7.47,1.53-1.38,14.84-7.55,16.81-7.47,8.58.32,9.37,5.18,9.34,13.08Z"/>
            <g>
              <path class="cls-5" d="M1955.75,2925.39c1.65,3.02,7.12,13.01,9.34,7.47,30.8,1.93,27.03,29.05,44.84,68.19,14.55,31.98,29.32,64.74,44.84,96.21-11.27,19.44-36.78,9.09-39.23,9.34-8.72-9.61,5.76-23.81,5.6-25.22-1.96-17.56-8.32,25.63-24.29,30.83-22.88,7.45-29.17-8.32-32.69-9.34-2.38-.69-8.12,2.69-30.83-5.6-5.91-2.16-32.35-21.37-37.36-14.01-2.2,7.88,15.03.07,35.5,17.75-2.34,14.19-1.64,7.2-9.34,18.68-20.65-.64-26.28,17.33-35.5,6.54-1.37-1.61-2.4-10.41-4.67-12.14-6.26-4.78-18.87,7.99-23.35-11.21-.39-1.69,4.66-5.08,0-11.21-2.96-3.89-19.86-6.19-31.76-14.95-1.43-1.05-7.23-5.2-7.47-5.6-10.6-17.86,12.32-16.25,7.47-35.5,1.55.4,2.14-2.22,3.74-1.87,6.34,1.4,12.93.54,17.75,1.87,10.1,2.78,32.86,25.33,23.35-6.54-3.83-12.86-25.13-5.88-35.5-10.28-9.93-4.21-10.6-15.59-7.47-24.29,1.36-3.77,10.72-9.21,11.21-15.88-13.81-2.53-11.05,12.75-25.22,6.54-12.12-5.31-12.37-25.22-14.01-28.96-1.18-2.68-14.3-10.85-11.21-18.68.51-1.29,15.39-12.28,24.29-7.47-10.51-17.01.48-30.12,14.95-15.88.1.6-.16,1.3,0,1.87,2.04,7.36,6.24,10.1,7.47,1.87.61-4.05.73-19.8,1.87-21.48,9.72-14.44,56.53,24.13,64.45,32.69-11.44-47.95,9.23-26.99,11.21-28.02,1.31-.69.82-15.32,14.95-11.21,8.33,2.42,24.03,49.18,27.09,35.5Z"/>
              <g>
                <path class="cls-63" d="M1830.57,3033.75l5.6-14.95c10.36,4.39,31.66-2.58,35.5,10.28,9.5,31.87-13.25,9.32-23.35,6.54-4.82-1.33-11.41-.46-17.75-1.87Z"/>
                <path class="cls-6" d="M1858.6,3091.66c-14.69,8.04-39.61,6.45-31.76-14.95,11.9,8.76,28.8,11.06,31.76,14.95Z"/>
                <path class="cls-26" d="M1933.33,3097.27c.7,4.41-1.83,3.53-1.87,3.74-20.47-17.67-37.7-9.86-35.5-17.75,5.01-7.35,31.45,11.85,37.36,14.01Z"/>
                <path class="cls-64" d="M1842.72,2945.94c10.36,14.14,39.47,45.38,8.41,17.75-1.3-8.86-12.47-11.53-8.41-17.75Z"/>
                <path class="cls-26" d="M1831.51,2951.54c6.85-1.47,26.64,21.59.93,15.88,24.9-1.08-12.36-13.43-.93-15.88Z"/>
                <path class="cls-19" d="M1966.02,2987.04c1.21-.41,8.18,14.3,8.41,15.88,3.2,22.6-12.46-14.51-8.41-15.88Z"/>
                <path class="cls-7" d="M1997.78,3059.9c9.31-.82,12.44,5.17,7.47,5.6-.47.04-9.17-4.71-7.47-5.6Z"/>
              </g>
            </g>
            <g>
              <path class="cls-20" d="M1782,2370.52c1.84.15,3.8-.25,5.6,0-7.04,17.01,11.73,12.56,18.68,7.47,4.67,3.33,4.69,15.83,19.62,13.08,4.82,3.45.7,3.69.93,5.6-34.7-10.71-23.26,2.72-25.22,3.74-1.14.59-7.31-1.24-22.42,3.74,3.93,19.31-22.16,24.18,24.29,9.34-9.53,21.04,3.87,22.19-4.67,28.96q11.21,2.34,22.42,4.67c.11,3.94,2.1,9.6,3.74,13.08q-8.41,6.07-16.81,12.14,12.14.47,24.29.93c.25.43,7.63,5.38,7.47,6.54-.34,2.46-13.25,1.4-11.21,14.95.57,3.77,9.51,10.5,9.34,11.21-.31,1.31-14.78,3.43-13.08,15.88-8.67-.14-14.26,2.11-19.62-5.6,1.81,11.08-10,23.56-18.68,20.55-3.77-1.3-2.67-10.4-4.67-12.14-1.3-1.14-23.62,5.06-19.62,14.01-.22.16-3.38-3.81-3.74-3.74-18.17,3.73,3.92-2.89-13.08-11.21-30.96,15.94-9.74-7.41-34.56-4.67,22.01-3.67-.05-6.79,11.21-16.81q-9.34-3.74-18.68-7.47c1.8-10.78-3.6-16.09-3.74-17.75,14.01.7,18.95,15.21,31.76,12.14.92,8.21-1.29,26.5,0,29.89,7.2,18.94,2.41-24.87,11.21-18.68,2.45-20.11,13.07-64.45,13.08-14.95,17.5,38.53,12.62,14.71,14.95,11.21,12.65-19.06,23.61,1.43,24.29-11.21.12-2.16-10.63-7.44,5.6-13.08-9.46-7.95-9.84-25.06-25.22-15.88-.53-12.24-28.75-.38-18.68-16.81,50.59-17.77-7.03-10.93-9.34-9.34-8.26,5.7-1.61,11.87-7.47,16.81-1.78-6.14-5.68-4.5-9.34,0-13.58-11.28-.16-11.95-1.87-24.29-10.84,11.42-11.39,14.41-27.09,7.47.46-2.14-4.77-3.52-2.8-5.6,7.85-8.3,11.24,12.81,10.28-25.22-4.03-5.04-9.37-4.1-11.21-4.67-.28-.09.79-2.74-5.6-1.87.23-.04,1.2-3.42,2.8-3.74,3-.58,4.98,3.89,5.6,3.74,13.35-3.38,9.5-13.82,15.88-16.81,5.23-2.45,22.5,2.1,22.42,4.67-17.09,20.64-24.28,15.26-24.29,16.81,0,1.96,5.94-.21,7.47,1.87.69.94-12.9,12.34-.93,14.01,8.42,1.18,26.84-19.94,14.01,0-.2.31-5.91,1.09-5.6,4.67.3,3.49,6.82,3.61,5.6-4.67,13.89-2.35,16.46-10.24,29.89-15.88-13.49-10.1-13.61-14.91,3.74-10.28l.93,3.74c14.51-1,7.53-1.48-.93-3.74,9.7-16.49-11.89-18.87,13.08-16.81Z"/>
              <g>
                <path class="cls-44" d="M1832.44,2473.27q-12.14-.47-24.29-.93,8.41-6.07,16.81-12.14c1.91,4.05,5.13,9.1,7.47,13.08Z"/>
                <path class="cls-44" d="M1806.29,2377.99c-6.95,5.09-25.72,9.54-18.68-7.47,3.8.53,14.9,4.78,18.68,7.47Z"/>
                <path class="cls-53" d="M1784.8,2501.3c22.54-6.81-.96,5.59-.93,6.54.02.57,10.23,4.37,4.67,8.41-3.62,2.63-5.16-5.46-9.34-5.6-3.46-.12-35.03,30.04-20.55,5.6,2.78-4.7,17.77-6.3,20.55-7.47,2.7-1.14,3.09-6.71,5.6-7.47Z"/>
                <path class="cls-50" d="M1768.92,2387.33c8.46,2.26,15.44,2.73.93,3.74l-.93-3.74Z"/>
                <path class="cls-44" d="M1735.29,2413.49c1.22,8.28-5.31,8.16-5.6,4.67-.3-3.58,5.41-4.36,5.6-4.67Z"/>
              </g>
            </g>
          </g>
        </g>
        <path class="cls-28" d="M1662.43,2105.23c.65.13,1.4-.19,1.87,0,13.75,5.54,5.07,46.94,11.21,60.72-27.75-24.5,8.21,15.64-7.47,28.96-.45-.31-1.81-.17-9.34-5.6-23.55-17-22.66-36.81-28.96-20.55-2.9-2.13-2.58-3.68-2.8-3.74-4.08-7.75-5.24-23.86-3.74-31.76.25-1.31,4.3-10.31,5.6-12.14,1.42-1.99,19.3-15.53,20.55-15.88,1.41-.4,11.2-.38,13.08,0Z"/>
      </g>
    </g>
  </g>
</svg>