<?xml version="1.0" encoding="UTF-8"?>
<svg id="Layer_2" data-name="Layer 2" xmlns="http://www.w3.org/2000/svg" viewBox="0 0 215.52 73.69">
  <defs>
    <style>
      .cls-1 {
        fill: #0e1929;
        stroke-width: 0px;
      }
    </style>
  </defs>
  <g id="base_layer" data-name="base layer">
    <path class="cls-1" d="M17.54,44.11c-.39.06-.6.29-.84.45-1.27.82-2.63,1.41-4.13,1.65-.47.07-.92.04-1.37-.11-.85-.29-1.13-1.19-.57-1.9.22-.27.5-.5.77-.73,2.55-2.12,5.19-4.13,7.89-6.05.68-.49.66-.58-.05-1.05-.47-.31-.75-.08-1.08.19-1.48,1.25-3.06,2.35-4.7,3.38-1.49.94-3.03,1.81-4.67,2.49-1.5.62-3.01.61-4.56.26-.05-.01-.11-.02-.16-.04-.47-.16-.97-.33-1.09-.88-.12-.55.24-.95.63-1.24.88-.64,1.77-1.26,2.69-1.84,3.82-2.45,7.64-4.9,11.59-7.15.12-.07.24-.13.34-.22.18-.15.17-.33.05-.51-.1-.15-.24-.23-.42-.16-.15.06-.29.14-.44.22-3.34,1.71-6.79,3.18-10.31,4.48-1.96.72-3.95.55-5.95.23-.26-.04-.52-.16-.75-.3-.56-.35-.58-.83-.09-1.26.37-.32.81-.55,1.24-.79,2.77-1.52,5.66-2.78,8.56-4.01,1.8-.76,3.63-1.47,5.49-2.08.67-.22,1.36-.38,2.05-.55.25-.06.31-.18.26-.4-.06-.26-.22-.28-.43-.2-.68.26-1.37.53-2.06.79-2.19.81-4.4,1.57-6.64,2.24-2.14.64-4.24.5-6.33-.2-.49-.17-.95-.4-1.36-.72-.32-.26-.64-.55-.54-1.02.09-.43.46-.58.84-.68.97-.27,1.94-.53,2.91-.78,2.37-.61,4.74-1.2,7.11-1.81.28-.07.58-.13.82-.29-.06-.31-.24-.2-.38-.18-1.31.23-2.62.49-3.94.64-1.69.19-3.36.16-5.02-.26-.5-.13-.99-.3-1.42-.6-.25-.18-.47-.4-.42-.74.05-.35.34-.47.63-.57.7-.23,1.44-.28,2.16-.38,2.26-.31,4.52-.59,6.78-.88,2.21-.29,4.41-.59,6.62-.89.89-.12,1.78-.24,2.66-.39.6-.1.59-.12.61-.74.04-1.79.57-2.46,2.37-2.5,3.27-.08,6.47-.77,9.7-1.16,5.53-.67,11.02-1.57,16.48-2.64,2.77-.54,5.53-1.13,8.3-1.7.43-.09.85-.16,1.28-.22.9-.12,1.73-.02,2.58.44,2.9,1.55,5.74,3.22,8.76,4.53,4.7,2.04,9.57,3.57,14.59,4.57,1.52.3,3.06.42,4.62.39.51,0,.8-.18.98-.66.33-.89.7-1.77,1.06-2.65.24-.58.18-1.09-.29-1.56-.37-.36-.34-.5.05-.88.31-.3.67-.56,1.01-.82.25-.2.26-.39.03-.61-.33-.32-.67-.64-.98-.98-.54-.62-.82-1.34-.67-2.18.11-.57.29-.63.76-.29.11.08.21.17.32.25.62.52,1.32.89,2.05,1.25,1.07.54,2.01.47,3.1.18,3.63-.98,7.34-1.18,11.08-.98,1.6.09,3.19.32,4.74.74.95.26,1.71,0,2.38-.64.74-.69,1.38-1.46,1.82-2.38.08-.17.18-.34.29-.49.11-.14.25-.09.33.04.15.23.2.5.23.77.1.89-.08,1.73-.54,2.5-.16.26-.32.51-.48.76-.69,1.08-.36,2.19.79,2.74.29.14.74.06.84.41.11.36-.33.51-.52.76-.18.23-.25.45-.16.75.31,1.01.59,2.03.91,3.05.16.5.2.5.7.27,1.53-.7,3.07-1.4,4.59-2.12,3.84-1.82,7.07-4.45,9.9-7.59,1.47-1.64,2.83-3.37,4.26-5.05.49-.58,1.01-1.14,1.57-1.66,1.34-1.24,2.88-1.96,4.75-2.06,2.55-.13,5.1-.21,7.65-.32,5.13-.23,10.27-.21,15.4-.33,3.31-.08,6.63-.19,9.94-.34,2.91-.13,5.82-.06,8.72-.14.93-.03,1.55.36,2.04,1.1.29.44.49.91.62,1.41.2.78.31.88,1.1.92.76.04,1.52.1,2.27.15,2.76.21,5.51.54,8.26.81,2.94.3,5.88.64,8.82.99.73.09,1.46.13,2.19.2.64.06.76.26.5.85-.3.68-.84,1.13-1.48,1.47-.87.46-1.82.69-2.79.87-1.4.26-2.82.16-4.23.17-.42,0-.8-.16-1.19-.28-1.01-.3-2.02-.6-3.05-.84.88.52,1.85.83,2.8,1.17,3.85,1.37,7.81,2.29,11.87,2.81.43.05.86.11,1.29.17.64.09.79.35.53.95-.22.52-.59.91-1.07,1.2-1.16.71-2.45,1.02-3.78,1.19-.94.12-1.88.15-2.94.14.29.27.56.32.8.42,1.82.72,3.64,1.43,5.46,2.15.23.09.46.18.68.28.45.21.47.32.14.72-.86,1.04-2.03,1.43-3.32,1.49-1.4.06-2.75-.28-4.08-.7-2.4-.75-4.63-1.87-6.86-3.01-1.93-.99-3.86-2.01-5.8-2.99-1.59-.81-3.35-1.11-5.03-1.62-.19-.06-.37-.05-.51.13-.18.22-.14.42.13.47.48.09.97.13,1.45.23,1.94.4,3.74,1.18,5.42,2.19,4.1,2.47,8.04,5.19,11.77,8.19.53.43,1.04.88,1.49,1.39.52.59.47.76-.26,1-1.36.44-2.73.36-4.1.05-1.88-.43-3.57-1.29-5.23-2.24-1.89-1.08-3.67-2.33-5.48-3.54-1.52-1.01-3.04-2.01-4.65-2.86-.29-.15-.58-.3-.88-.44-.5-.23-.5-.22-.66.28-.32,1-.31.99.56,1.53,3.09,1.93,6.04,4.07,9.03,6.16,1.83,1.27,3.65,2.57,5.46,3.86.8.57.77.83-.1,1.26-.37.18-.77.27-1.18.31-1.91.16-3.73-.2-5.47-1-2.39-1.1-4.5-2.63-6.56-4.23-1.07-.83-2.14-1.68-3.22-2.5-.23-.18-.44-.41-.8-.45,0,.8.25,1.35.96,1.82,2.64,1.78,5.08,3.83,7.43,5.97.16.15.32.3.45.47.49.6.25,1.24-.52,1.37-.4.07-.81.03-1.21-.05-1.12-.24-2.16-.71-3.25-1.17-.08.24.1.36.18.51.54.96.29,1.51-.79,1.79-.82.21-1.63.04-2.42-.14-1.38-.33-2.63-.89-3.44-2.14-.18-.27-.36-.31-.58-.07-.18.2-.37.4-.54.61-.19.23-.39.45-.63.63-.94.7-1.12.7-2.08.03-.1-.07-.21-.13-.34-.15.24.37.58.64.91.91.47.39.5.65.07,1.07-.64.63-1.43.87-2.32.75-1.04-.14-1.99-.54-2.86-1.12-.52-.35-1.02-.71-1.58-1.09-.17.27-.08.54-.09.8-.04,1.47-1.17,2.42-2.62,2.15-1.18-.21-2.05-.95-2.84-1.8-.09-.1-.16-.22-.25-.32q-.34-.43-.79-.04c-.31.27-.61.53-.93.79-.69.57-1.29.54-1.96-.08-.38-.35-.76-.7-1.12-1.07-.29-.29-.55-.27-.84.01-.27.26-.57.49-.82.79-.57.7-1.32.81-2.07.28-.31-.22-.56-.51-.86-.74-.45-.35-.67-.32-1.04.11-.11.12-.19.26-.3.39-.68.82-1.28.9-2.21.37-.32-.18-.54-.64-.96-.51-.34.1-.45.53-.66.8-.63.84-1.37.88-2.09.28-.66-.56-.85-.49-1.33.24-.22.34-.42.7-.66,1.03-.29.39-.49.42-.9.16-.32-.21-.59-.48-.92-.68-.49-.3-.8-.19-1.04.33-.16.35-.2.73-.26,1.11-.13.82-.49,1.01-1.25.65-.27-.13-.52-.3-.77-.45-.28-.17-.46-.09-.54.23-.07.32-.12.64-.22.95-.21.66-.61.84-1.26.59-.43-.17-.79-.47-1.17-.74-.24-.17-.41-.13-.45.18-.05.35-.13.7-.28,1.02-.3.65-.72.83-1.39.58-.08-.03-.15-.07-.22-.1-.25-.1-.46-.39-.73-.3-.32.1-.16.48-.26.71-.15.37-.36.5-.77.38-.28-.08-.56-.22-.82-.35-.29-.14-.44-.07-.56.23-.53,1.33-.54,1.32-1.95,1.19-.43-.04-.85-.08-1.11.44-.24.48-.73.64-1.19.41-1.02-.51-1.97-.22-2.98.04-1.55.4-3.16.54-4.75.72-.54.06-1.08.13-1.62.16-.66.03-.66.01-.9-.65-.03-.08-.07-.15-.16-.17-.13,0-.19.09-.22.2-.23.87-.45,1.74-.7,2.6-.11.38.04.54.37.68,3.07,1.24,6.06,2.7,9.14,3.91.18.07.36.18.55.13.93-.25,1.71.17,2.48.57.88.46,1.78.78,2.78.84.4.02.81.1,1.2.2.54.14,1.25.16,1.37.83.12.67-.54.93-1,1.24-.66.44-1.39.74-2.12,1.03-.41.16-.54.38-.4.8.13.41.2.85.26,1.28.19,1.31-.39,2.4-1.63,2.86-.72.26-.99.64-.9,1.39.1.82-.34,1.4-.98,1.84-.46.31-.96.51-1.49.63-.4.1-.61.29-.63.72-.03.49-.15.97-.36,1.41-.43.92-1.15,1.42-2.17,1.47-.6.03-1.19-.04-1.78-.14-.74-.12-.82-.04-.95.7-.24,1.41-1.38,2.2-2.78,1.94-.46-.08-.9-.21-1.32-.41-.39-.18-.61-.06-.74.33-.13.36-.26.72-.42,1.06-.49,1.07-1.59,1.92-3.14,1.62-.65-.12-1.26-.33-1.86-.59-.74-.31-.75-.32-1.27.33-.52.64-1.12,1.19-1.82,1.61-1.29.78-2.57.76-3.84-.06-.5-.33-.97-.7-1.38-1.14-.27-.29-.53-.32-.87-.13-.42.24-.86.46-1.31.67-.77.35-1.56.59-2.43.59-1.03,0-1.78-.41-2.34-1.24-.96-1.41-1.11-1.37-2.59-.46-.47.29-.92.4-1.47.26-1.08-.27-1.93-.85-2.52-1.8-.29-.46-.53-.95-.71-1.46-.25-.71-.78-1.02-1.5-1.04-.62-.01-1.25.01-1.88,0-1.21-.01-1.77-.47-2.08-1.65-.13-.48-.13-.97-.12-1.46.01-.41-.13-.66-.53-.8-1.09-.37-1.74-1.16-2.09-2.23-.38-1.18-1.12-2.09-2.17-2.76-.58-.37-.58-.46,0-.83,1.03-.66,2.11-1.24,3.21-1.78,2.65-1.31,5.01-3.06,7.41-4.74,1.4-.98,2.76-2.03,4.13-3.05.56-.42.61-.62.35-1.25-.53-1.29-1.33-2.43-2.06-3.6-.26-.41-.54-.21-.83-.04-1.86,1.1-3.9,1.63-6.03,1.85-1.65.17-3.31.16-4.97.17-.44,0-.87.04-1.29.15-.4.1-.8.23-1.03.6-.19.31-.41.28-.69.15-.25-.11-.5-.23-.76-.3-.64-.19-1.29-.25-1.89.14-.68.45-1.33.36-1.99-.03-.12-.07-.23-.14-.34-.22-.31-.22-.6-.57-.94-.62-.4-.06-.5.5-.82.71-.45.31-.91.45-1.46.3-.68-.19-1.22-.57-1.74-1.02-.44-.38-.46-.38-.86.02-.25.25-.48.52-.73.76-.44.44-.97.51-1.49.19-.74-.45-1.51-.86-2.05-1.58-.31-.42-.38-.41-.74,0-.33.37-.65.73-1.03,1.04-.29.24-.57.27-.89.06-.48-.31-.97-.6-1.44-.92-.32-.22-.57-.22-.88.03-.37.31-.77.61-1.18.87-.74.48-1,.43-1.59-.23-.15-.16-.3-.31-.49-.42-.35-.2-.67-.21-.95.12-.21.24-.44.48-.65.73-.78.91-1.65.98-2.55.22-.08-.07-.16-.14-.25-.21-.65-.55-.83-.53-1.32.16-.19.27-.33.57-.55.81-.71.81-1.73.85-2.52.12-.34-.32-.6-.69-.82-1.11-.3-.6-.45-.63-.95-.18-.43.38-.81.8-1.23,1.2-.35.34-.7.69-1.1.97-1.05.75-1.88.54-2.47-.59-.16-.31-.27-.65-.4-.98-.22-.56-.35-.62-.67-.16-.45.63-1.04,1.11-1.56,1.66-.88.95-1.98,1.2-3.2.87-1.06-.28-1.5-1.05-1.26-2.11.04-.16.11-.31.16-.46.05-.17.25-.35.06-.51-.18-.15-.41-.08-.62.01-.07.03-.14.09-.2.14-1.15,1.06-2.53,1.79-3.88,2.54-.69.38-1.41.7-2.23.7-.89,0-1.44-.36-1.76-1.18-.1-.25-.15-.52-.22-.78-.2-.76-.85-1.06-1.53-.69-.98.53-1.98,1.03-3.03,1.41-.44.16-.88.28-1.35.26-1.13-.03-1.59-.67-1.21-1.72.13-.36.32-.69.48-1.03.12-.27.33-.5.38-.89Z"/>
  </g>
</svg>