<?xml version="1.0" encoding="UTF-8"?>
<svg id="Layer_2" data-name="Layer 2" xmlns="http://www.w3.org/2000/svg" viewBox="-2000 -400 4000.38 2547.62">
  <defs>
    <style>
      .cls-1 {
        fill: #f6e8e9;
      }

      .cls-1, .cls-2, .cls-3, .cls-4, .cls-5, .cls-6, .cls-7, .cls-8, .cls-9, .cls-10, .cls-11, .cls-12, .cls-13, .cls-14, .cls-15, .cls-16, .cls-17, .cls-18, .cls-19, .cls-20, .cls-21, .cls-22, .cls-23, .cls-24, .cls-25, .cls-26, .cls-27, .cls-28, .cls-29, .cls-30, .cls-31, .cls-32, .cls-33, .cls-34, .cls-35, .cls-36, .cls-37, .cls-38, .cls-39, .cls-40, .cls-41, .cls-42, .cls-43, .cls-44, .cls-45, .cls-46, .cls-47, .cls-48, .cls-49, .cls-50, .cls-51, .cls-52, .cls-53, .cls-54, .cls-55, .cls-56, .cls-57, .cls-58, .cls-59, .cls-60, .cls-61, .cls-62, .cls-63, .cls-64, .cls-65, .cls-66, .cls-67, .cls-68, .cls-69, .cls-70, .cls-71, .cls-72, .cls-73, .cls-74, .cls-75, .cls-76, .cls-77, .cls-78, .cls-79, .cls-80, .cls-81, .cls-82, .cls-83, .cls-84, .cls-85, .cls-86, .cls-87, .cls-88, .cls-89, .cls-90, .cls-91, .cls-92, .cls-93, .cls-94, .cls-95, .cls-96, .cls-97, .cls-98 {
        stroke-width: 0px;
      }

      .cls-2 {
        fill: #fac7a5;
      }

      .cls-3 {
        fill: #48a8c5;
      }

      .cls-4 {
        fill: #5da39c;
      }

      .cls-5 {
        fill: #775b53;
      }

      .cls-6 {
        fill: #7694ad;
      }

      .cls-7 {
        fill: #614434;
      }

      .cls-8 {
        fill: #48949a;
      }

      .cls-9 {
        fill: #456d8a;
      }

      .cls-10 {
        fill: #77394b;
      }

      .cls-11 {
        fill: #7a685e;
      }

      .cls-12 {
        fill: #7c4f42;
      }

      .cls-13 {
        fill: #523f58;
      }

      .cls-14 {
        fill: #4e2724;
      }

      .cls-15 {
        fill: #2c191a;
      }

      .cls-16 {
        fill: #2b8591;
      }

      .cls-17 {
        fill: #2c3437;
      }

      .cls-18 {
        fill: #474546;
      }

      .cls-19 {
        fill: #2a1b12;
      }

      .cls-20 {
        fill: #635a49;
      }

      .cls-21 {
        fill: #643855;
      }

      .cls-22 {
        fill: #6d5a4b;
      }

      .cls-23 {
        fill: #9b5f3d;
      }

      .cls-24 {
        fill: #6e7b6e;
      }

      .cls-25 {
        fill: #89705b;
      }

      .cls-26 {
        fill: #a36453;
      }

      .cls-27 {
        fill: #9ba5a7;
      }

      .cls-28 {
        fill: #6f1f2d;
      }

      .cls-29 {
        fill: #9b4642;
      }

      .cls-30 {
        fill: #93bdab;
      }

      .cls-31 {
        fill: #3a162b;
      }

      .cls-32 {
        fill: #385a66;
      }

      .cls-33 {
        fill: #3d3034;
      }

      .cls-34 {
        fill: #392239;
      }

      .cls-35 {
        fill: #5a5c5c;
      }

      .cls-36 {
        fill: #2f2831;
      }

      .cls-37 {
        fill: #2e313d;
      }

      .cls-38 {
        fill: #1b1b1b;
      }

      .cls-39 {
        fill: #191a2b;
      }

      .cls-40 {
        fill: #0c2729;
      }

      .cls-41 {
        fill: #0d4968;
      }

      .cls-42 {
        fill: #3f3c34;
      }

      .cls-43 {
        fill: #3f464f;
      }

      .cls-44 {
        fill: #3f3026;
      }

      .cls-45 {
        fill: #371312;
      }

      .cls-46 {
        fill: #0e1929;
      }

      .cls-47 {
        fill: #422929;
      }

      .cls-48 {
        fill: #08616f;
      }

      .cls-49 {
        fill: #a8a6a5;
      }

      .cls-50 {
        fill: #1f181e;
      }

      .cls-51 {
        fill: #1e1221;
      }

      .cls-52 {
        fill: #1e1a12;
      }

      .cls-53 {
        fill: #1d737a;
      }

      .cls-54 {
        fill: #112a40;
      }

      .cls-55 {
        fill: #c78e75;
      }

      .cls-56 {
        fill: #ce6463;
      }

      .cls-57 {
        fill: #afb5c1;
      }

      .cls-58 {
        fill: #cc647f;
      }

      .cls-59 {
        fill: #c5d7e3;
      }

      .cls-60 {
        fill: #e2b69d;
      }

      .cls-61 {
        fill: #ab4b6a;
      }

      .cls-62 {
        fill: #beb3b5;
      }

      .cls-63 {
        fill: #a69497;
      }

      .cls-64 {
        fill: #c16b3b;
      }

      .cls-65 {
        fill: #ab6f44;
      }

      .cls-66 {
        fill: #a4d2e0;
      }

      .cls-67 {
        fill: #d97177;
      }

      .cls-68 {
        fill: #aac1a4;
      }

      .cls-69 {
        fill: #cdb6b0;
      }

      .cls-70 {
        fill: #936a61;
      }

      .cls-71 {
        fill: #8b5827;
      }

      .cls-72 {
        fill: #8c482c;
      }

      .cls-73 {
        fill: #8c8f9c;
      }

      .cls-74 {
        fill: #c39594;
      }

      .cls-75 {
        fill: #b69b96;
      }

      .cls-76 {
        fill: #74311c;
      }

      .cls-77 {
        fill: #98b9c8;
      }

      .cls-78 {
        fill: #323134;
      }

      .cls-79 {
        fill: #8da7c4;
      }

      .cls-80 {
        fill: #8e475d;
      }

      .cls-81 {
        fill: #8c897f;
      }

      .cls-82 {
        fill: #6d2340;
      }

      .cls-83 {
        fill: #6c6372;
      }

      .cls-84 {
        fill: #986d57;
      }

      .cls-85 {
        fill: #987d69;
      }

      .cls-86 {
        fill: #81282e;
      }

      .cls-87 {
        fill: #7d6f79;
      }

      .cls-88 {
        fill: #a25b65;
      }

      .cls-89 {
        fill: #a08c7a;
      }

      .cls-90 {
        fill: #a08793;
      }

      .cls-91 {
        fill: #7e3d5d;
      }

      .cls-92 {
        fill: #73acab;
      }

      .cls-93 {
        fill: #656e6f;
      }

      .cls-94 {
        fill: #ef7869;
      }

      .cls-95 {
        fill: #ead7a6;
      }

      .cls-96 {
        fill: #e7aa97;
      }

      .cls-97 {
        fill: #e9eced;
      }

      .cls-98 {
        fill: #696664;
      }
    </style>
  </defs>
  <g id="woman">
    <g>
      <g>
        <path class="cls-3" d="M362.55,1879.58c1.55,2.41,37.04,40.43,39.75,41.34,33.39,11.24,9.17-22.05,25.44-22.26,2.24-.03,24.9,21.95,31.8,25.44.58.3,5.41-6.31,12.72-3.18,5.97,2.55,9.2,14.91,12.72,15.9,19.53,5.51,4.57-54.27,28.62-57.24,9.48-1.17,41.6,30.89,50.88,38.16,2.81,2.2,6.38-4.52,7.95-3.18.56.48-2.38,4.22,9.54,11.13v81.1c-8.75.5-17-1.55-25.44-3.18-2.99-.58-6.45.34-9.54,0-73.81-58.57-84.43,19.68-203.54-38.16-9.01-11.07-4.42-22.85-3.18-34.98,1.31-12.78,8.86-55.84,22.26-50.88Z"/>
        <path class="cls-1" d="M1415.22,1761.91c2.69,7.11,25.62,25.33,28.62,31.8,5.71,12.32,9.2,34.81-9.54,38.16-.43-28.15-13.37-40.77-36.57-54.06-11.88,1.55,5.76,15.28-11.13,28.62-7.97-17.15-22.11-19.02-38.16-22.26-28.47-5.76-43.8-1.21-69.97,0-21.56-17.32-34.09-9.02-58.83-12.72-9.68,3.67-15.85,13.5-23.85,19.08-12.7,8.85-13.43,15.29-14.31,15.9-6.91,4.82-44.87,11.12-4.77,6.36.65,11.02,10.78,12.49,0,19.08-9.64-2.14-30.39,1.54-42.93,0-15.22-3.78-59.72-76.01-68.38-28.62-3.17,17.34,5.41,24.2,12.72,38.16-9.65-.62-10.65,3.29-12.72,3.18-43.94-45.58-114.2-6.14-54.06,3.18,3.83,27.07-19.36,3.78-54.06,31.8-34.61.93-92.64-1.24-117.67,28.62-5.19,6.19-3.97,15.96-9.54,22.26-50.19,1.12-27.94,4.99-54.06,12.72-17.27-14.17-42-51.63-44.52-54.06,11.23,1.3,12.01-15.18,12.72-15.9.9-.91,2.88-2.93,3.18-3.18,1.15-.97,20.82-4.14,25.44-15.9,20.12-7.48,24.62,6.14,52.47-3.18,17.59,6.61,4.37,23.32,27.03,22.26,17.84-.83,33.13-30.25,34.98-31.8,14.26-11.96,51.11-45.64,54.06-47.7,5.57-3.89,21.2-14.69,25.44-15.9,38.07-10.83,61.53,5.66,84.28,3.18,4.94-3.62,4.38-6.27,4.77-6.36,18.66-4.54,12.7-4.56,22.26-9.54,26.72-13.92,33.08-24.42,34.98-25.44.82-.44,2.33.42,3.18,0,4.95-2.47,13.3-1.72,17.49-3.18,5.65-1.96,4.25-9.42,4.77-9.54,7.67-1.77,149.65,1.96,157.42,3.18,13.04,2.04,79.75,27.77,95.41,31.8,6.84,1.76,16.66,1.53,23.85,0Z"/>
        <path class="cls-48" d="M915.92,1927.28c-.19,2.05-.19,4.31,0,6.36.19,2.05-.4,4.44,0,6.36-16.85,10.87-31.7,11.52-34.98,12.72-25.79-3.25-82.92-16.69-98.59,3.18-5.05,6.41-8.92.96-3.18,19.08-33.55-9.89-62.62,13.72-93.82,6.36-6.61,19.03-21.65,10.71-25.44,12.72-8.26,4.38-15.09,16.74-23.85,22.26-26.57,16.76-50.51,21.25-77.92-3.18-2.83-2.52-1.34-6.25-1.59-9.54,8.45,1.63,16.69,3.68,25.44,3.18,48.77-2.79,68.16-27.7,76.33-31.8,1.53-.77,7.21.49,11.13,0,3.84-23.34,48.04-15.41,84.28-25.44,7.43-2.06,14.86-4.17,22.26-6.36,26.12-7.73,3.87-11.6,54.06-12.72,17.96-.4,43.15,13,66.79-9.54.84.56,17.59,8.27,19.08,6.36Z"/>
        <path class="cls-3" d="M639.23,1901.84c.54.66,5.33,13.19,6.36,15.9,2.87,7.51,10.43,18.32,4.77,22.26-21.91-13.19-20.72,1.78-34.98,0-49.19-34.03-21.82,6.02,42.93,34.98-8.17,4.11-27.55,29.01-76.33,31.8v-81.1c-11.92-6.91-8.98-10.65-9.54-11.13-1.41-18.29,37.95-26.67,47.7-25.44,1.14.14,16.62,9.71,19.08,12.72Z"/>
        <path class="cls-68" d="M1033.59,1940c17.83-14.45,31.97-27.54,41.34-47.7,48.98,71.73,124.91,111.78,120.85,119.26-58.13-9.55-111.99-40.76-162.19-71.56Z"/>
        <path class="cls-53" d="M1052.67,1850.96c3.95,12.21,12.14,27.47,19.08,38.16q-47.7,6.36-95.41,12.72c-5.85-3.94-11.41-9.28-19.08-9.54,3.83-7.52.36-5.05,0-12.72,34.71-28.02,57.9-4.74,54.06-31.8,2.05.32,36.47,2.92,41.34,3.18Z"/>
        <path class="cls-68" d="M950.9,1901.84c34.05,73.57,106.85,109.37,174.91,144.7-5.67,6.81-63.04-20.62-74.74-27.03-29.2-16.01-119.52-82.13-128.8-85.87,5.61-7.51,14.67-8.78,22.26-12.72,1.29-.67,18.36,9.3-9.54-17.49,6.11-9.94,11.97.74,15.9-1.59Z"/>
        <path class="cls-48" d="M957.26,1879.58c.36,7.67,3.83,5.2,0,12.72-.92,1.81-5.87,9.25-6.36,9.54-3.93,2.33-9.79-8.35-15.9,1.59,27.9,26.79,10.83,16.82,9.54,17.49-23.97-15.22-26.17-19.7-28.62,6.36-1.49,1.91-18.24-5.8-19.08-6.36-2.68-1.78,2.77-22.03-57.24-12.72,25.03-29.86,83.06-27.69,117.67-28.62Z"/>
        <path class="cls-4" d="M1071.75,1889.12c.12.19.71-.44,3.18,3.18-9.37,20.17-23.51,33.26-41.34,47.7-19.8-12.15-38.05-25.23-57.24-38.16q47.7-6.36,95.41-12.72Z"/>
        <path class="cls-92" d="M928.64,1962.26c-51.62,26.64-33.02,48.64-89.05,6.36,6.88-3.39,31.57-12.32,41.34-15.9,3.28-1.2,18.14-1.85,34.98-12.72.26,1.26,10.5,18.02,12.72,22.26Z"/>
        <path class="cls-4" d="M1065.39,1844.59c-2.69-.14-10.03,6.5-12.72,6.36-4.87-.26-39.29-2.86-41.34-3.18-60.13-9.32,10.13-48.76,54.06-3.18Z"/>
        <path class="cls-30" d="M944.54,1920.92c-7.59,3.94-16.65,5.21-22.26,12.72-1.14-.46-4.11.25-6.36,0-.19-2.05-.19-4.31,0-6.36,2.45-26.06,4.65-21.58,28.62-6.36Z"/>
        <path class="cls-59" d="M731.46,1889.12c2.52,2.43,27.25,39.9,44.52,54.06-7.4,2.19-14.83,4.3-22.26,6.36-4.85-23.83-73.56-39.37-25.44-63.61,1.32,1.18,2.12,2.16,3.18,3.18Z"/>
        <path class="cls-97" d="M896.83,1920.92c-23.64,22.55-48.83,9.14-66.79,9.54,5.57-6.31,4.35-16.07,9.54-22.26,60.02-9.31,54.57,10.94,57.24,12.72Z"/>
        <path class="cls-1" d="M1278.47,1784.17c-21.06.97-47.28,11.32-82.69,6.36,8-5.58,14.17-15.42,23.85-19.08,24.75,3.7,37.27-4.6,58.83,12.72Z"/>
        <path class="cls-97" d="M728.28,1885.94c-48.12,24.23,20.59,39.78,25.44,63.61-36.24,10.03-80.44,2.1-84.28,25.44-3.92.49-9.6-.77-11.13,0-64.75-28.96-92.12-69.01-42.93-34.98,14.26,1.78,13.07-13.19,34.98,0,5.66-3.94-1.9-14.75-4.77-22.26,27.4,7.56,47.29,24.78,76.33,11.13-26.29-11.31-67.88-74.53-82.69-27.03-2.46-3.01-17.94-12.58-19.08-12.72,8.83-37.84,41.47-58.27,65.2-15.9,9.27-12.52,32.86,3.67,42.93,12.72Z"/>
        <path class="cls-3" d="M298.94,1866.86c-19.75,28.6-81.38,87.17-92.23,103.36-23.73,35.39-15,78.54-50.88,52.47.28-1.09-3.52-2.79,3.18-22.26,13.27-38.56,38.99-66.48,9.54-66.79,5.61-28.86-18.8-73.78-25.44-55.65-1.68,4.58.9,12.54-3.18,23.85q-9.54-6.36-19.08-12.72c-.28-.47-5.11,1.25-6.36-1.59.27-7.28.12-17.35-3.18-23.85,4.98.19,22.63-6.56,23.85-6.36,2.94.49,46.12,33.4,42.93,3.18,37.14,8.18,33.41-26.5,39.75-28.62,2.73-.91-.53,22.05,42.93-25.44,27.85,44.82,67.45,18.02,38.16,60.43Z"/>
        <path class="cls-16" d="M779.16,1974.99c.35,1.09,4.11,4.61,12.72,19.08-7.33,7.87-32.27,3.28-47.7,6.36-5.4,1.08-14.57,4.43-17.49,0-3.66,1.06-22.51,16.14-27.03,19.08-21.34.99-45.62,8.27-63.61-3.18,8.76-5.53,15.59-17.88,23.85-22.26,3.79-2.01,18.83,6.3,25.44-12.72,31.2,7.36,60.27-16.25,93.82-6.36Z"/>
        <path class="cls-95" d="M833.23,1997.25c3.42,3.31,10.02,9.67,12.72,12.72,2.91,3.28,20.59,21.79,19.08,23.85q-20.67-.8-41.34-1.59c-3.04-3.76-17.23-16.42-19.08-19.08-3.96-5.7-9.24-13.23-12.72-19.08-8.61-14.47-12.37-17.99-12.72-19.08-5.74-18.12-1.87-12.68,3.18-19.08,14.39,14.43,37.42,28.31,50.88,41.34Z"/>
        <path class="cls-16" d="M880.93,1952.72c-9.78,3.58-34.46,12.51-41.34,15.9-2.1,1.04-11.93,2.19-12.72,4.77-.36,1.18,8.28,11.7,6.36,23.85-13.46-13.04-36.49-26.91-50.88-41.34,15.67-19.87,72.8-6.43,98.59-3.18Z"/>
        <path class="cls-66" d="M645.59,1917.74c-1.03-2.71-5.82-15.24-6.36-15.9,14.8-47.49,56.4,15.72,82.69,27.03-29.03,13.65-48.93-3.57-76.33-11.13Z"/>
        <path class="cls-8" d="M744.18,2000.43q-7.95,5.57-15.9,11.13c28.9,15.57-9.32,7.06-28.62,7.95,4.52-2.94,23.37-18.02,27.03-19.08,2.92,4.43,12.09,1.08,17.49,0Z"/>
      </g>
      <g>
        <path class="cls-15" d="M915.92,289.45q-11.13,11.13-22.26,22.26c-3.08-31.85-16.32-87.1-3.18-55.65,1.71,4.1,5.11,29.7,6.36,31.8,5.91,9.89,12.86-1.41,19.08,1.59Z"/>
        <path class="cls-50" d="M944.54,464.36c.5-.09,6.3-6.3,7.95-6.36,4.7-.18,24.98,8.72-7.95,6.36Z"/>
        <path class="cls-38" d="M159.01,737.86c.1,1.04-.19,2.18,0,3.18-.51,2.17-2.03,4.53-3.18,6.36-1.85,2.94-4.12,7.06-6.36,9.54-23.4,25.82-52.01,45.85-76.33,69.97-22.49,22.3,2.37,28.33-38.16,23.85,27.82,6.06,27.64,22.7,30.21,23.85,4.57,2.05,4.51-3.31,4.77-3.18,3.28,1.59,10.91-3.24,15.9,4.77.47.75-2.38,4.33-3.18,17.49-19.48-26.59-.5,33.72-33.39-22.26,4.48,19.76,91.3,207.45,108.13,200.36,4.58-1.93-11.63-9.69-7.95-19.08,1.25.29,6.08-6.02,25.44,3.18-3.5,6.45-12.52,10.31-12.72,11.13-.25,1.03,7.91,5.09,6.36,9.54-4.88,14.06-23.75,9.88-3.18,33.39,3.04,3.47-1.39,21.31,22.26-9.54.4.41,7.32-1.69,9.54,6.36-4.19,5.61-14.06,13.49-15.9,19.08-.24.73-10.65,6.64,6.36,6.36-.6,3.81-13.64,9.42,6.36,19.08-3.42,15.13-15.62,9.63-3.18,27.03-1.03,5.08-19.26,5.09-9.54,17.49q-6.36-4.77-12.72-9.54v-20.67c-90-83.95-39.66-72.57-38.16-85.87.83-7.35-58.12-114.44-66.79-131.98-20.24-40.98-37.19-83.02-63.61-120.85,2.55-.82,8.29-2.61,9.54-3.18,9.18,7.83,21.35,4.1,28.62-6.36,13.87,13.01,14.88.17,15.9,0,11.12-1.89,36.62-5.71,38.16-22.26,13.95-5.29,44.08-37.19,50.88-50.88.18-.36,5.5-1.84,6.36-4.77,1.14-3.9-.83-11.9,0-17.49,8.32-9.94,8.66,6.73,9.54,15.9Z"/>
        <g>
          <path class="cls-54" d="M101.77,1364.37c-26.56-49.97,11.73-66.72,12.72-77.92.35-3.98-10.47.97-3.18-17.49,15.99,29.02,15.65-3.38,31.8-12.72-15.39,55.42-2.82,54.93-41.34,108.13Z"/>
          <path class="cls-41" d="M143.11,1256.25c-16.15,9.34-15.82,41.74-31.8,12.72,6.97-17.65,34.03-48.27,47.7-63.61-4.18,17.76-11.11,33.63-15.9,50.88Z"/>
        </g>
        <path class="cls-5" d="M82.69,893.7c-.17,2.73-3.34,2.94-3.18,9.54,0,.22-3.38-.87-3.18,3.18.5,10.31,60.49,142.77,66.79,147.88,3.47,2.82,3.27-2.3,6.36-1.59-3.68,9.39,12.53,17.15,7.95,19.08-16.83,7.09-103.65-180.59-108.13-200.36,32.89,55.98,13.91-4.33,33.39,22.26Z"/>
        <path class="cls-84" d="M200.36,1087.69c.88,2.12,1.24,11.55,3.18,15.9-.21.29-6.15,2.9-6.36,3.18-2.22-8.05-9.14-5.95-9.54-6.36-.61-.64-5.97-15.83-7.95-15.9-4.88-.18-3.59,18.24-14.31,25.44-20.57-23.52-1.7-19.33,3.18-33.39,1.55-4.45-6.61-8.51-6.36-9.54.2-.82,9.22-4.68,12.72-11.13,1.22-2.25,3.54-4.92,6.36-9.54,1.84-3.02,4.34-6.47,6.36-9.54,43.02-33.14.44,17.66,0,27.03-.29,6.23,12.15,22.48,12.72,23.85Z"/>
        <path class="cls-70" d="M187.64,1132.22c-17.01.28-6.6-5.63-6.36-6.36,2.66.12,6.72,4.06,6.36,6.36Z"/>
        <g>
          <path class="cls-29" d="M741,1424.8c1.83.4,15.43,5.05,19.08,6.36,62.5,22.5,124.78,48.76,187.64,69.97,4.92,1.66.89,10.44,15.9,3.18.31.6,9.68,5.12,9.54,9.54.5,3.64,4.31,5.37,6.36,7.95q-6.36,2.39-12.72,4.77l-3.18,6.36c-12.01-4.61-12.06-6.11-12.72-6.36-1.8-.68-9.31-10.02-33.39-19.08-53.84-11.86-145.79-55.31-189.23-66.79-1.76-10.25,2.89-13.59,3.18-15.9,6.22,6.32,9.07-.1,9.54,0Z"/>
          <g>
            <path class="cls-60" d="M979.52,1259.43c1.04.14,2.15-.17,3.18,0-1.21,9.18,16.97,9.78,25.44,9.54,2.5,2.97-2.41,23.54,15.9,22.26-5.31,4.2-10.55,8.51-15.9,12.72-4.16-1.45-11.89-12.37-12.72-12.72-20.51-8.78-46.78,5.74-42.93-12.72-14.05,20.12-71.92,26.65-36.57-1.59-45.64-22.38,44.09-20.04,63.61-17.49Z"/>
            <g>
              <path class="cls-46" d="M909.56,1243.52c16.73,2.03,35.91,9.68,52.47,12.72,9.74,1.79,14.55-7.1,17.49,3.18-19.52-2.55-109.24-4.89-63.61,17.49-35.35,28.24,22.52,21.71,36.57,1.59-3.85,18.46,22.43,3.94,42.93,12.72q-38.16,10.34-76.33,20.67c23.73-3.56,80.18,3.05,20.67,11.13-2.05.28-15.66-12.15-36.57,11.13,55.52-8.71,75,10.26,30.21,14.31-1.88,10.78-65.94,38.18-9.54,28.62.77-.13,3.53-4.43,7.95-6.36.47,2.34,2.07,4.24,3.18,6.36.61,1.16-1.31,5.37,1.59,6.36,3.95,1.35,111.51-1.45,60.43,9.54-13.34,2.87-67.56-3.43-68.38,1.59,80.38,29.87,178.89,39.46,85.87,36.57-56.2-12.18-70.97-44.69-54.06,7.95-18.39,14.35-4.53,41.45-12.72,62.02-62.86-21.2-125.13-47.47-187.64-69.97-16.31-34.68-7.96-55.49,4.77-50.88,9.96,3.6.83,15.81,1.59,17.49.59,1.3,4.17-5.77,23.85,11.13-7.64-59.45,24.37-2.28,33.39-27.03,2.56-7.03-6.08-28.59-38.16-22.26,19.3-20.88,28.58-20.21,28.62-22.26.03-1.57-12.08-5.25-12.72-25.44,36.59-1.21,23.18-9.54,31.8-39.75,5.88,52.65,12.28,10.54,14.31,9.54,1.53-.75,10.87,30.39,20.67,17.49-8.72-41.21,28.37-40.73-31.8-39.75,12.96-16.16,24.64-3.34,22.26-19.08,17.98-.07,33,1.01,50.88,3.18Z"/>
              <g>
                <path class="cls-62" d="M764.85,1418.44c.53-.19,8.14,7.42,7.95,7.95-2.29,6.41-14.36-5.66-7.95-7.95Z"/>
                <g>
                  <path class="cls-96" d="M1008.14,1303.95c-19.76,15.53-57.49,58.56-76.33,66.79-4.42,1.93-7.18,6.23-7.95,6.36-56.4,9.56,7.66-17.84,9.54-28.62,44.79-4.05,25.31-23.02-30.21-14.31,20.91-23.28,34.52-10.85,36.57-11.13,59.5-8.08,3.06-14.69-20.67-11.13q38.16-10.34,76.33-20.67c.83.35,8.57,11.27,12.72,12.72Z"/>
                  <path class="cls-69" d="M833.23,1272.15c1.21-4.23-.78-7.79,3.18-12.72,60.18-.98,23.08-1.46,31.8,39.75-9.8,12.9-19.14-18.24-20.67-17.49-2.03,1-8.43,43.11-14.31-9.54Z"/>
                  <path class="cls-75" d="M818.92,1323.03c1.85-2.02,52.39,6.54,52.47,11.13-28.75,16.99-65.62,3.24-52.47-11.13Z"/>
                  <path class="cls-74" d="M834.82,1361.19c2.79-1.43,22.16,1.42,25.44,3.18,37.14,19.88-61.21,15.11-25.44-3.18Z"/>
                  <path class="cls-63" d="M799.84,1393c5.99-4.25,33.13-.26,23.85,14.31-6.24,9.8-13.33-7.95-14.31-7.95-.67,0-5.02,13.22-9.54,9.54-2.58-2.09-2.65-14.03,0-15.9Z"/>
                  <path class="cls-74" d="M844.36,1393c12.33.13-15.16,37.89-14.31,17.49.09-2.17,12.75-17.51,14.31-17.49Z"/>
                  <path class="cls-82" d="M907.97,1393c22.12-8.81,9.19,14.47,0,12.72-1.21-.23-6.99-9.94,0-12.72Z"/>
                  <path class="cls-74" d="M857.08,1399.36c4.52-.86,8.16-1.18,7.95,4.77-.55,15.81-31.32-.32-7.95-4.77Z"/>
                  <path class="cls-63" d="M828.46,1383.46h3.18q.8.8,1.59,1.59v3.18l-1.59,1.59-1.59-1.59-1.59-1.59-1.59-1.59,1.59-1.59Z"/>
                </g>
              </g>
            </g>
          </g>
          <path class="cls-46" d="M702.84,1459.78c-6.64,16.18-51.01-1.76-66.79-9.54-13.83-6.82-41.42-22.97-31.8-42.93,4.08-8.47,77.64,18.07,81.1,20.67,13.55,10.18,3.19,24.22,17.49,31.8Z"/>
          <path class="cls-26" d="M648.77,1364.37q-6.36,4.77-12.72,9.54c-10.14-9.4-19.67-14.67-25.44-28.62-1.34-10,11.17-10.47,19.08-15.9,5.75,6.17,17.77,33.49,19.08,34.98Z"/>
          <g>
            <path class="cls-54" d="M362.55,1879.58c-13.4-4.95-20.95,38.11-22.26,50.88q-20.67-31.8-41.34-63.61c29.29-42.4-10.31-15.6-38.16-60.43-3.8-6.12-47.19-115-54.06-133.57-4.31-11.63-8.47-23.33-12.72-34.98-13.69-37.55-21.81-76.86-34.98-114.49,18.5-3.52,110.09-66.09,117.67-58.83,24.54,132.61,60.88,263.52,76.33,397.53,4.58,4.98,5.97,11.95,9.54,17.49Z"/>
            <g>
              <path class="cls-46" d="M181.28,1195.82c20.42,57.92,4.74-2.32,6.36-4.77,16.11-24.34,21.95,49.08,49.29,23.85,117.67,46.98,77.15,34.33,93.82,81.1,9.85,27.65,49.37,26.6,65.2,33.39,25.93,11.12,190.51,74.33,197.18,82.69,9.24,11.6-11.5,27.52,36.57,50.88,43.38,21.09,95.86,8.47,76.33,74.74-.58,1.95-15.62,1.25-6.36,19.08-2.68,3.72-52-9.28-25.44,30.21-1.08,1,1.93,10.41-1.59,12.72-18.4-33.35-31.44-9.67-30.21-1.59.25,1.68,13.26,12,12.72,12.72-3.15,4.18-23.66-4.83-12.72,15.9,7.2,13.64,17.73-1.33,22.26,30.21,2.14,14.88,5.98,33.69-15.9,34.98-31.33,1.85-21.47-22.06-22.26-23.85-3.48-7.87-16.63,16.36,1.59-23.85-39.31,23.7-23.9,47.43-27.03,52.47-2.18,3.5-10.3.46-11.13,1.59-10.5,14.23-8.2,17.75-9.54,19.08-2.78,2.76-1.4-11.01-27.03,22.26-14.71,1.95-24.32,11.92-38.16,15.9-8.2,12.19,2.59,8.85,3.18,9.54,13.76,16.28,4.53-1.27,17.49,3.18,3.18,1.09,6.19,8.69,11.13,9.54,12.98,2.25,25.86-2.89,38.16,3.18-2.95,1.31-12.23-1.31-14.31,0-17.77,11.24,82.26,28.11,85.87,31.8,7.29,7.46-27.25,35.52,65.2,22.26-8.53,21.23-60.72,5.28,22.26,38.16-.71.73-1.49,17.2-12.72,15.9-1.06-1.02-1.86-2-3.18-3.18-10.08-9.05-33.66-25.24-42.93-12.72-23.73-42.37-56.36-21.94-65.2,15.9-9.75-1.23-49.12,7.16-47.7,25.44-1.57-1.34-5.15,5.38-7.95,3.18-9.28-7.27-41.4-39.33-50.88-38.16-24.06,2.97-9.09,62.75-28.62,57.24-3.52-.99-6.75-13.35-12.72-15.9-7.32-3.13-12.14,3.48-12.72,3.18-6.9-3.5-29.56-25.47-31.8-25.44-16.27.22,7.95,33.5-25.44,22.26-2.72-.91-38.2-38.93-39.75-41.34-3.57-5.54-4.96-12.51-9.54-17.49-15.44-134.01-51.79-264.92-76.33-397.53-7.58-7.25-99.17,55.31-117.67,58.83-36.24-103.52-26.87-63.15-58.83-85.87-51.52-36.62-13.74-51.98,1.59-73.15,38.52-53.2,25.95-52.71,41.34-108.13,4.79-17.26,11.72-33.12,15.9-50.88,1.61-6.85,3.83-14.4,9.54-19.08q6.36,4.77,12.72,9.54Z"/>
              <g>
                <g>
                  <path class="cls-23" d="M240.11,1335.75c14.43,6.38,48.54,50.82,12.72,41.34-9.4-2.49-20.9-40.25-12.72-41.34Z"/>
                  <path class="cls-23" d="M322.8,1329.39c15.24,63.54-25.05,52.79-17.49,30.21,3.85-11.48,15.32,3.61,15.9,0,.96-5.97-16-17.5,1.59-30.21Z"/>
                  <path class="cls-23" d="M192.41,1227.62c5.74.41,17.16,31.54,17.49,33.39,8.13,44.82-15.48,24.18-17.49-33.39Z"/>
                  <path class="cls-23" d="M243.29,1402.54c2.1-.62,6.58-.62,7.95,1.59,2.77,79.95-32.83,5.73-7.95-1.59Z"/>
                  <path class="cls-12" d="M252.83,1383.46c15.28,8.47-50.65,27.43-38.16,38.16-41.8,2.12,4.74-15.53,38.16-38.16Z"/>
                  <path class="cls-23" d="M507.25,1504.31c1.67-.89,22.91,2.19,25.44,3.18,56.92,22.23-45.32,7.38-25.44-3.18Z"/>
                  <path class="cls-23" d="M422.98,1427.98c-.21.4-8.04-2.54-6.36,6.36-25.98-20.18,2.9-38.89,9.54-20.67.25.69-2.84,13.66-3.18,14.31Z"/>
                  <path class="cls-23" d="M128.8,1421.62c30.53,5.92-23.55,26.89-20.67,7.95.25-1.63,19.58-8.16,20.67-7.95Z"/>
                  <path class="cls-72" d="M176.5,1424.8c17.86-.25,11.03,16.11-9.54,19.08-12.47-6.58,6.47-19.04,9.54-19.08Z"/>
                  <path class="cls-72" d="M208.31,1427.98c3.05,6.49,11.07,16.46,11.13,17.49,1.28,20.95-27.13,4.56-11.13-17.49Z"/>
                  <path class="cls-65" d="M539.05,1456.6c4.98-.02,16,18.78,6.36,22.26-9,3.25-20.19-22.19-6.36-22.26Z"/>
                  <path class="cls-71" d="M383.22,1472.5c1.72-.99,18.28,2.64,19.08,3.18,28.87,19.64-34.61,5.81-19.08-3.18Z"/>
                  <path class="cls-23" d="M179.68,1447.06c6.69-.57,15.3,11.92,9.54,15.9-10.48,7.24-23.85-14.68-9.54-15.9Z"/>
                  <path class="cls-64" d="M510.43,1450.24c7.05-1.85,17.41,10.1,17.49,11.13.92,10.96-33.39-6.95-17.49-11.13Z"/>
                  <path class="cls-76" d="M163.78,1459.78c2.84.02,13.14,12.65,3.18,15.9-14.73,4.81-10.82-15.95-3.18-15.9Z"/>
                  <path class="cls-64" d="M422.98,1427.98c16.12,2.71,13.4,21.71-6.36,6.36-1.67-8.9,6.15-5.96,6.36-6.36Z"/>
                  <path class="cls-12" d="M151.06,1370.74c.54-.42,10.41,6.32,11.13,7.95,6.62,14.9-26.34,3.91-11.13-7.95Z"/>
                  <path class="cls-72" d="M119.26,1389.82c3.96-.04,10.07,19.17,3.18,19.08-6.31-.08-11.69-18.99-3.18-19.08Z"/>
                </g>
                <g>
                  <path class="cls-34" d="M553.37,1739.65c-12.7,16.48-25.24,8.37-6.36,38.16-4.94-.86-7.95-8.45-11.13-9.54-12.96-4.45-3.73,13.1-17.49-3.18,9.19-6.84,9.51-10.24-3.18-9.54,13.85-3.98,23.45-13.95,38.16-15.9Z"/>
                  <path class="cls-13" d="M518.38,1765.09c-.59-.69-11.38,2.65-3.18-9.54,12.69-.7,12.37,2.7,3.18,9.54Z"/>
                </g>
              </g>
            </g>
            <g>
              <path class="cls-23" d="M260.78,1176.74l6.36,3.18c63.24,30.76,124.28,66.67,192.41,85.87,17.18,10.48,34.66,22.58,52.47,31.8,30.44,15.76,60.17,34.96,90.64,50.88q3.98-1.59,7.95-3.18c5.77,13.96,15.31,19.22,25.44,28.62,33.56,31.12,82.37,47.88,66.79,85.87-14.3-7.58-3.94-21.62-17.49-31.8-3.46-2.6-77.02-29.14-81.1-20.67-9.61,19.97,17.97,36.11,31.8,42.93q-3.18,6.36-6.36,12.72c-48.08-23.37-27.33-39.29-36.57-50.88-6.66-8.36-171.25-71.56-197.18-82.69-15.83-6.79-55.34-5.75-65.2-33.39-16.66-46.77,23.85-34.12-93.82-81.1-27.35,25.23-33.18-48.19-49.29-23.85-1.63,2.45,14.05,62.69-6.36,4.77-9.72-12.4,8.51-12.41,9.54-17.49-12.44-17.4-.24-11.9,3.18-27.03,3.27,1.58,23.32,4.32,66.79,25.44Z"/>
              <path class="cls-46" d="M348.24,1259.43c4.2-3.21,95.16,34.14,98.59,38.16,1.34,1.57-6.9,29.05-7.95,30.21-3.39,3.76-74.34-29.83-87.46-27.03-12.97-2.86-5.67-39.45-3.18-41.34Z"/>
              <path class="cls-46" d="M469.09,1307.13c3.38-1.36,57.55,20.95,58.83,23.85,1.73,3.9-11.19,29.27-14.31,30.21-3.55,1.07-57.56-20.94-58.83-23.85-1.08-2.46,12.6-29.53,14.31-30.21Z"/>
              <path class="cls-46" d="M539.05,1335.75c3.08-1.21,57.04,24.98,58.83,30.21,1.79,5.22-.84,25.43-4.77,27.03-3.4,1.39-67.71-23.42-68.38-27.03-.3-1.64,12.75-29.6,14.31-30.21Z"/>
            </g>
          </g>
          <g>
            <path class="cls-46" d="M1094.01,1558.37c.38,1.15,11.32,11.89,9.54,22.26-38.4-16.35-93.43-29.86-139.93-47.7l3.18-6.36c44.72-6.71,84.53,19.32,127.21,31.8Z"/>
            <path class="cls-21" d="M944.54,1771.45c-20.59,8.72-30.92,24.6-3.18,22.26-2.96,2.07-39.81,35.74-54.06,47.7-10.53-44.04-14.53,3.02-15.9,4.77-2.1,2.68-19.33-1.06-19.08,27.03-22.66,1.06-9.44-15.65-27.03-22.26-27.85,9.32-32.35-4.3-52.47,3.18-16.07-22.26-54.99,7.04-25.44,15.9-.3.25-2.28,2.27-3.18,3.18-82.98-32.88-30.79-16.93-22.26-38.16,5.84-15.3-39.05-25.95,12.72-22.26,22.58,1.61,25.74,6.87,27.03,6.36,11.77-4.65-15.57-12.78,49.29-9.54,20.58,4.24,11.99,6.48,41.34,6.36,1.36,0,8.41,5.37,27.03,3.18,2.6-17.05,6.17-2.91,19.08-9.54,11.58-9.73-6.06-23.81,7.95-38.16,19.52-20,36.11-.69,38.16,0Z"/>
            <path class="cls-88" d="M1055.85,1774.63c-.39.09.17,2.74-4.77,6.36-22.74,2.48-46.2-14.01-84.28-3.18-6.26-9.46-18.35-5.05-22.26-6.36-2.05-.69-18.64-20-38.16,0-11.52-8.65-4.99-16.68-12.72-34.98-4.23-10.02-7.7-5.76-3.18-12.72,35.25,10.21,143.75,35.48,151.06,38.16,3.16,1.16,8.71,11.35,14.31,12.72Z"/>
            <path class="cls-34" d="M795.07,1691.94c18.16,3.95,36.06,8.17,54.06,12.72,48.09,12.15,93.93,29.21,143.11,38.16,13.71,2.5,29.93.24,39.75,12.72,16.01,1.79,24.32-20.64,42.93,0,1.22,3.47,4.33,5.14,3.18,9.54-9.56,4.98-3.6,5-22.26,9.54-5.6-1.37-11.15-11.56-14.31-12.72-7.32-2.68-115.82-27.95-151.06-38.16-33.64-9.75-92.76-22.56-101.77-34.98,2.91.61,3.44,2.55,6.36,3.18Z"/>
            <path class="cls-46" d="M887.29,1841.41c-1.86,1.56-17.14,30.97-34.98,31.8-.25-28.09,16.98-24.36,19.08-27.03,1.37-1.75,5.38-48.81,15.9-4.77Z"/>
            <path class="cls-46" d="M772.8,1854.14c-4.63,11.76-24.3,14.93-25.44,15.9-29.54-8.87,9.37-38.16,25.44-15.9Z"/>
            <path class="cls-37" d="M966.8,1777.81c-4.24,1.21-19.88,12.01-25.44,15.9-27.74,2.34-17.41-13.55,3.18-22.26,3.91,1.31,16-3.1,22.26,6.36Z"/>
            <path class="cls-21" d="M648.77,1691.94q1.59,11.13,3.18,22.26c-43.58-8.07-70.53-26.57-55.65,19.08-14.08-44.81,88.3.94,159.01,15.9,9.99,2.11,40.84,7.4,49.29,3.18,16.83,4.68,33.49,10.31,50.88,12.72-2,7.23,1.82,34.16-3.18,50.88-29.35.12-20.76-2.12-41.34-6.36-71.61-14.76-141.55-38.74-213.08-54.06-5.58-18.87-25.55-18.42-44.52-15.9,25.63-33.27,24.25-19.5,27.03-22.26,1.34-1.33-.96-4.86,9.54-19.08.83-1.13,8.96,1.91,11.13-1.59,3.14-5.05-12.28-28.78,27.03-52.47-18.22,40.21-5.07,15.98-1.59,23.85.79,1.79-9.06,25.7,22.26,23.85Z"/>
            <path class="cls-91" d="M706.02,1660.14c.42.09-.46-5.38,7.95-3.18,4.44,1.16,19.53,12.31,20.67,12.72-.56,24.85,47.91,18.47,50.88,19.08,1.02.21,2.16-.21,3.18,0,9.01,12.43,68.13,25.24,101.77,34.98-4.52,6.96-1.05,2.71,3.18,12.72-15.87-18.49-36.67,23.22-38.16,28.62-17.39-2.41-34.06-8.04-50.88-12.72-52.97-14.72-97.9-28.03-152.65-38.16q-1.59-11.13-3.18-22.26c21.88-1.29,18.04-20.1,15.9-34.98,4.94,1.55,6.17-2.83,9.54-3.18,21,18.27,55.35,27.8,31.8,6.36Z"/>
            <path class="cls-80" d="M718.74,1583.81c-36.95,28.62-14.96,21.86-19.08,36.57-1.4,5.01-19.81,6.63-7.95,14.31,88.62,11.92,28.93-11.35,42.93-30.21,8.81-11.87,15.69,2.87,28.62,1.59v3.18c-22.81,4.47,11.14,22.81,22.26,28.62-10.87,36.54,22.73,31.27,9.54,54.06-2.92-.63-3.45-2.57-6.36-3.18-1.02-.21-2.16.21-3.18,0-15.95-9.93-33.76-12.93-50.88-19.08-1.14-.41-16.23-11.56-20.67-12.72-8.41-2.2-7.53,3.27-7.95,3.18-11.37-2.45-19.16-7.68-31.8-6.36-3.37.35-4.6,4.73-9.54,3.18-4.53-31.55-15.06-16.57-22.26-30.21-10.94-20.73,9.57-11.73,12.72-15.9.54-.72-12.47-11.05-12.72-12.72-1.23-8.08,11.82-31.76,30.21,1.59,3.52-2.31.51-11.72,1.59-12.72,10.26-9.49,31.8-11.9,44.52-3.18Z"/>
            <path class="cls-34" d="M734.64,1812.79c-51.78-3.69-6.88,6.96-12.72,22.26-92.45,13.26-57.9-14.81-65.2-22.26-3.61-3.69-103.63-20.57-85.87-31.8,2.08-1.31,11.36,1.31,14.31,0,5.22-2.31,10.21-3.61,12.72-9.54,54.03,19.19,146.11,12.02,136.75,41.34Z"/>
            <path class="cls-46" d="M597.89,1755.55c.23.76.31,15.17,0,15.9-2.51,5.93-7.5,7.23-12.72,9.54-12.3-6.07-25.18-.93-38.16-3.18-18.88-29.79-6.34-21.68,6.36-38.16,18.98-2.52,38.94-2.97,44.52,15.9Z"/>
            <path class="cls-46" d="M791.89,1510.67c5.19,20.25-15.37,45.36,6.36,60.43,11.28,7.82,226.38,79.95,1.59,6.36-17.62-.75-16.74,26.66-36.57,28.62-12.94,1.28-19.81-13.46-28.62-1.59-14.01,18.86,45.69,42.13-42.93,30.21-11.86-7.68,6.55-9.3,7.95-14.31,4.13-14.72-17.87-7.96,19.08-36.57.87-.68,17.63-4.13,19.08-11.13,1.54-7.42-13.42-18.17-12.72-19.08,3.99-5.17,24.1,6.9,12.72-19.08,35.91,12.86,8.09-3.64,6.36-9.54-2.44-8.32,18.13-3.7-6.36-31.8q27.03,8.75,54.06,17.49Z"/>
            <path class="cls-15" d="M728.28,1440.7c43.43,11.47,135.39,54.93,189.23,66.79,24.09,9.06,31.6,18.4,33.39,19.08q-90.64-28.62-181.28-57.24c-5.95-7.85-88.71-41.13-41.34-28.62Z"/>
            <g>
              <path class="cls-94" d="M950.9,1526.57c.66.25.71,1.75,12.72,6.36,46.5,17.84,101.53,31.35,139.93,47.7,8.6,3.66,4.33,11.71,14.31,9.54-7.53-33.76,14.93-30.59,7.95-4.77,21.07,2.91,27.2,34.41,9.54,42.93-12.47-29.11-19.87-10.83-6.36,36.57-17.79,16.65,1.34,27.72-22.26,14.31-.69-.39,3.35-1.99-12.72-9.54-10.16-4.77-15.77-1.81-19.08-3.18-6.41-2.65-9.45-9.52-15.9-12.72-1.81-.9-4.56,4.51-15.9-3.18-.17-2.2-2-3.83-3.18-6.36-21.27-45.44-28.78,13.88-39.75,15.9-8.9,1.64-28.6-12.43-30.21-12.72,1.04-12.82.71-15.6-6.36-25.44-16.35-22.76-39.08-13.83-42.93-15.9-22.47-27.42-99.13-58.27-122.44-34.98-21.73-15.06-1.17-40.17-6.36-60.43q-11.13-20.67-22.26-41.34,90.64,28.62,181.28,57.24Z"/>
              <path class="cls-36" d="M815.74,1491.59c6.15-2.07,22.44,8.66,20.67,14.31-4.54,14.52-37.13-8.76-20.67-14.31Z"/>
              <path class="cls-47" d="M834.82,1523.39c1.34-.16,23.52,12.41,20.67,17.49-4.94,8.81-34.79-15.8-20.67-17.49Z"/>
            </g>
            <path class="cls-88" d="M842.77,1647.42c2.1-.12,4.27.19,6.36,0,9,24.26-23.71,37.77,25.44,34.98-9.52,20.31-8.71,10.21-25.44,22.26-18.01-4.55-35.91-8.77-54.06-12.72,13.19-22.79-20.41-17.52-9.54-54.06,37.05,19.38,34.9,10.82,57.24,9.54Z"/>
            <path class="cls-61" d="M982.7,1730.11c3.38,1.69,9.71,8.59,9.54,12.72-49.18-8.96-95.02-26.01-143.11-38.16,16.74-12.05,15.92-1.96,25.44-22.26,2.1-4.49,3.12-2.96,3.18-3.18,22.2,27.93,74.81,35.85,104.95,50.88Z"/>
            <path class="cls-10" d="M763.26,1609.26c25.67-1.17,29.78,19.55,42.93,12.72q18.29,12.72,36.57,25.44c-22.34,1.28-20.19,9.84-57.24-9.54-11.12-5.82-45.07-24.16-22.26-28.62Z"/>
            <path class="cls-46" d="M877.75,1679.22c-.06.22-1.08-1.31-3.18,3.18-49.16,2.79-16.44-10.73-25.44-34.98.64-.06-4.4-8.23,11.13-6.36,21.54,2.59,22.03,21.99,17.49,38.16Z"/>
            <g>
              <path class="cls-67" d="M963.62,1621.98c-46.27-31.84-62.01,14.66-14.31,28.62,9,2.63,16.45-3.94,20.67-3.18,1.61.29,21.31,14.36,30.21,12.72,10.97-2.02,18.48-61.34,39.75-15.9-35.91-33.69-31.96,36.75,1.59,22.26,9.82-4.24,1.75-13.88,1.59-15.9,11.35,7.69,14.09,2.28,15.9,3.18-1.91,11.54,8.71,16.84,17.49,19.08l-1.59-6.36c3.31,1.37,8.93-1.59,19.08,3.18q-5.57,3.18-11.13,6.36,11.93,1.59,23.85,3.18c23.6,13.41,4.47,2.34,22.26-14.31-13.51-47.4-6.11-65.68,6.36-36.57.41.97,3.09,9.05,3.18,9.54,5.01,28.26-5.87,60.54,0,89.05-.52.12.88,7.58-4.77,9.54-4.2,1.46-12.54.71-17.49,3.18-1.22-19.12-22.21-5.24-3.18,0-1.91,1.02-8.26,11.52-34.98,25.44,1.15-4.4-1.96-6.07-3.18-9.54-10.97-31.1-92.29-42.67-92.23-25.44-30.14-15.03-82.75-22.95-104.95-50.88,4.54-16.17,4.05-35.57-17.49-38.16-15.53-1.87-10.49,6.3-11.13,6.36-2.09.19-4.26-.12-6.36,0q-18.29-12.72-36.57-25.44c-13.15,6.82-17.26-13.89-42.93-12.72v-3.18c19.83-1.97,18.95-29.37,36.57-28.62,224.79,73.59,9.69,1.46-1.59-6.36,23.32-23.29,99.97,7.56,122.44,34.98,3.85,2.07,26.59-6.86,42.93,15.9Z"/>
              <g>
                <path class="cls-45" d="M1116.27,1739.65c-.85.42-2.36-.44-3.18,0-19.03-5.24,1.96-19.12,3.18,0Z"/>
                <path class="cls-46" d="M963.62,1621.98c7.07,9.85,7.4,12.62,6.36,25.44-4.22-.76-11.68,5.81-20.67,3.18-47.7-13.96-31.96-60.46,14.31-28.62Z"/>
                <path class="cls-46" d="M1039.95,1644.24c1.18,2.53,3.01,4.16,3.18,6.36.16,2.02,8.23,11.66-1.59,15.9-33.55,14.48-37.5-55.95-1.59-22.26Z"/>
                <path class="cls-28" d="M1106.73,1679.22q-11.93-1.59-23.85-3.18,5.57-3.18,11.13-6.36c16.07,7.55,12.03,9.15,12.72,9.54Z"/>
                <path class="cls-86" d="M1074.93,1666.5l1.59,6.36c-8.78-2.24-19.4-7.54-17.49-19.08,6.46,3.2,9.49,10.07,15.9,12.72Z"/>
                <path class="cls-58" d="M1074.93,1755.55c-18.61-20.64-26.92,1.79-42.93,0-9.82-12.48-26.05-10.22-39.75-12.72.17-4.13-6.16-11.04-9.54-12.72-.06-17.23,81.25-5.66,92.23,25.44Z"/>
                <path class="cls-39" d="M974.75,1676.04c17.29-4.93,34.76,24.37,15.9,31.8-24.74,9.75-31.97-27.22-15.9-31.8Z"/>
                <path class="cls-31" d="M892.06,1660.14c69.94,9.84,47.66,41.18,28.62,9.54-21,2.63-10.59,19.49-28.62-9.54Z"/>
                <path class="cls-39" d="M1105.14,1711.02c5.63.27,2.81,8.51,1.59,11.13-15.42,33.12-26.89-12.36-1.59-11.13Z"/>
                <path class="cls-39" d="M1060.62,1698.3c21.02-1.79-13.23,35.1-11.13,11.13.07-.78,10.35-11.06,11.13-11.13Z"/>
                <path class="cls-31" d="M1032,1691.94c13.54,1.26-12.82,26.02-14.31,14.31-.35-2.71,11.46-14.58,14.31-14.31Z"/>
              </g>
            </g>
            <g>
              <path class="cls-94" d="M1014.5,1431.16q33.39,30.21,66.79,60.43c-26.04,7.83-14.7,37.54,9.54,44.52,2.44,8.33,2.5,20.22,3.18,22.26-42.69-12.48-82.49-38.51-127.21-31.8q6.36-2.39,12.72-4.77c-2.05-2.58-5.86-4.32-6.36-7.95-4.39-32.12-15.95-21.82-9.54-9.54-15.02,7.26-10.98-1.52-15.9-3.18,8.19-20.57-5.67-47.67,12.72-62.02-16.9-52.64-2.14-20.13,54.06-7.95Z"/>
              <path class="cls-15" d="M1090.83,1536.11c-24.24-6.98-35.58-36.69-9.54-44.52-5.81,21.62,6.14,32.92,9.54,44.52Z"/>
              <path class="cls-46" d="M981.11,1443.88c34.44,10.9,44.57,26.07,41.34,63.61-25.42-33.2-32.1-9.12-34.98-9.54-3.12-.46-23.32-37.87-6.36-54.06Z"/>
              <path class="cls-15" d="M1044.72,1482.04c-3.21,22.56,9.28,18.47,11.13,23.85,10.56,30.76-36.07-5.7-11.13-23.85Z"/>
              <path class="cls-45" d="M973.16,1513.85c.14-4.42-9.23-8.94-9.54-9.54-6.41-12.28,5.15-22.58,9.54,9.54Z"/>
            </g>
            <path class="cls-46" d="M893.65,1736.47c7.73,18.31,1.2,26.33,12.72,34.98-14.01,14.35,3.63,28.44-7.95,38.16-12.91,6.63-16.48-7.51-19.08,9.54-18.62,2.19-25.67-3.19-27.03-3.18,5-16.72,1.18-43.65,3.18-50.88,1.5-5.41,22.3-47.12,38.16-28.62Z"/>
            <path class="cls-46" d="M810.97,1809.61c-64.87-3.24-37.53,4.89-49.29,9.54-1.29.51-4.45-4.75-27.03-6.36,9.35-29.32-82.72-22.16-136.75-41.34.31-.73.23-15.14,0-15.9,71.53,15.32,141.47,39.31,213.08,54.06Z"/>
            <path class="cls-51" d="M651.95,1714.2c54.75,10.14,99.68,23.44,152.65,38.16-8.45,4.22-39.31-1.07-49.29-3.18-70.71-14.96-173.09-60.71-159.01-15.9-14.87-45.65,12.08-27.15,55.65-19.08Z"/>
            <path class="cls-39" d="M785.53,1688.76c-2.98-.62-51.44,5.77-50.88-19.08,17.12,6.15,34.93,9.15,50.88,19.08Z"/>
            <path class="cls-51" d="M706.02,1660.14c23.55,21.44-10.8,11.91-31.8-6.36,12.64-1.32,20.43,3.91,31.8,6.36Z"/>
            <g>
              <path class="cls-56" d="M728.28,1418.44c-.21,2.99,3.54,3.51,3.18,6.36-.29,2.32-4.94,5.65-3.18,15.9-47.37-12.51,35.39,20.77,41.34,28.62q11.13,20.67,22.26,41.34-27.03-8.75-54.06-17.49c24.49,28.1,3.92,23.48,6.36,31.8,1.73,5.9,29.55,22.4-6.36,9.54,11.38,25.99-8.73,13.91-12.72,19.08-.7.91,14.26,11.66,12.72,19.08-1.45,7.01-18.21,10.45-19.08,11.13-12.73-8.72-34.26-6.31-44.52,3.18-26.56-39.49,22.76-26.49,25.44-30.21-9.26-17.83,5.78-17.13,6.36-19.08,19.53-66.26-32.94-53.65-76.33-74.74q3.18-6.36,6.36-12.72c15.78,7.78,60.15,25.72,66.79,9.54,15.59-37.99-33.23-54.75-66.79-85.87q6.36-4.77,12.72-9.54c7.22,8.23,63.19,47.3,79.51,54.06Z"/>
              <path class="cls-14" d="M748.95,1475.68c7.71-3.49,17.91,7,17.49,7.95-1.77,4.06-21.46-6.15-17.49-7.95Z"/>
            </g>
          </g>
        </g>
        <path class="cls-23" d="M257.6,938.22c-1.31,4.83-5.68,7.11-9.54,9.54-49.77,31.31-29.15,34.84-9.54,38.16,3.3.56,21.15,3.32,22.26,3.18l6.36,12.72c-5.78,2.56-24.82,3.72-28.62,3.18-3.13-.44-27.13-16.59-34.98-12.72.25-.77-5.55-2.57-3.18-15.9v-6.36c9.71-10.69,14.92-9.06,25.44-19.08,6.86-6.53,20.5-19.5,19.08-28.62,8.88.09,8.73,10.53,12.72,15.9Z"/>
        <path class="cls-19" d="M244.88,922.32c1.42,9.13-12.23,22.1-19.08,28.62-1.76-9.17,1.63-16.88,3.18-25.44,9.2,13.5,5.39-3.29,15.9-3.18Z"/>
        <path class="cls-38" d="M238.52,1005c20.18,35.91,12.04,26.23-3.18,50.88-6.53,10.57-24.7,38.05-31.8,47.7-1.94-4.35-2.3-13.78-3.18-15.9,62.14-42.26,13.86-86.86,0-77.92-1.26.81-9.56,22.22-12.72,27.03-2.02,3.08-4.52,6.53-6.36,9.54-.11-20.62,16.16-35.48,22.26-54.06,7.85-3.87,31.86,12.28,34.98,12.72Z"/>
        <g>
          <path class="cls-96" d="M900.01,480.26c9.95,56.22-10.67,49.53-41.34,50.88,14.09-30.43,54.11-35.75,6.36-52.47,8.6-1.63,11.64-26.96,14.31-27.03,3.89-.1,16.43,46.18,20.67-44.52.55,2.73,4.32,53.11,3.18,55.65-5.5,12.28-33.32.58-4.77,11.13,2.81,1.04,1.26,6.33,1.59,6.36Z"/>
          <path class="cls-50" d="M944.54,464.36c-44.04,7.54-29.94,12.37-31.8,12.72-8.09,1.51-12.07,3.24-12.72,3.18-.33-.03,1.21-5.32-1.59-6.36-28.55-10.55-.73,1.15,4.77-11.13,1.14-2.54-2.63-52.92-3.18-55.65-1.65-8.14-15.37-3.31-12.72-11.13,2.06-6.08,11.43-3.79,12.72-6.36,1.68-3.35-5.44-64.75-6.36-74.74,6.67,22.6,2.19,48.17,15.9,68.38q1.59,36.57,3.18,73.15c1.89,4.3,26.11,7.54,31.8,7.95Z"/>
          <path class="cls-38" d="M935,1377.1c-1.11-2.12-2.71-4.02-3.18-6.36,18.84-8.23,56.56-51.26,76.33-66.79,5.36-4.21,10.6-8.52,15.9-12.72,49.32-39.06,100.84-76.03,149.47-116.08-111.91-46.11-8.08-4.48,11.13-7.95,3.3-.59,31.96-26.12,39.75-31.8,6.32,20.14-32.96,19.76-30.21,57.24q-1.59-4.77-3.18-9.54c-3.11.3-6.48-.45-9.54,0-15.52,2.28-210.62,177.79-246.47,194Z"/>
          <path class="cls-38" d="M1205.32,992.28v11.13c-7.92,3.98-11.86,10.67-15.9,14.31-17.36,15.61-104.29,68.74-135.16,98.59-8.78-6.01-2.61-9.65,1.59-15.9,4.81-7.15,121.62-94.88,136.75-104.95.55-.36,9.58-2.6,12.72-3.18Z"/>
          <path class="cls-84" d="M1205.32,992.28c-3.14.58-12.18,2.82-12.72,3.18-106.43-113.98-102.77-133.78,0-4.77q3.18-1.59,6.36-3.18c-18.92-40.35-29.37-84.01-44.52-125.62,17.96,43.18,33.86,86.87,50.88,130.39Z"/>
          <path class="cls-7" d="M930.23,540.69c1.87-.9,7.95-.13,7.95,1.59,0,3.63-13.62,1.16-7.95-1.59Z"/>
          <g>
            <g>
              <path class="cls-46" d="M683.76,181.32c-131.69,34.63-52.76,15.43-23.85,25.44,48.77,16.89-29.26,11.61-31.8,12.72-8.21,3.58-2.37,16.09-6.36,19.08-.46.34-9.04-6.63-9.54-6.36-1.95,1.06,4.6,10.4-36.57,17.49,11.33,22.04,32.31,4.21,39.75,4.77,1.33.1,5.09,6.32,6.36,6.36,35.26,1.2,133.83-5.42,71.56,6.36-26.91,5.09-59.26,1.8-81.1,22.26-11.09-16.99-17.88-.13-19.08,0-4.15.43-.35-5.87-27.03-3.18-58.14,5.86-116.56,12.51-174.91,15.9,1.69-5.03,4.43-1.28,6.36-6.36l52.47-6.36c-22.16-30.91,34.44-16.01,62.02-33.39-17.45-11.49-65.92,8.61-74.74,4.77-2.32-1.01,8.36-20.69-39.75-9.54-2.9-21.92,62.59-17.04,77.92-25.44-36.96-38.44,38.74-15.5,47.7-41.34,17.47,16.01,17.45-20.14,12.72-25.44-4.62-5.18-39.3.9-44.52,0-53.88-9.3,42.93-13.5,46.11-20.67-5.52-46.95-3.36-89.44,1.59-138.34,9.28-1.7,4.65,49.11,7.95,81.1,4.94,6.96,100.29-7.76,0,12.72-2.99,67.11,2.69,37.58,44.52,47.7-70.62,30.34-30.87,24.61-25.44,31.8,3.5,4.63-15.92,5.42-9.54,12.72,2.07,2.36,42.32,8.62,46.11-4.77h81.1Z"/>
              <path class="cls-73" d="M397.53,295.81c14.33-37.65,3.59-17.37,0-44.52,48.11-11.15,37.43,8.53,39.75,9.54,8.82,3.84,57.28-16.27,74.74-4.77-27.58,17.38-84.18,2.48-62.02,33.39l-52.47,6.36Z"/>
            </g>
            <g>
              <path class="cls-9" d="M566.09,286.27c10.55,43.03-11.43,70.03-31.8,106.54,5.09,8.54,67.44-34.58,57.24,6.36,21.6,5.55,3.85-23.84,4.77-36.57,29.01,50.21,18.37,21.51,25.44,19.08,33.69-11.57-31.47,82.18-46.11,82.69-10.94,1.03-22.49-1.18-33.39,0-5.74.62-19.56,9.28-20.67,9.54-66.31,15.44-136,34.63-198.77,60.43,27.58-61.37,38.53-126.83,55.65-190.82,3.73-13.93,8.11-27.65,12.72-41.34,58.36-3.39,116.77-10.04,174.91-15.9Z"/>
              <g>
                <path class="cls-60" d="M693.3,267.18c9.23,71.19,45.28,179.33,85.87,240.11-1.81,10.78-54.02-21.15-93.82-23.85,12.51-36.17,61.58-11.08-27.03-31.8-4.89-1.14-19.41-9.09-22.26-9.54-17.81-2.85-45.02,9.99-19.08,6.36.25,2.2-.47,5.16,0,6.36-43.76,23.21-39,9.32-41.34,9.54,14.65-.51,79.8-94.26,46.11-82.69-7.07,2.43,3.57,31.13-25.44-19.08-.92,12.73,16.83,42.12-4.77,36.57,10.19-40.94-52.15,2.18-57.24-6.36,20.37-36.51,42.35-63.51,31.8-106.54,26.68-2.69,22.88,3.61,27.03,3.18,1.21-.13,7.99-16.99,19.08,0,21.84-20.46,54.18-17.17,81.1-22.26Z"/>
                <path class="cls-93" d="M637.64,359.41q7.95,14.31,15.9,28.62c-12.93,1.22-24.59-19.57-15.9-28.62Z"/>
                <path class="cls-42" d="M636.05,442.1c-6.03,2.74-12.48,5.44-19.08,6.36-25.94,3.63,1.27-9.21,19.08-6.36Z"/>
                <path class="cls-25" d="M589.94,333.97c6.68-2.28,11.28,3.28,6.36,6.36-2.83,1.77-10.1-5.09-6.36-6.36Z"/>
                <path class="cls-20" d="M615.38,311.71l1.59,1.59v3.18l-1.59,1.59h-3.18l-1.59-1.59,1.59-1.59,1.59-1.59,1.59-1.59Z"/>
              </g>
            </g>
          </g>
          <g>
            <path class="cls-33" d="M656.72,483.44h3.18q.8.8,1.59,1.59v3.18q-.8.8-1.59,1.59l-1.59-1.59-1.59-1.59-1.59-1.59,1.59-1.59Z"/>
            <g>
              <path class="cls-46" d="M616.97,454.82c5.07,12.97-4.49,2.99-7.95,6.36-11.7,11.39-19.19,25.84-19.08,34.98,7.23-1.78,16.8-5.7,23.85-6.36,10.07-.94,20.46.14,30.21-3.18,11.92,6.21-13.57,13.89,0,15.9,2.36.35,32.97-1.68,47.7,3.18-.54,16.2,6.36,30.3,15.9,44.52,49.51-14.44,100.39-16.85,151.06-19.08,30.68-1.35,51.29,5.34,41.34-50.88.65.06,4.63-1.67,12.72-3.18,1.98,9.75-4.67,46.24,4.77,50.88,7.69,3.78,35.33-10.67,46.11-4.77-82.66,27.15-42.44,34.94,17.49,30.21,13.81,11.19-21.13,6.31-12.72,15.9,25.83,8.44,104.75,2.33,27.03,12.72-5.46.73-12.19-1.69-15.9,1.59q6.36.8,12.72,1.59c.41,14.4-68.06,9.47-46.11,25.44,7.13,5.19,173.68-1.55,136.75,9.54-.41.12-1.95-4.31-7.95-3.18-34.65,6.53-70.2,13.48-104.95,19.08-23.11,3.72-39.89,4.25-54.06,6.36-8.85,1.32-19.85,5.26-28.62,6.36-26.42,3.3-53.28,4.42-79.51,9.54.04-1.27-7.03-10.66-1.59-25.44,8.63,2.61,67.62-14.01,68.38-17.49,2.41-4.87-88.55,9.69-65.2-7.95,3.39-2.56,13.18-2.7,14.31-4.77,3.25-5.94-12.91-4.42-12.72-9.54.35-9.4,19.83-.99,20.67-1.59,12.37-8.75-16.11-22.83,6.36-22.26,8.57.22,66.3,23.74,11.13-14.31,1.5-2.12,62.81,2.58,36.57-7.95-39.21-15.73-214.1,21.35-268.73,28.62-71.07,9.46-142.07,18.6-213.08,28.62-18.92,2.67-38.36,3.55-57.24,6.36-17.99,2.68-35.77,7.12-54.06,9.54-9.6,1.27-18.71,4.55-28.62,3.18.24-.86-9.99-6.35,4.77-12.72,16.24-2.11,109.99-12.27,114.49-15.9,3.15-2.54-3.51-10.83,3.18-15.9,6.3-4.78,21.86,6.28,46.11-14.31-119.97-18.25,75.78-28.7,69.97-47.7-31.44-4.54-73.98-13.4-42.93-20.67,8.37-1.96,32.35,6.86,50.88,0,6.24-2.31,22.2-22.65,11.13-22.26,1.11-.26,14.93-8.92,20.67-9.54,10.9-1.18,22.46,1.03,33.39,0,2.35-.22-2.41,13.67,41.34-9.54Z"/>
              <g>
                <path class="cls-63" d="M995.42,582.03c.34,3.97-3.19,2.96-3.18,3.18q-6.36-.8-12.72-1.59c3.71-3.28,10.45-.86,15.9-1.59Z"/>
                <path class="cls-74" d="M850.72,585.21c18.62-6.95,9.39,16.68-3.18,9.54-4.3-2.44.75-8.63,3.18-9.54Z"/>
                <g>
                  <path class="cls-90" d="M624.92,502.52c8.82,17.35,51.65-2.7,52.47,11.13l-74.74,14.31c-4.5-28.61,12.59-7.42,22.26-25.44Z"/>
                  <path class="cls-87" d="M618.56,492.98c14.47-2.91,6.74,11.79-3.18,6.36-3.05-1.67,2.28-6.18,3.18-6.36Z"/>
                  <path class="cls-83" d="M570.86,483.44h3.18l1.59,1.59-1.59,1.59-1.59,1.59-1.59,1.59-1.59-1.59v-3.18l1.59-1.59Z"/>
                </g>
              </g>
            </g>
            <g>
              <path class="cls-69" d="M658.31,451.64q-1.59,9.54-3.18,19.08c-6.84.73-58.79,8.32-57.24,14.31,4.49,4.32,8.88-.72,15.9-1.59v6.36c-7.06.66-16.62,4.58-23.85,6.36-.11-9.14,7.38-23.59,19.08-34.98,3.46-3.37,13.03,6.61,7.95-6.36-.47-1.2.25-4.16,0-6.36,6.61-.92,13.06-3.62,19.08-6.36,2.85.46,17.37,8.4,22.26,9.54Z"/>
              <path class="cls-78" d="M613.79,483.44c-7.02.87-11.41,5.91-15.9,1.59-1.55-5.99,50.41-13.58,57.24-14.31,2.96-.32,4.73-4.73,11.13-3.18,9.28,5.17-48.35,15.39-52.47,15.9Z"/>
              <path class="cls-17" d="M605.84,470.72h3.18l1.59,1.59-1.59,1.59-1.59,1.59-1.59,1.59-1.59-1.59v-3.18q.8-.8,1.59-1.59Z"/>
            </g>
          </g>
          <path class="cls-9" d="M594.71,931.86q7.95,5.57,15.9,11.13l-6.36,1.59c-13.63-6.9-47.1,17.37-49.29,15.9-4.5-3.01,2.94-10.97-6.36-12.72-4.17-.78-29.42,26.05-77.92,30.21,34.46,24.6,60.38,11.59,74.74,14.31,14.46,2.74,25.99,20.12,34.98,15.9,17-7.98-20.44-20.62,36.57-31.8-.23,2.53.41,5.64,0,6.36-36.06,63.14-17.69,55.61-22.26,62.02-4.83,6.76-29.18,6.9-22.26,22.26,7.43,16.49,37.06-12.86,46.11-14.31,51.53-8.28-60.81,52.42,38.16,44.52,5.47-.44,14.15-26.02,11.13,11.13,39.61,9.5,34.05,33.48,50.88,25.44,31.49-51.73,40.26-44.99,6.36,1.59-7.71,10.6-17.03,20.43-23.85,31.8-24.95-3.84-49.88-8.35-74.74-12.72-2.84-.5-2.38-4.03-15.9-6.36-26.59-4.59-43.09,4.62-52.47-12.72-6.55-1.41-3.07,6.19-7.95,6.36-25.19.9-43.72,6.31-47.7,6.36-30.43.42-68.64.98-90.64-22.26-41.31,44.45-40.7-8.56-133.57,47.7-13.4-24.21-21.16-11.92-27.03-20.67-5.55-8.28,1.05-78.18-15.9-97,15.22-24.65,23.36-14.97,3.18-50.88,3.8.54,22.84-.62,28.62-3.18,11.14-4.94,7.2-9.81,12.72-22.26,7.14-16.1,14.99-19.25,9.54-25.44,7.91-1.56,17.37-2.09,25.44-3.18,50.93-6.88,66.66-11.01,119.26,0,53.32-7.17,107.03-14.31,160.6-19.08Z"/>
          <path class="cls-27" d="M766.44,1183.1l-28.62,34.98c-1.55-7.3-4.05-14.56-4.77-22.26-.99,38.49-1.67,33.52-25.44,57.24-12.97,12.95-104.55,87.77-114.49,82.69-7.7-3.94-27.41-117.1-9.54-124.03,54.5-.7,98.53-15.14,9.54-19.08,7.27-34.24-8.8-.26-39.75-7.95,15.81-15.14,68.2-8.76,73.15-30.21,24.86,4.37,49.79,8.88,74.74,12.72,6.82-11.37,16.14-21.2,23.85-31.8q4.77,27.83,9.54,55.65c25.16-21.47,17.28-9.31,31.8-7.95Z"/>
          <path class="cls-46" d="M925.46,1043.17c51.64-1.21,102.6,3.98,152.65,15.9-14.35,12.41-31.72-3.12-31.8,7.95-.06,8.09,36.75-3.11,3.18,30.21-.53.53,1.93,5.29-7.95,12.72-67.52,5-150.64,4.24-213.08,25.44-21.9-17.45-17.9-46.05-17.49-69.97,24.06-.11,33.33-11.86,34.98-12.72,13.77,7.19,18-2.87,19.08-3.18,8.02-2.32,17.71,4.97,27.03-9.54,20.04,7.29,24,3.4,33.39,3.18Z"/>
          <path class="cls-9" d="M909.56,1243.52c-17.88-2.17-32.9-3.25-50.88-3.18-8.45.03-17.02-.39-25.44,0-3.53.16-6.6-1.01-6.36,3.18-29.64-12.43-29.46,9.96-85.87-15.9-.72-6.53-2.64-6.99-3.18-9.54l28.62-34.98c39.53,3.71,92.02,42.65,100.18,41.34,30.23-4.85-41.14-70,17.49-34.98,11.63,8.15,3.24-2.57,3.18-3.18-.88-8.58-2.11-18.14-9.54-23.85,95.34,5.21,3.62,21.74,17.49,36.57,32.63,18.75,110.12-2.17,63.61,31.8-9.1,6.65-36.93,12.88-49.29,12.72Z"/>
          <g>
            <path class="cls-60" d="M604.25,944.58c1.65,4.23,9.77,27.91,11.13,28.62,4.27,2.23,21.73-3.87,23.85,3.18-6.92.85-15.99-1.23-22.26,0-57.01,11.18-19.57,23.83-36.57,31.8-8.99,4.22-20.52-13.16-34.98-15.9-14.36-2.72-40.28,10.29-74.74-14.31,48.5-4.17,73.75-31,77.92-30.21,9.3,1.75,1.87,9.71,6.36,12.72,2.19,1.47,35.66-22.8,49.29-15.9Z"/>
            <g>
              <path class="cls-2" d="M849.13,909.6c-26.64,41.17-37.33,107.09-38.16,155.83-.41,23.92-4.4,52.52,17.49,69.97,62.44-21.2,145.56-20.45,213.08-25.44,9.88-7.43,7.42-12.19,7.95-12.72q3.18,1.59,6.36,3.18c-4.21,6.25-10.37,9.89-1.59,15.9,30.87-29.85,117.8-82.98,135.16-98.59-2.48,14.55,4.72,11.41,6.36,15.9-8.55,4.36-.11,9.08,0,9.54,3.23,13.53,5.38,28.02,9.54,41.34,5.33,17.05,11.56,34.63,19.08,50.88-7.8,5.68-36.46,31.21-39.75,31.8-19.21,3.47-123.04-38.16-11.13,7.95-48.63,40.05-100.15,77.02-149.47,116.08-18.31,1.28-13.4-19.29-15.9-22.26-1.96-2.33-20.95-8.78-25.44-9.54-1.03-.17-2.14.14-3.18,0-2.94-10.28-7.75-1.39-17.49-3.18-16.57-3.04-35.74-10.69-52.47-12.72,12.36.16,40.19-6.07,49.29-12.72,46.51-33.97-30.97-13.05-63.61-31.8-13.87-14.83,77.85-31.36-17.49-36.57,7.43,5.71,8.66,15.27,9.54,23.85l-3.18,3.18c-58.64-35.01,12.74,30.13-17.49,34.98-8.16,1.31-60.64-37.64-100.18-41.34-14.52-1.36-6.65-13.52-31.8,7.95q-4.77-27.83-9.54-55.65c33.9-46.58,25.13-53.32-6.36-1.59-16.84,8.04-11.27-15.94-50.88-25.44,3.02-37.15-5.66-11.57-11.13-11.13-98.97,7.9,13.36-52.81-38.16-44.52-9.06,1.46-38.68,30.8-46.11,14.31-6.92-15.37,17.44-15.5,22.26-22.26,4.57-6.4-13.8,1.12,22.26-62.02,37.16,3.48,105.61-41.85,22.26-6.36-2.12-7.05-19.58-.95-23.85-3.18-1.36-.71-9.48-24.39-11.13-28.62l6.36-1.59q-7.95-5.57-15.9-11.13c84.77-7.55,169.31-18.55,254.42-22.26Z"/>
              <g>
                <path class="cls-55" d="M1205.32,1084.51c-4.16-13.32-6.31-27.82-9.54-41.34,4.21,12.03,17.06,29.3,9.54,41.34Z"/>
                <path class="cls-55" d="M1195.78,1043.17c-.11-.46-8.55-5.19,0-9.54.85,2.33-.84,7.15,0,9.54Z"/>
                <g>
                  <path class="cls-89" d="M736.23,954.12c-5.71,19.13-33.82,45.29-50.88,57.24q25.44-28.62,50.88-57.24Z"/>
                  <path class="cls-89" d="M616.97,982.74c.41-.72-.23-3.83,0-6.36,6.27-1.23,15.34.85,22.26,0,83.34-35.49,14.9,9.85-22.26,6.36Z"/>
                  <path class="cls-89" d="M663.09,1001.82q-15.9,14.31-31.8,28.62-10.34,2.39-20.67,4.77,26.24-16.7,52.47-33.39Z"/>
                  <path class="cls-81" d="M704.43,1020.91q2.39.8,4.77,1.59c-36.58,49.72-20.4-.99-4.77-1.59Z"/>
                </g>
                <path class="cls-42" d="M990.65,1218.08c7.84-.38,4.33,2.54-3.18,9.54-19.01,17.7-6.75-9.06,3.18-9.54Z"/>
                <path class="cls-85" d="M1008.14,1268.97c-8.48.23-26.66-.36-25.44-9.54,4.5.76,23.48,7.22,25.44,9.54Z"/>
                <path class="cls-77" d="M884.11,1189.46l3.18-3.18c.06.61,8.45,11.33-3.18,3.18Z"/>
              </g>
            </g>
          </g>
          <g>
            <path class="cls-60" d="M1074.93,617.01c-17.85,63.12,23.5,92.22,9.54,111.31-30.37-2.33-12.78,8.09-12.72,9.54,1.94,44.16,20.35,74.99,25.44,117.67-4.14-.43-4.77-5.99-11.13-6.36-4.51-.26-93.16,30.01-77.92-4.77,1.86-4.24,35.76-10.75,20.67-20.67-11.91-7.83-158.6,14.9-42.93-14.31-31.81,3.62-34.85.79-60.43-9.54,24.17-35.69-18.49,17.27-15.9-17.49,62.76-34.45-25.69-62.48,41.34-58.83,1.87-4.61-34.27-27.69-14.31-4.77-41.04,1.61-28.52-29.47,27.03-14.31-5.94-5.98-10.92-22.85-3.18-25.44-42.52-32.9,20.24-21.98,9.54-42.93,34.74-5.6,70.3-12.55,104.95-19.08Z"/>
            <path class="cls-44" d="M1084.47,728.32c2.43.19,3.51.49,3.18,3.18-.78.35-5.37,7.89-15.9,6.36-.06-1.45-17.65-11.87,12.72-9.54Z"/>
            <path class="cls-85" d="M965.21,725.14c9.43-1.54,18.41,1.43,27.03,4.77-55.08,7.99-60.36.66-27.03-4.77Z"/>
          </g>
          <path class="cls-84" d="M1105.14,887.34c.49-.05,6,4.72,4.77,7.95-1.87,4.91-10.02-7.42-4.77-7.95Z"/>
          <path class="cls-27" d="M728.28,1418.44c-16.32-6.76-72.29-45.84-79.51-54.06-1.31-1.5-13.33-28.82-19.08-34.98,29.32-20.14,71.06-61.84,100.18-85.87,3.33,58.44,2.45,116.51-1.59,174.91Z"/>
          <path class="cls-63" d="M655.13,753.76c-15.11,11.47,7.75,11.78,25.44,3.18,31.4,10.81,40.17,41.16,41.34,71.56,4.92,9,52.54,17.23,54.06,33.39-42.98-1.43-126.41,19.52-131.98,15.9-1.19-.77-6.04-15.18,0-19.08,7.16-4.62,55.8-1.54,68.38-14.31-.7-15.54-79.53,22.24-90.64-11.13-19.54,16.58-44.33,3.71-66.79,6.36q54.86-15.11,109.72-30.21-8.75-5.57-17.49-11.13c-33.88,9.1-84.48,4.88-100.18,6.36,11.13-23.55,31.1-5.49,33.39-31.8,29.43,13.69,66.67-18.72,68.38-22.26-.24,4.19,2.83,3.01,6.36,3.18Z"/>
          <path class="cls-77" d="M391.17,915.96c6.17,24.36-57.28,16.36-111.31,28.62-13.24,3.01-31.65,18.71-31.8,3.18,3.86-2.43,8.23-4.71,9.54-9.54q66.79-11.13,133.57-22.26Z"/>
          <g>
            <path class="cls-9" d="M616.97,575.67c-2.4,15.46,23.08,6.34,25.44,11.13-61.91,25.28-12.19,19.35,20.67,14.31,22.81,7.44-32.75,84.85,34.98,41.34-29.96,65.21,10.87,34.99,11.13,46.11.32,13.69-17.91,3.57-20.67,4.77-18.03,7.85-49.27,54.55-14.31-17.49-33.53,2.36-12.86,10.57-19.08,28.62-1.43,4.14-12.4,6.09-12.72,9.54-.32,3.45,13.07,8.83,12.72,9.54-1.89,3.89-13.24-.75-15.9,3.18-.78,1.15,13.88,14.83,9.54,23.85-1.7,3.54-38.95,35.95-68.38,22.26-2.29,26.31-22.26,8.25-33.39,31.8-14.91,1.41-30.67,10.39-46.11,3.18-4.93,3.62-4.39,6.26-4.77,6.36-16.12-4.49-31.73-15.68-19.08-23.85-20.14-34.28-22.61,15.73-12.72,33.39-29.62,7.48,7.6,15.1,49.29,9.54-19.59,25.83,3.07,31.12,1.59,33.39-3.45,5.3-128.55-19.47-47.7,15.9.1,2.1-17,2.76-38.16,11.13-32.03,12.68-23.93,15.33-25.44,15.9-2.75,1.03-10.18-2.65-12.72,6.36q-66.79,11.13-133.57,22.26c-3.99-5.37-3.84-15.81-12.72-15.9-10.51-.11-6.7,16.68-15.9,3.18,4.81-26.58,18.38-86.89,19.08-101.77,8.6,10.07-18.22,94.38-7.95,89.05,57.88-109.19,42.4-176.08,52.47-292.58,18.29-2.42,36.07-6.86,54.06-9.54,44.91,35.14-2.55,61.78,57.24-6.36,71.01-10.02,142-19.16,213.08-28.62Z"/>
            <path class="cls-57" d="M403.89,604.29c-59.79,68.14-12.33,41.5-57.24,6.36,18.89-2.81,38.33-3.69,57.24-6.36Z"/>
            <path class="cls-77" d="M496.12,814.19c-.32.08,8.28,3.76,1.59,6.36-1.71.66-20.02-.19-33.39,3.18-9.89-17.66-7.42-67.68,12.72-33.39-12.65,8.17,2.96,19.36,19.08,23.85Z"/>
            <path class="cls-69" d="M615.38,645.64c18.63-2.24-2.36,26-9.54,25.44-9.6-.75,3.83-24.76,9.54-25.44Z"/>
            <path class="cls-62" d="M647.18,658.36c23.31-1.98-14.7,33.97-11.13,11.13.12-.78,10.35-11.06,11.13-11.13Z"/>
          </g>
          <g>
            <path class="cls-60" d="M807.79,658.36c-.52,18.16,7.78,103.95,12.72,116.08,10.65,26.16,23.28,4.64,38.16,23.85-22.97,12.9,4.09,20.56-11.13,25.44-7.8,2.5-35.89-46.7,17.49,65.2-23.21,19.56-31.04-25.1-89.05-27.03-1.53-16.16-49.14-24.4-54.06-33.39-1.18-30.39-9.95-60.75-41.34-71.56-6.89-2.37-17.95-2.83-25.44-3.18-3.53-.17-6.6,1.01-6.36-3.18,4.34-9.02-10.32-22.7-9.54-23.85,2.66-3.93,14.02.71,15.9-3.18.35-.72-13.04-6.09-12.72-9.54.32-3.45,11.29-5.4,12.72-9.54,6.22-18.05-14.45-26.27,19.08-28.62-34.96,72.04-3.72,25.34,14.31,17.49,2.76-1.2,20.99,8.92,20.67-4.77-.26-11.13-41.09,19.09-11.13-46.11-67.73,43.5-12.18-33.9-34.98-41.34-32.87,5.04-82.58,10.97-20.67-14.31-2.37-4.79-27.85,4.33-25.44-11.13,54.64-7.27,229.52-44.36,268.73-28.62,26.24,10.53-35.07,5.83-36.57,7.95,55.17,38.05-2.56,14.53-11.13,14.31-22.47-.57,6.01,13.51-6.36,22.26-.85.6-20.32-7.81-20.67,1.59-.19,5.12,15.97,3.6,12.72,9.54-1.13,2.07-10.93,2.21-14.31,4.77-23.35,17.64,67.61,3.08,65.2,7.95-.75,3.48-59.74,20.11-68.38,17.49-5.44,14.78,1.63,24.17,1.59,25.44Z"/>
            <path class="cls-32" d="M680.58,756.94c-17.69,8.6-40.55,8.29-25.44-3.18,7.49.35,18.55.81,25.44,3.18Z"/>
            <path class="cls-24" d="M713.97,655.18c2.15-.56,6.71-.65,7.95,1.59-30.81,33.08-20.24,1.6-7.95-1.59Z"/>
          </g>
          <g>
            <path class="cls-9" d="M909.56,782.39c-4.29,2.36-3.65,6.97-7.95,9.54-11.2-.91-33.73,1.19-42.93,6.36-14.89-19.22-27.52,2.31-38.16-23.85-4.94-12.13-13.24-97.92-12.72-116.08,26.23-5.12,53.08-6.24,79.51-9.54-57.24,92.36-21.19,73.17,28.62-6.36,14.17-2.11,30.95-2.64,54.06-6.36,10.69,20.96-52.06,10.03-9.54,42.93-7.74,2.6-2.76,19.47,3.18,25.44-55.56-15.16-68.08,15.92-27.03,14.31-19.96-22.92,16.18.16,14.31,4.77-67.03-3.64,21.42,24.38-41.34,58.83Z"/>
            <path class="cls-60" d="M887.29,648.82c8.77-1.1,19.77-5.04,28.62-6.36-49.82,79.53-85.87,98.73-28.62,6.36Z"/>
            <path class="cls-60" d="M901.6,731.5c16.58,3.59-29.6,53.91-20.67,17.49.6-2.45,19.03-17.85,20.67-17.49Z"/>
          </g>
          <path class="cls-6" d="M289.4,954.12c5.45,6.19-2.4,9.35-9.54,25.44-6.97-.69-12.58,8.74-19.08,9.54-1.12.14-18.96-2.62-22.26-3.18-9.46-23.68,32.12-28.09,50.88-31.8Z"/>
          <path class="cls-52" d="M314.85,950.94c-8.07,1.09-17.53,1.62-25.44,3.18-18.76,3.71-60.35,8.12-50.88,31.8-19.6-3.32-40.23-6.85,9.54-38.16.15,15.53,18.56-.17,31.8-3.18,7.33,12.6,24.47-3.78,34.98,6.36Z"/>
          <path class="cls-40" d="M279.86,979.56c-5.52,12.45-1.58,17.32-12.72,22.26l-6.36-12.72c6.5-.8,12.12-10.23,19.08-9.54Z"/>
          <g>
            <path class="cls-46" d="M1097.19,855.53c3.98.41,6.09,5.98,7.95,6.36,13.8,2.85,26.73-5.27,31.8-3.18,22.95,9.47-19.08,19.77-50.88,12.72-21.36,23.94-17.73,10.7-33.39,12.72-50.58,6.52-102.04,13.31-152.65,19.08-2.07.24-4.29-.23-6.36,0-8.54.96-17.01,2.24-25.44,3.18-9.61,1.07-19.12-2.59-19.08,3.18-85.11,3.71-169.65,14.71-254.42,22.26-53.57,4.77-107.29,11.92-160.6,19.08-52.6-11.01-68.33-6.88-119.26,0-10.51-10.15-27.65,6.24-34.98-6.36,54.03-12.27,117.48-4.26,111.31-28.62,2.54-9.01,9.97-5.33,12.72-6.36l58.83-6.36v-6.36q-16.7-1.59-33.39-3.18c21.16-8.38,38.26-9.03,38.16-11.13-80.84-35.37,44.25-10.6,47.7-15.9,1.48-2.28-21.18-7.56-1.59-33.39-41.69,5.56-78.92-2.07-49.29-9.54,13.37-3.37,31.68-2.52,33.39-3.18,6.69-2.6-1.91-6.28-1.59-6.36.39-.1-.16-2.74,4.77-6.36,15.44,7.21,31.2-1.77,46.11-3.18,15.69-1.48,66.3,2.74,100.18-6.36q8.75,5.57,17.49,11.13-54.86,15.11-109.72,30.21c22.46-2.65,47.24,10.22,66.79-6.36,11.11,33.37,89.94-4.41,90.64,11.13-12.57,12.77-61.21,9.69-68.38,14.31-6.04,3.9-1.19,18.31,0,19.08,5.58,3.62,89.01-17.33,131.98-15.9,58.01,1.93,65.84,46.59,89.05,27.03-53.38-111.9-25.29-62.7-17.49-65.2,15.22-4.88-11.84-12.54,11.13-25.44,9.2-5.17,31.73-7.27,42.93-6.36,4.3-2.57,3.66-7.18,7.95-9.54-2.59,34.76,40.07-18.2,15.9,17.49,25.58,10.34,28.61,13.16,60.43,9.54-115.66,29.21,31.02,6.48,42.93,14.31,15.09,9.92-18.81,16.43-20.67,20.67-15.25,34.78,73.41,4.51,77.92,4.77,6.36.37,6.99,5.93,11.13,6.36Z"/>
            <path class="cls-57" d="M429.34,893.7q16.7,1.59,33.39,3.18v6.36l-58.83,6.36c1.51-.57-6.59-3.22,25.44-15.9Z"/>
            <path class="cls-90" d="M605.84,858.71c38.64-.34-36.7,18.79-30.21,7.95,8.11-1.07,28.65-7.94,30.21-7.95Z"/>
            <path class="cls-43" d="M628.1,858.71c11.93-1.7-1.02,13.21-4.77,4.77-.14-.31,4.44-4.72,4.77-4.77Z"/>
          </g>
          <g>
            <path class="cls-9" d="M868.21,906.42c-5.66,65.24-.16,90.97,17.49,34.98-12.86,35.38,33.08,90.13,38.16,89.05,16.18-3.46-6.27-17.63-7.95-20.67-14.35-26,17.41,12.5,34.98,3.18-32.96,18.07-10.41,12.45-9.54,15.9.4,1.59-18.25,4.48-15.9,14.31-9.4.22-13.35,4.11-33.39-3.18-9.32,14.51-19.02,7.23-27.03,9.54-16.1-11.85-16.94,2.06-19.08,3.18-1.65.87-10.92,12.61-34.98,12.72.83-48.75,11.52-114.67,38.16-155.83-.04-5.77,9.47-2.11,19.08-3.18Z"/>
            <path class="cls-62" d="M865.03,1049.53c-1.09.31-5.31,10.37-19.08,3.18,2.14-1.12,2.98-15.03,19.08-3.18Z"/>
          </g>
          <g>
            <path class="cls-49" d="M826.87,1243.52c1.08.45,21.81,18.03,6.36-3.18,8.42-.39,17,.03,25.44,0,2.38,15.74-9.3,2.92-22.26,19.08-3.96,4.93-1.97,8.49-3.18,12.72-8.63,30.21,4.79,38.55-31.8,39.75.64,20.19,12.75,23.88,12.72,25.44-.04,2.05-9.32,1.39-28.62,22.26,32.08-6.32,40.73,15.23,38.16,22.26-9.03,24.76-41.03-32.42-33.39,27.03-19.69-16.9-23.27-9.83-23.85-11.13-.76-1.69,8.37-13.89-1.59-17.49-12.73-4.61-21.08,16.21-4.77,50.88-3.65-1.31-17.25-5.96-19.08-6.36-8.4-62.38,6.81-135.46,0-197.18,56.41,25.86,56.22,3.47,85.87,15.9Z"/>
            <path class="cls-50" d="M833.23,1240.34c15.45,21.21-5.28,3.63-6.36,3.18-.24-4.19,2.83-3.02,6.36-3.18Z"/>
            <path class="cls-35" d="M761.67,1278.51c14.93,46.05,4.98,72.56-1.59,1.59q.8-.8,1.59-1.59Z"/>
          </g>
          <g>
            <path class="cls-60" d="M1052.67,884.15c.08,33.65,8.41,72.2,15.9,106.54,6.21,28.44,29.52,51.1,9.54,68.38-50.05-11.92-101.02-17.11-152.65-15.9-2.35-9.83,16.3-12.72,15.9-14.31-.87-3.45-23.42,2.17,9.54-15.9-17.57,9.32-49.33-29.18-34.98-3.18,1.68,3.04,24.13,17.22,7.95,20.67-5.08,1.09-51.02-53.66-38.16-89.05-17.65,55.99-23.16,30.26-17.49-34.98,8.43-.94,16.91-2.22,25.44-3.18,7.07,17.76,17.72,18.06,6.36,0,50.62-5.77,102.08-12.56,152.65-19.08Z"/>
            <g>
              <path class="cls-22" d="M900.01,903.24c11.36,18.06.71,17.76-6.36,0,2.07-.23,4.29.24,6.36,0Z"/>
              <path class="cls-98" d="M930.23,976.38c45.27,7.87-14.42,32.21,7.95,11.13q-3.98-5.57-7.95-11.13Z"/>
              <path class="cls-89" d="M971.57,966.84q10.34,7.16,20.67,14.31c-.4,3.25-23.02-1.79-20.67-14.31Z"/>
              <path class="cls-18" d="M930.23,928.68c14.32.88,17.46,21.23,12.72,22.26q-6.36-11.13-12.72-22.26Z"/>
              <path class="cls-32" d="M946.13,960.48c9.72-2.51,18.55,9.55-3.18,6.36-3.24-.98,1.81-6.01,3.18-6.36Z"/>
              <path class="cls-25" d="M955.67,1027.27c2.02-.94,11.13-.19,11.13,1.59,0,3.61-17.41,1.33-11.13-1.59Z"/>
              <path class="cls-11" d="M911.15,982.74c.49-.05,6,4.72,4.77,7.95-1.87,4.91-10.02-7.42-4.77-7.95Z"/>
            </g>
          </g>
          <g>
            <path class="cls-46" d="M550.19,1141.76c-3.47,17.18,56.51,19.5,60.43,6.36,13.52,2.33,13.06,5.86,15.9,6.36-4.94,21.45-57.34,15.07-73.15,30.21,30.95,7.69,47.02-26.29,39.75,7.95,88.99,3.94,44.96,18.38-9.54,19.08-17.87,6.93,1.84,120.09,9.54,124.03,9.94,5.08,101.52-69.74,114.49-82.69,23.77-23.72,24.45-18.75,25.44-57.24.72,7.7,3.22,14.97,4.77,22.26.54,2.55,2.46,3.01,3.18,9.54,6.81,61.72-8.4,134.8,0,197.18-.47-.1-3.32,6.32-9.54,0,.36-2.85-3.39-3.37-3.18-6.36,4.04-58.41,4.92-116.47,1.59-174.91-29.12,24.03-70.86,65.72-100.18,85.87-7.91,5.43-20.43,5.9-19.08,15.9q-3.98,1.59-7.95,3.18c-30.47-15.92-60.2-35.13-90.64-50.88v-71.56c-4.38-13.16-28.04,26.41-17.49-7.95-69.91-13.72-32.36-21.05,11.13-30.21,3.35-18.38-72.75-14.58-33.39-27.03,10.93-3.46,47.41,4,30.21-12.72,3.99-.06,22.51-5.46,47.7-6.36Z"/>
            <path class="cls-57" d="M610.61,1148.12c-3.92,13.14-63.89,10.82-60.43-6.36,4.88-.17,1.4-7.77,7.95-6.36,9.38,17.34,25.88,8.13,52.47,12.72Z"/>
            <path class="cls-27" d="M558.14,1214.9c24.82-7.22,14.02,74.62,9.54,76.33-18.7,7.13-24.08-72.1-9.54-76.33Z"/>
            <path class="cls-79" d="M554.96,1303.95c17.43-4.37,17.43,13.92,0,9.54-5.03-1.26-5.03-8.28,0-9.54Z"/>
          </g>
        </g>
      </g>
    </g>
  </g>
</svg>